<?xml version="1.0" encoding="utf-8"?><svg xmlns="http://www.w3.org/2000/svg" xmlns:xlink="http://www.w3.org/1999/xlink"><symbol viewBox="0 0 612 792" id="atom"><path fill="#A1C900" d="M351.9 396c0 25.4-20.6 45.9-45.9 45.9-25.4 0-45.9-20.6-45.9-45.9 0-25.4 20.6-45.9 45.9-45.9 25.4 0 45.9 20.5 45.9 45.9z"/><path fill="#ABABAB" d="M87.8 327.1c0 19-15.4 34.5-34.5 34.5s-34.5-15.4-34.5-34.5c0-19 15.4-34.5 34.5-34.5s34.5 15.5 34.5 34.5zm321.5 321.5c0 19-15.4 34.5-34.4 34.5s-34.5-15.4-34.5-34.5c0-19 15.4-34.4 34.5-34.4 19 0 34.4 15.4 34.4 34.4zm114.9-436.3c0 19-15.5 34.4-34.5 34.4s-34.5-15.4-34.5-34.4 15.4-34.5 34.5-34.5c19 0 34.5 15.4 34.5 34.5z"/><path d="M507.8 396c75.1-64.4 122-130.9 97.7-173-11.4-19.7-35.8-29.3-72.1-28.8-7.1-17.1-24-29.2-43.7-29.2-25.2 0-45.7 19.9-47.1 44.8-11.6 3.3-23.5 7.1-35.8 11.4-18.2-97.2-52.3-171-100.9-171-48.6 0-82.7 73.8-100.9 171.1-93.3-33-174.3-40.3-198.6 1.7-11.1 19.2-7.7 44.5 9.9 74.9C10 306 6 316.1 6 327.1c0 26.1 21.2 47.3 47.3 47.3 7.7 0 14.9-2 21.3-5.3 9.2 8.9 19 17.9 29.4 26.9-17.8 15.3-34 30.6-48 45.7C6.5 495.3-10.7 539.3 6.4 569c11.1 19.3 34.8 29 69.7 29 18.6 0 40.5-2.8 65.3-8.4 20.1-4.5 41.5-11 63.7-18.8 18.2 97.3 52.3 171.1 100.9 171.1 15.8 0 38.5-8.5 60.4-46.8 2.8.5 5.6.9 8.5.9 26.1 0 47.3-21.2 47.3-47.3 0-17.3-9.5-32.3-23.4-40.6 3-11.9 5.7-24.3 8.1-37.3 48.3 17 93.4 27.2 128.9 27.2 33.1 0 58-8.8 69.7-29.1 24.3-42-22.5-108.5-97.7-172.9zm-18.1-205.3c11.9 0 21.6 9.7 21.6 21.6 0 11.9-9.7 21.6-21.6 21.6-11.9 0-21.6-9.7-21.6-21.6s9.7-21.6 21.6-21.6zm-41.3 44.1c8 14.7 23.5 24.7 41.3 24.7 23.5 0 42.9-17.3 46.5-39.7 24.5.1 41 5.7 47 16.1 14.3 24.8-21.4 80.9-95.4 143.6-21.1-16.9-44-33.6-67.8-49.4-1.8-28.5-4.8-56.6-8.8-83.3 12.8-4.6 25.1-8.5 37.2-12zm-97.2 239.6c-15.1 8.7-30.2 16.8-45.3 24.6-14.8-7.6-29.9-15.7-45.2-24.6-15.1-8.7-29.7-17.7-44-27-.8-16.6-1.2-33.8-1.2-51.4s.4-34.8 1.2-51.4c14.3-9.2 28.9-18.2 44-27 15-8.7 30.1-16.8 45.2-24.6 14.8 7.6 29.9 15.7 45.3 24.6 15.4 8.9 30 17.9 44 27 .8 16.6 1.2 33.7 1.2 51.4 0 17.3-.5 34.5-1.3 51.5-14 9-28.5 18-43.9 26.9zm41.9 4.8c-1.6 19.5-3.7 38.5-6.3 56.8-16.8-6.7-34.2-14.3-52.2-22.9 9.8-5.3 19.7-10.8 29.5-16.5 9.7-5.6 19.4-11.4 29-17.4zM277.5 513c-17.8 8.4-35.3 16.1-52.4 22.9-2.6-17.9-4.8-36.8-6.3-56.8 9.6 6 19.3 11.8 29.1 17.5 9.7 5.7 19.6 11.1 29.6 16.4zm-87.1-83.1c-16.1-11.1-31.5-22.4-45.9-33.8 14.4-11.4 29.8-22.7 45.9-33.9a956.798 956.798 0 0 0 0 67.7zm28.3-117.1c1.6-19.9 3.7-38.9 6.4-56.8 16.8 6.7 34.3 14.4 52.4 23-9.9 5.3-19.8 10.8-29.6 16.4-9.9 5.7-19.6 11.5-29.2 17.4zm115.8-33.9c17.7-8.4 35.3-16.1 52.4-22.9 2.6 17.9 4.8 36.9 6.4 56.8-9.6-6-19.4-11.8-29.1-17.5-9.9-5.6-19.8-11.1-29.7-16.4zm87.1 83.2c16.5 11.3 31.8 22.7 46 33.9-14.2 11.2-29.6 22.5-46 33.9a958.2 958.2 0 0 0 0-67.8zM306 75.8c28.6 0 59.4 58.9 76.7 154.3-25 9.7-50.7 21.2-76.7 34.1-25.6-12.7-51.5-24.2-76.7-34 17.3-95.5 48.1-154.4 76.7-154.4zM31.7 327.1c0-11.9 9.7-21.6 21.6-21.6 11.9 0 21.6 9.7 21.6 21.6 0 11.9-9.7 21.6-21.6 21.6-11.9 0-21.6-9.7-21.6-21.6zm61.9 24.6c4.4-7.2 7.1-15.5 7.1-24.6 0-26.1-21.2-47.3-47.3-47.3-5.7 0-11.1 1.2-16.1 3-11.3-20.3-14.4-36.8-8.6-46.9 14.3-24.8 80.8-21.9 172 10.8-4.1 26.7-7.1 54.8-8.9 83.2-24.3 16.1-46.9 32.7-67.8 49.4-10.8-9.2-20.9-18.4-30.4-27.6zm42.1 212.8c-56.6 12.8-96.6 9.7-107-8.4-10.4-18.1 6.8-54.3 46.2-96.9 14.2-15.3 30.8-30.9 49.2-46.5 20.8 16.7 43.6 33.2 67.8 49.3 1.8 28.5 4.8 56.5 8.8 83.2-22.7 8-44.6 14.7-65 19.3zm239.2 105.8c-11.9 0-21.6-9.7-21.6-21.6 0-11.9 9.7-21.6 21.6-21.6 11.9 0 21.6 9.7 21.6 21.6 0 11.9-9.7 21.6-21.6 21.6zm-.9-68.9c-25.7.5-46.4 21.4-46.4 47.2 0 13.9 6.2 26.3 15.8 35-12.2 21-25.3 32.5-37.4 32.5-28.6 0-59.4-58.9-76.7-154.3 24.9-9.7 50.7-21 76.8-34 25.5 12.7 51.3 24.1 76.5 34-2.6 13.9-5.5 27-8.6 39.6zm209.3-45.3c-14.3 24.8-80.8 21.9-172-10.8 4-26.4 7-54.5 8.8-83.4 23.8-15.8 46.7-32.4 67.8-49.4 73.9 62.7 109.7 118.8 95.4 143.6z"/></symbol><symbol viewBox="0 0 612 792" id="cube-molecule"><path fill="#A1C900" d="M467.5 316.4c0 30.6-24.7 55.3-55.3 55.3-30.5 0-55.3-24.7-55.3-55.3 0-30.5 24.8-55.3 55.3-55.3 30.6 0 55.3 24.8 55.3 55.3z"/><path fill="#ABABAB" d="M121.1 316.4c0 30.6-24.7 55.3-55.3 55.3-30.5 0-55.3-24.7-55.3-55.3 0-30.5 24.8-55.3 55.3-55.3 30.6 0 55.3 24.8 55.3 55.3zM466 636.9c0 30.6-24.7 55.3-55.3 55.3-30.5 0-55.3-24.7-55.3-55.3 0-30.6 24.8-55.3 55.3-55.3 30.6 0 55.3 24.8 55.3 55.3zm135.5-481.1c0 30.6-24.7 55.3-55.3 55.3-30.5 0-55.3-24.7-55.3-55.3 0-30.6 24.8-55.3 55.3-55.3 30.5 0 55.3 24.8 55.3 55.3zm-348.4 318c0 30.6-24.7 55.3-55.3 55.3-30.5 0-55.3-24.8-55.3-55.3 0-30.6 24.8-55.3 55.3-55.3 30.5 0 55.3 24.7 55.3 55.3z"/><path d="M550.2 411V221.2c34.4-2.1 61.8-30.5 61.8-65.4 0-36.3-29.5-65.8-65.8-65.8-35.9 0-65.1 28.9-65.7 64.7H264.7c-1-35.4-30-63.9-65.6-63.9-36.3 0-65.8 29.5-65.8 65.8 0 15.9 5.9 30.3 15.3 41.7-.5.5-1.2.8-1.7 1.3l-48.1 57.8c-.5.6-.7 1.2-1 1.9-9.5-5.3-20.3-8.6-31.9-8.6C29.5 250.6 0 280.1 0 316.4c0 33 24.5 60.1 56.2 64.8v190.1C24.5 576 0 603.2 0 636.2 0 672.5 29.5 702 65.8 702c32 0 58.7-23 64.5-53.3h215.5c.6 0 1.2-.3 1.8-.4 5.7 30.5 32.5 53.7 64.6 53.7 36.3 0 65.8-29.5 65.8-65.8 0-15.9-5.9-30.3-15.3-41.7.6-.5 1.2-.7 1.7-1.3l48.2-57.9c.5-.5.6-1.2 1-1.8 9.5 5.3 20.2 8.6 31.9 8.6 36.3 0 65.8-29.5 65.8-65.8-.1-34.6-27.1-62.8-61.1-65.3zm-70.4 63.5h-57.5v-93.2c31.5-4.9 55.7-32 55.7-64.8 0-15.9-5.9-30.3-15.3-41.7.6-.5 1.2-.7 1.7-1.3l48.2-57.8c.7-.8 1-1.8 1.5-2.7 3.5 2 7.2 3.7 11.1 5v196c-25.8 8.4-44.6 32.1-45.4 60.5zm-215.1 0c-.9-32-24.7-58.1-55.5-62.9V329h138.5c4.9 25.4 24.5 45.6 49.6 51.4v94.1H264.7zM98.8 577.1c-.5.6-.7 1.2-1 1.9-5.1-2.9-10.6-5.2-16.5-6.6V380.2c24.8-6 44.2-26 49.1-51.3h53.8v83.4c-29.1 6.8-50.9 32.8-50.9 63.9 0 15.9 5.9 30.3 15.3 41.7-.5.5-1.2.8-1.7 1.3l-48.1 57.9zm59.5-100.8c0-22.5 18.3-40.8 40.8-40.8 22.5 0 40.8 18.3 40.8 40.8 0 22.5-18.3 40.8-40.8 40.8-22.5 0-40.8-18.3-40.8-40.8zM453 316.4c0 22.5-18.3 40.8-40.8 40.8-22.5 0-40.8-18.3-40.8-40.8 0-22.5 18.3-40.8 40.8-40.8 22.5.1 40.8 18.4 40.8 40.8zM546.2 115c22.5 0 40.8 18.3 40.8 40.8s-18.3 40.8-40.8 40.8-40.8-18.3-40.8-40.8 18.3-40.8 40.8-40.8zm-285.8 64.7H485c2.6 6.6 6.3 12.5 10.8 17.9-.8.6-1.7 1.1-2.4 1.9l-48.2 57.8c-.5.6-.7 1.3-1 1.9-9.5-5.3-20.3-8.6-31.9-8.6-32 0-58.7 23-64.5 53.3H209.1v-82.6c23.7-3.6 43.1-19.8 51.3-41.6zM199 115.8c22.5 0 40.8 18.3 40.8 40.8 0 22.5-18.3 40.8-40.8 40.8-22.5 0-40.8-18.3-40.8-40.8.1-22.5 18.4-40.8 40.8-40.8zm-32.9 99.8c.5-.6.6-1.2 1-1.8 5.3 3 10.9 5.3 17 6.7v83.4h-53.8c-2.1-11-7.2-20.9-14.1-29.2.6-.5 1.2-.7 1.7-1.3.1 0 48.2-57.8 48.2-57.8zM25 316.4c0-22.5 18.3-40.8 40.8-40.8 22.5 0 40.8 18.3 40.8 40.8 0 22.5-18.3 40.8-40.8 40.8-22.5 0-40.8-18.3-40.8-40.8zM65.8 677C43.3 677 25 658.7 25 636.2c0-22.5 18.3-40.8 40.8-40.8 22.5 0 40.8 18.3 40.8 40.8 0 22.5-18.3 40.8-40.8 40.8zm281.8-53c-.6-.1-1.2-.4-1.8-.4H130.4c-2.1-11-7.2-20.9-14.1-29.2.6-.5 1.2-.7 1.7-1.3l48.1-57.8c.5-.6.6-1.2 1-1.8 9.5 5.3 20.3 8.6 31.9 8.6 28.1 0 52-17.8 61.4-42.6h136.9v72.7c-25.2 5.9-44.9 26.2-49.7 51.8zm64.6 53c-22.5 0-40.8-18.3-40.8-40.8 0-22.5 18.3-40.8 40.8-40.8 22.5 0 40.8 18.3 40.8 40.8 0 22.5-18.3 40.8-40.8 40.8zm32.9-99.8c-.5.6-.6 1.2-1 1.8-6.7-3.8-14-6.4-21.9-7.6v-71.9H484c2.6 6.8 6.3 13 10.9 18.5-.5.5-1.1.7-1.6 1.3l-48.2 57.9zm100.3-60.1c-22.5 0-40.8-18.3-40.8-40.8 0-22.5 18.3-40.8 40.8-40.8 22.5 0 40.8 18.3 40.8 40.8 0 22.5-18.3 40.8-40.8 40.8z"/></symbol><symbol viewBox="0 0 612 792" id="genetics"><path d="M263.4 590.4H91.3l-86-149 86-149h172.1l86 149-86 149zm-157.8-24.8h143.5l71.7-124.3L249.1 317H105.6L33.8 441.4l71.8 124.2z"/><path d="M500 453.7H328l-86-149 86-149h172l86 149-86 149zM342.2 429h143.5l71.8-124.3-71.8-124.3H342.2l-71.7 124.3L342.2 429zM88 311.4l-33.6-51.9 20.8-13.4 33.6 51.9L88 311.4m186.2 321.9l-28.6-49 21.4-12.5 28.6 49-21.4 12.5"/><path fill="#A1C900" d="M135.5 578c0-20.5-16.6-37.1-37.1-37.1S61.3 557.5 61.3 578s16.6 37.1 37.1 37.1 37.1-16.6 37.1-37.1z"/><path d="M98.4 627.5c-27.3 0-49.5-22.2-49.5-49.5s22.2-49.5 49.5-49.5 49.5 22.2 49.5 49.5-22.2 49.5-49.5 49.5zm0-74.3c-13.6 0-24.7 11.1-24.7 24.7s11.1 24.7 24.7 24.7 24.7-11.1 24.7-24.7c.1-13.6-11-24.7-24.7-24.7z"/><path fill="#ABABAB" d="M530.9 167.9c0-20.8-16.9-37.6-37.7-37.6s-37.7 16.9-37.7 37.6c0 20.8 16.9 37.7 37.7 37.7s37.7-16.8 37.7-37.7z"/><path d="M493.2 218c-27.6 0-50-22.5-50-50 0-27.6 22.5-50 50-50 27.6 0 50 22.4 50 50 0 27.5-22.4 50-50 50zm0-75.3c-14 0-25.3 11.3-25.3 25.3s11.3 25.3 25.3 25.3 25.3-11.3 25.3-25.3-11.4-25.3-25.3-25.3z"/><path fill="#A1C900" d="M321.3 633.9c0-17.1-13.8-30.9-30.9-30.9-17.1 0-30.9 13.8-30.9 30.9 0 17.1 13.8 30.9 30.9 30.9 17.1 0 30.9-13.8 30.9-30.9z"/><path d="M290.4 674.1c-22.2 0-40.2-18-40.2-40.2 0-22.2 18-40.2 40.2-40.2 22.2 0 40.2 18 40.2 40.2 0 22.2-18 40.2-40.2 40.2zm0-61.9c-11.9 0-21.7 9.7-21.7 21.7 0 11.9 9.7 21.7 21.7 21.7 11.9 0 21.7-9.7 21.7-21.7-.1-12-9.8-21.7-21.7-21.7z"/><path fill="#A1C900" d="M287.2 304.7c0-17.1-13.8-30.9-30.9-30.9-17.1 0-30.9 13.8-30.9 30.9 0 17.1 13.8 30.9 30.9 30.9 17 0 30.9-13.8 30.9-30.9z"/><path d="M256.2 344.9c-22.2 0-40.2-18-40.2-40.2s18-40.2 40.2-40.2 40.2 18 40.2 40.2-18 40.2-40.2 40.2zm0-61.8c-11.9 0-21.7 9.7-21.7 21.7 0 11.9 9.7 21.7 21.7 21.7 11.9 0 21.7-9.7 21.7-21.7s-9.7-21.7-21.7-21.7z"/><path fill="#ABABAB" d="M378.6 441.4c0-23.9-19.4-43.3-43.3-43.3S292 417.5 292 441.4s19.4 43.3 43.3 43.3 43.3-19.4 43.3-43.3z"/><path d="M335.2 497c-30.7 0-55.7-25-55.7-55.7 0-30.7 25-55.7 55.7-55.7 30.7 0 55.7 25 55.7 55.7 0 30.8-24.9 55.7-55.7 55.7zm0-86.6c-17 0-30.9 13.9-30.9 30.9 0 17.1 13.9 30.9 30.9 30.9 17.1 0 31-13.9 31-30.9s-13.9-30.9-31-30.9z"/><path fill="#A1C900" d="M602.7 308.4c0-17.1-13.8-30.9-30.9-30.9-17.1 0-30.9 13.8-30.9 30.9s13.8 30.9 30.9 30.9c17.1 0 30.9-13.8 30.9-30.9z"/><path d="M571.8 348.6c-22.2 0-40.2-18-40.2-40.2s18-40.2 40.2-40.2c22.2 0 40.2 18 40.2 40.2s-18 40.2-40.2 40.2zm0-61.9c-11.9 0-21.7 9.7-21.7 21.7 0 11.9 9.7 21.7 21.7 21.7 11.9 0 21.7-9.7 21.7-21.7s-9.8-21.7-21.7-21.7z"/><path fill="#ABABAB" d="M86.6 229.7c0-20.5-16.6-37.1-37.1-37.1s-37.1 16.6-37.1 37.1 16.6 37.1 37.1 37.1 37.1-16.6 37.1-37.1z"/><path d="M49.5 279.2C22.2 279.2 0 257 0 229.7s22.2-49.5 49.5-49.5S99 202.4 99 229.7s-22.2 49.5-49.5 49.5zm0-74.2c-13.6 0-24.7 11.1-24.7 24.7s11.1 24.7 24.7 24.7 24.7-11.1 24.7-24.7S63.1 205 49.5 205z"/></symbol><symbol viewBox="0 0 612 792" id="molecule"><path fill="#A1C900" d="M434.1 396c0 70.8-57.4 128.1-128.1 128.1-70.8 0-128.1-57.4-128.1-128.1 0-70.7 57.4-128.1 128.1-128.1 70.7 0 128.1 57.4 128.1 128.1zm116-183.5c27.3 0 49.4 22.2 49.4 49.4s-22.2 49.4-49.4 49.4-49.4-22.1-49.4-49.4c0-27.2 22.2-49.4 49.4-49.4zM61.9 311.3c-27.2 0-49.4-22.2-49.4-49.4 0-27.3 22.2-49.4 49.4-49.4s49.4 22.2 49.4 49.4c0 27.3-22.2 49.4-49.4 49.4z"/><path fill="#ABABAB" d="M61.9 579.5c-27.2 0-49.4-22.2-49.4-49.4s22.2-49.4 49.4-49.4 49.4 22.2 49.4 49.4-22.2 49.4-49.4 49.4zm194.7-431.3c0-27.3 22.2-49.4 49.4-49.4s49.4 22.2 49.4 49.4c0 27.3-22.2 49.4-49.4 49.4s-49.4-22.1-49.4-49.4z"/><path fill="#FFF" d="M256.6 396c0-27.3 22.2-49.4 49.4-49.4s49.4 22.2 49.4 49.4c0 27.3-22.2 49.4-49.4 49.4s-49.4-22.1-49.4-49.4z"/><path fill="#A1C900" d="M355.4 643.8c0 27.3-22.2 49.4-49.4 49.4s-49.4-22.1-49.4-49.4c0-27.3 22.2-49.4 49.4-49.4s49.4 22.2 49.4 49.4z"/><path fill="#ABABAB" d="M542.8 579.5c-27.3 0-49.4-22.2-49.4-49.4 0-27.3 22.2-49.4 49.4-49.4s49.4 22.1 49.4 49.4c0 27.2-22.2 49.4-49.4 49.4z"/><path d="M489.9 515.3c-2.1 0-4.2-.5-6.1-1.6l-378.6-214c-6-3.4-8.1-11-4.7-17 3.4-6 11-8.1 17.1-4.7l378.6 214c6 3.4 8.1 11 4.7 17-2.4 4-6.6 6.3-11 6.3z"/><path d="M111.3 526.1c-4.3 0-8.5-2.2-10.9-6.3-3.5-6-1.4-13.6 4.6-17.1l389.4-224.8c6-3.5 13.6-1.4 17.1 4.6 3.5 6 1.4 13.6-4.6 17.1L117.5 524.4c-1.9 1.1-4.1 1.7-6.2 1.7z"/><path d="M306 606c-6.9 0-12.5-5.6-12.5-12.5V208.7c0-6.9 5.6-12.5 12.5-12.5s12.5 5.6 12.5 12.5v384.8c0 7-5.6 12.5-12.5 12.5zm244.1-282.1c-34.1 0-61.9-27.8-61.9-61.9 0-34.2 27.8-61.9 61.9-61.9 34.1 0 61.9 27.8 61.9 61.9 0 34.1-27.8 61.9-61.9 61.9zm0-98.9c-20.3 0-36.9 16.6-36.9 36.9 0 20.3 16.5 36.9 36.9 36.9 20.3 0 36.9-16.5 36.9-36.9 0-20.3-16.6-36.9-36.9-36.9zM61.9 323.9C27.8 323.9 0 296.1 0 262c0-34.2 27.8-62 61.9-62 34.1 0 61.9 27.8 61.9 61.9 0 34.2-27.7 62-61.9 62zm0-98.9C41.6 225 25 241.6 25 262c0 20.3 16.5 36.9 36.9 36.9 20.3 0 36.9-16.5 36.9-36.9s-16.6-37-36.9-37zm0 367C27.8 592 0 564.2 0 530.1c0-34.1 27.8-61.9 61.9-61.9 34.1 0 61.9 27.8 61.9 61.9 0 34.1-27.7 61.9-61.9 61.9zm0-98.8c-20.3 0-36.9 16.5-36.9 36.9 0 20.3 16.5 36.9 36.9 36.9 20.3 0 36.9-16.5 36.9-36.9s-16.6-36.9-36.9-36.9z"/><path d="M306 210.1c-34.2 0-61.9-27.8-61.9-61.9 0-34.2 27.8-61.9 61.9-61.9 34.1 0 61.9 27.8 61.9 61.9 0 34.1-27.8 61.9-61.9 61.9zm0-98.8c-20.3 0-36.9 16.6-36.9 36.9 0 20.3 16.6 36.9 36.9 36.9 20.3 0 36.9-16.5 36.9-36.9 0-20.3-16.6-36.9-36.9-36.9z"/><path fill="#EBEEF0" d="M256.6 396c0-27.3 22.2-49.4 49.4-49.4s49.4 22.2 49.4 49.4c0 27.3-22.2 49.4-49.4 49.4s-49.4-22.1-49.4-49.4z"/><path d="M306 457.9c-34.2 0-61.9-27.8-61.9-61.9 0-34.2 27.8-61.9 61.9-61.9 34.1 0 61.9 27.8 61.9 61.9 0 34.2-27.8 61.9-61.9 61.9zm0-98.8c-20.3 0-36.9 16.6-36.9 36.9 0 20.3 16.6 36.9 36.9 36.9 20.3 0 36.9-16.5 36.9-36.9 0-20.3-16.6-36.9-36.9-36.9zm0 346.6c-34.1 0-61.9-27.8-61.9-61.9 0-34.2 27.8-61.9 61.9-61.9 34.1 0 61.9 27.8 61.9 61.9 0 34.1-27.8 61.9-61.9 61.9zm0-98.8c-20.3 0-36.9 16.6-36.9 36.9 0 20.3 16.6 36.9 36.9 36.9 20.3 0 36.9-16.5 36.9-36.9 0-20.3-16.6-36.9-36.9-36.9zM542.8 592c-34.1 0-61.9-27.8-61.9-61.9 0-34.2 27.8-61.9 61.9-61.9 34.1 0 61.9 27.8 61.9 61.9 0 34.1-27.8 61.9-61.9 61.9zm0-98.8c-20.3 0-36.9 16.6-36.9 36.9 0 20.3 16.6 36.9 36.9 36.9 20.3 0 36.9-16.5 36.9-36.9s-16.6-36.9-36.9-36.9z"/></symbol><symbol viewBox="0 0 612 792" id="molecules"><path fill="#ADADAD" d="M288.3 163.6c11 42.7-14.8 86.3-57.5 97.2-42.7 11-86.3-14.8-97.2-57.5-11-42.8 14.8-86.3 57.5-97.3 42.7-10.9 86.3 14.9 97.2 57.6zM36.4 551.5c31.5-30.9 82.1-30.4 113 1.2 30.9 31.5 30.4 82.1-1.2 113-31.5 30.9-82.1 30.3-113-1.2-30.9-31.6-30.4-82.2 1.2-113zm461.8 24.3c-42.5-11.9-67.3-55.9-55.5-98.4 11.9-42.5 55.9-67.3 98.4-55.4 42.5 11.8 67.3 55.9 55.5 98.4-11.8 42.4-55.9 67.2-98.4 55.4z"/><path fill="#A1C900" d="M347.6 411.5c10.4 40.5-14 81.8-54.5 92.2-40.5 10.4-81.7-14-92.1-54.5-10.4-40.5 14-81.7 54.5-92.2 40.4-10.4 81.7 14 92.1 54.5z"/><path d="M600.1 453.5C588 432 568.2 416.6 544.5 410c-8.1-2.3-16.5-3.4-24.9-3.4-33.8 0-64.2 18.9-80.3 47.5l-77.1-23.7c0-7.3-.8-14.7-2.7-22-10-39-45.1-66.2-85.3-66.2-2 0-4 .2-5.9.4L247.8 268c17.7-7.7 32.5-20.6 42.5-37.5 12.5-21.2 16.1-46 9.9-69.9-10.5-40.8-47.2-69.4-89.3-69.4-7.7 0-15.5 1-23 2.9-49.2 12.7-79 63.1-66.4 112.3 10.5 40.8 47.2 69.3 89.3 69.3 4.4 0 8.8-.4 13.2-1.1l20 72.8c-42 15.3-66.5 60.4-55.1 104.6 2.9 11.3 8.1 21.5 14.8 30.5l-58.4 50.6c-15.5-11-33.8-16.9-53.2-16.9-24.3 0-47.2 9.3-64.5 26.3C10.1 559.9.3 582.9 0 607.6c-.3 24.7 9.1 47.9 26.3 65.5 17.5 17.9 40.9 27.7 65.9 27.7 24.3 0 47.2-9.3 64.5-26.3 17.6-17.2 27.5-40.3 27.7-65 .2-21.9-7.1-42.6-20.9-59.3l57.4-49.8c14.9 11.3 33.4 18 53.2 18 7.4 0 14.7-.9 21.9-2.8 22.8-5.8 41.9-20.2 53.9-40.5 3.8-6.4 6.6-13.1 8.6-20l71.4 22c-11.6 48 16.8 97.2 64.7 110.6 8.1 2.3 16.5 3.4 24.8 3.4 41.2 0 77.7-27.7 88.8-67.5 7-23.7 4-48.6-8.1-70.1zM145.5 200.3c-9.2-36.1 12.6-72.9 48.6-82.2 5.5-1.4 11.2-2.1 16.8-2.1 30.8 0 57.7 20.9 65.4 50.8 4.5 17.5 1.9 35.7-7.3 51.2s-23.9 26.5-41.3 31c-5.5 1.4-11.2 2.1-16.8 2.1-30.8-.1-57.7-20.9-65.4-50.8zm-6 456.5c-12.7 12.4-29.5 19.3-47.2 19.3-18.3 0-35.5-7.2-48.3-20.3-12.6-12.9-19.5-29.9-19.3-47.9.2-18 7.4-34.9 20.3-47.5C57.7 547.9 74.5 541 92.2 541c18.3 0 35.4 7.2 48.2 20.3 12.6 12.9 19.5 29.9 19.3 48-.1 18-7.3 34.9-20.2 47.5zm189.3-194.3c-8.6 14.6-22.4 24.9-38.8 29.1-5.2 1.3-10.5 2-15.8 2-28.9 0-54.1-19.6-61.3-47.6-8.7-33.8 11.8-68.4 45.6-77.1 5.2-1.3 10.5-2 15.8-2 28.9 0 54.1 19.6 61.3 47.6 4.3 16.4 1.8 33.5-6.8 48zM584.7 517c-8.1 29.1-34.9 49.4-65 49.4-6.1 0-12.2-.8-18.2-2.5-35.9-10-56.9-47.4-46.9-83.2 8.1-29.1 34.9-49.4 65-49.4 6.1 0 12.2.8 18.2 2.5 17.4 4.9 31.8 16.2 40.7 31.9 8.9 15.7 11.1 33.9 6.2 51.3z"/></symbol></svg>
