<svg viewBox="0 0 24 24" xmlns="http://www.w3.org/2000/svg"><path d="M12.7 20.7c-.18.2-.43.3-.7.3-.3 0-.54-.12-.73-.3-5.05-5-7.76-7.72-8.13-8.2C2.57 11.83 2 10.3 2 9c0-3.3 2.7-6 6-6 1.54 0 2.94.58 4 1.53C13.06 3.58 14.46 3 16 3c3.3 0 6 2.7 6 6 0 1.4-.5 2.7-1.3 3.73-.54.68-3.2 3.34-8 7.98zM11.2 6.6C10.45 5.62 9.3 5 8 5 5.8 5 4 6.8 4 9c0 .87.28 1.68.76 2.34.32.44 2.73 2.86 7.24 7.25 4.37-4.17 6.8-6.58 7.24-7.26.68-1 .76-1.46.76-2.34 0-2.2-1.8-4-4-4-1.3 0-2.46.62-3.2 1.58l-.02.04c-.18.23-.46.38-.78.38-.3 0-.58-.14-.76-.35l-.05-.07z"/></svg>