<svg viewBox="0 0 24 24" xmlns="http://www.w3.org/2000/svg"><path d="M19 17v2c0 .55-.45 1-1 1-.23 0-.46-.08-.64-.23L14 17H3c-.55 0-1-.45-1-1V5c0-.55.45-1 1-1h18c.55 0 1 .45 1 1v11c0 .55-.45 1-1 1h-2zM4 6v9h10.72L17 16.88V15h3V6H4zm8 5.75c-.7 0-1.25-.56-1.25-1.25 0-.7.56-1.25 1.25-1.25s1.25.56 1.25 1.25c0 .7-.56 1.25-1.25 1.25zm-4.25 0c-.7 0-1.25-.56-1.25-1.25 0-.7.56-1.25 1.25-1.25S9 9.8 9 10.5c0 .7-.56 1.25-1.25 1.25zm8.5 0c-.7 0-1.25-.56-1.25-1.25 0-.7.56-1.25 1.25-1.25s1.25.56 1.25 1.25c0 .7-.56 1.25-1.25 1.25z"/></svg>