<svg viewBox="0 0 24 24" xmlns="http://www.w3.org/2000/svg"><path d="M7.37 12.97L5.24 5H4c-.55 0-1-.45-1-1s.45-1 1-1h2c.32 0 .6.15.78.38.1.1.15.23.2.37L7.57 6H20c.43 0 .8.27.94.65.07.2.08.4.03.6l-1.6 6c-.14.5-.58.8-1.06.75H9.18l-.4 1.5H18c.55 0 1 .45 1 1s-.45 1-1 1H7.47c-.37 0-.7-.2-.86-.5-.13-.22-.17-.5-.1-.77l.87-3.26zm1.8-.97h8.46l1.07-4H8.1l1.08 4zm.08 9C8.55 21 8 20.44 8 19.75s.56-1.25 1.25-1.25 1.25.56 1.25 1.25S9.94 21 9.25 21zm7.5 0c-.7 0-1.25-.56-1.25-1.25s.56-1.25 1.25-1.25 1.25.56 1.25 1.25S17.44 21 16.75 21z"/></svg>