<svg viewBox="0 0 24 24" xmlns="http://www.w3.org/2000/svg"><path d="M12 22C6.48 22 2 17.52 2 12S6.48 2 12 2s10 4.48 10 10-4.48 10-10 10zm0-2c4.42 0 8-3.58 8-8s-3.58-8-8-8-8 3.58-8 8 3.58 8 8 8zm0-2c-.7 0-1.25-.56-1.25-1.25S11.3 15.5 12 15.5s1.25.56 1.25 1.25S12.7 18 12 18zm1.5-8.5c0-.83-.67-1.5-1.5-1.5s-1.5.67-1.5 1.5c0 .55-.45 1-1 1s-1-.45-1-1C8.5 7.57 10.07 6 12 6s3.5 1.57 3.5 3.5c0 1.8-1.57 2.6-1.8 2.73-.22.14-.4.34-.53.57-.1.2-.17.45-.17.7 0 .56-.45 1-1 1s-1-.44-1-1c0-.95.38-1.62 1-2.25.62-.63 1.5-.93 1.5-1.75z"/></svg>