<svg viewBox="0 0 20 20" xmlns="http://www.w3.org/2000/svg"><path d="M10 20C4.48 20 0 15.52 0 10S4.48 0 10 0s10 4.48 10 10-4.48 10-10 10zm0-2c4.42 0 8-3.58 8-8s-3.58-8-8-8-8 3.58-8 8 3.58 8 8 8zm0-2c-.7 0-1.25-.56-1.25-1.25 0-.7.55-1.25 1.25-1.25s1.25.56 1.25 1.25c0 .7-.55 1.25-1.25 1.25zm1.5-8.5c0-.83-.67-1.5-1.5-1.5s-1.5.67-1.5 1.5c0 .55-.45 1-1 1s-1-.45-1-1C6.5 5.57 8.07 4 10 4s3.5 1.57 3.5 3.5c0 1.8-1.57 2.6-1.8 2.73-.22.14-.4.34-.53.57-.1.2-.17.45-.17.7 0 .56-.45 1-1 1s-1-.44-1-1c0-.95.38-1.62 1-2.25.62-.63 1.5-.93 1.5-1.75z"/></svg>