<svg viewBox="0 0 24 24" xmlns="http://www.w3.org/2000/svg"><path d="M4.36 5.783l1.848-1.548c.168-.14.377-.223.596-.234.56-.03 1.037.4 1.067.96l.008.116c.065.738.196 1.458.386 2.153.055.197.14.462.255.795.09.26.07.542-.052.786l-.965 1.932c1.316 2.434 3.322 4.44 5.756 5.757l1.93-.967c.244-.122.527-.14.785-.05.33.114.595.2.792.253.7.192 1.423.323 2.166.388l.107.007c.22.013.43.096.6.24.428.36.482 1 .12 1.428l-1.557 1.846c-.23.272-.586.402-.936.34-.57-.1-1.012-.192-1.327-.273-5.7-1.467-10.182-5.95-11.65-11.644-.083-.317-.174-.762-.275-1.336-.063-.355.07-.716.344-.947z"/></svg>