<svg viewBox="0 0 24 24" xmlns="http://www.w3.org/2000/svg"><path d="M12.293 15.492L15.3 17.67l-1.166-3.65c-.065-.204.006-.426.178-.553L17.36 11.2l-3.787-.16c-.21-.008-.392-.147-.455-.348L12 7.162l-1.118 3.53c-.063.2-.245.34-.455.35l-3.787.157 3.048 2.267c.172.127.243.35.178.553L8.7 17.67l3.007-2.178c.175-.127.41-.127.586 0zM12 17.132l-5.257 3.805c-.156.114-.375.08-.49-.078-.064-.09-.082-.207-.048-.313l2.015-6.303-5.078-3.777c-.155-.116-.187-.335-.072-.49.063-.085.16-.136.266-.14l6.328-.266 2.002-6.326c.06-.184.255-.286.44-.228.108.035.193.12.228.228l2.002 6.327 6.328.266c.193.008.343.17.335.365-.006.106-.058.204-.142.267l-5.078 3.777 2.015 6.303c.06.184-.042.38-.226.44-.107.034-.223.015-.313-.05L12 17.13z"/></svg>