<svg viewBox="0 0 18 18" xmlns="http://www.w3.org/2000/svg"><path d="M11.83 15.36l.93.93 3.53-3.54L5.24 1.7 1.7 5.25l.94.93 1.23-1.24c.3-.3.77-.3 1.06 0 .3.3.3.77 0 1.06L3.7 7.22 4.76 8.3l.53-.54c.28-.3.75-.3 1.05 0 .3.3.3.77 0 1.06l-.53.53.88.9L7.94 9c.3-.3.77-.3 1.06 0 .3.3.3.77 0 1.06L7.76 11.3l.9.88.52-.53c.3-.3.77-.3 1.06 0 .3.3.3.77 0 1.06l-.53.54 1.07 1.06L12 13.07c.3-.3.77-.3 1.06 0 .3.3.3.77 0 1.06l-1.23 1.24zM5.96.3L17.7 12.05c.4.4.4 1.02 0 1.4l-4.24 4.25c-.4.4-1.02.4-1.4 0L.3 5.95c-.4-.4-.4-1.02 0-1.4L4.54.3c.4-.4 1.03-.4 1.42 0z"/></svg>