<svg viewBox="0 0 24 24" xmlns="http://www.w3.org/2000/svg"><path d="M7.677 17.192l1.246-5.156s.126-.623-.196-1.178c0 0-.718-1.77.7-3.273 0 0 1.16-1.298 2.647-.32 0 0 .848.66.506 1.907l-1.01 3.113s-.615 2.367 1.666 2.57c0 0 2.408.32 3.57-2.9 1.16-3.222-.19-5.274-.19-5.274s-1.737-3.01-5.66-2.377c-3.925.634-4.42 4.33-4.42 4.33s-.296 2.278.935 3.938l-.588 1.987S3.878 12.66 4.004 9.25c0 0 .126-5.683 6.013-7.053 0 0 5.33-1.326 8.487 2.904 1.766 2.367 1.64 4.943 1.262 6.854-.38 1.91-1.808 3.133-1.808 3.133s-3.864 4.048-7.226.476l-.715 2.723S9.177 21.236 8.04 22l-.523-.132s-.26-3.287.16-4.676z"/></svg>