<svg viewBox="0 0 20 20" xmlns="http://www.w3.org/2000/svg"><path d="M11.52 10.18l7.2 7.2c.37.38.37.97 0 1.34-.37.37-.96.37-1.33 0l-7.23-7.2C9.5 11.48 9 10.92 9 10.26 9 9.56 9.54 9 10.24 9c.67 0 1.22.52 1.26 1.18h.02zm5.37 2.75c.36-.9.57-1.9.57-2.93 0-4.14-3.36-7.5-7.5-7.5-4.14 0-7.5 3.36-7.5 7.5 0 4.15 3.36 7.5 7.5 7.5 1.04 0 2.03-.2 2.93-.6l1.6 1.6-.07-.03c-.6-.23-1.3.06-1.57.65l-.13.27c-.24.5-.86.74-1.4.5-.1-.05-.18-.1-.27-.2l-.2-.2c-.5-.43-1.23-.43-1.7 0l-.22.2c-.43.4-1.1.38-1.5-.05-.07-.08-.13-.17-.17-.27l-.13-.28c-.27-.6-.96-.88-1.57-.65l-.27.1c-.55.2-1.15-.07-1.35-.62-.04-.1-.06-.2-.07-.32v-.3c-.04-.64-.56-1.16-1.2-1.2h-.3c-.6-.02-1.04-.5-1.02-1.1 0-.1.03-.2.07-.3l.1-.28c.23-.62-.06-1.3-.65-1.57l-.27-.12c-.5-.25-.74-.87-.5-1.4.05-.1.1-.2.2-.27l.2-.22c.44-.48.44-1.22 0-1.7l-.2-.22c-.4-.42-.38-1.1.05-1.48.08-.08.17-.14.27-.2l.28-.1c.6-.28.88-.96.65-1.58l-.1-.28c-.2-.55.07-1.15.62-1.36.1-.03.2-.06.33-.06h.3c.64-.04 1.16-.56 1.2-1.2v-.3c.02-.6.5-1.04 1.1-1.02.1 0 .2.03.32.07l.27.1c.6.24 1.3-.05 1.56-.64L7.3.6c.23-.5.85-.76 1.4-.5.1.03.17.1.26.17l.2.2c.5.44 1.23.44 1.7 0l.22-.2c.43-.4 1.1-.37 1.5.06.07.08.13.17.17.27l.13.28c.27.6.96.88 1.57.65l.27-.1c.55-.2 1.15.07 1.35.62.04.1.06.2.07.32v.3c.04.65.56 1.17 1.2 1.2h.3c.6.03 1.04.52 1.02 1.1 0 .1-.03.22-.07.32l-.1.26c-.24.62.05 1.3.64 1.57l.27.12c.53.25.76.87.5 1.4-.03.1-.1.2-.17.27l-.2.22c-.45.48-.45 1.22 0 1.7l.2.22c.4.42.37 1.1-.06 1.48-.08.08-.17.14-.27.2l-.28.1c-.6.28-.88.96-.65 1.58l.05.14-1.63-1.64z"/></svg>