<svg viewBox="0 0 20 18" xmlns="http://www.w3.org/2000/svg"><path d="M11.31 9.75h3.28l1.856 1.857c.293.293.768.293 1.06 0 .294-.293.294-.768 0-1.06l-.795-.797h2.54c.415 0 .75-.336.75-.75s-.335-.75-.75-.75h-2.5l.76-.76c.293-.292.293-.767 0-1.06-.293-.293-.77-.293-1.06 0l-1.82 1.82H11.33l1.64-2.837 2.485-.666c.4-.108.638-.52.53-.92-.107-.4-.518-.636-.918-.53l-1.038.28 1.26-2.185c.208-.36.085-.818-.274-1.025-.36-.207-.817-.084-1.025.275l-1.28 2.218-.292-1.09c-.106-.4-.517-.636-.917-.53-.4.108-.638.52-.53.92l.68 2.536-1.63 2.822-1.66-2.874.666-2.486c.106-.4-.13-.81-.53-.918-.4-.107-.813.13-.92.53L7.3 2.807 6.042.623C5.835.265 5.377.143 5.018.35c-.36.205-.482.664-.275 1.022L6.02 3.59 4.935 3.3c-.4-.108-.812.13-.92.53-.106.4.13.81.532.918l2.536.68 1.63 2.822h-3.32l-1.82-1.82c-.292-.293-.767-.293-1.06 0-.293.293-.293.768 0 1.06l.76.76H.75C.336 8.25 0 8.586 0 9s.336.75.75.75h2.56l-.796.796c-.293.293-.293.768 0 1.06.292.294.767.294 1.06 0L5.43 9.75h3.303l-1.66 2.877-2.538.68c-.4.107-.637.518-.53.918.107.4.52.638.92.53l1.086-.29-1.27 2.198c-.205.36-.082.818.277 1.025.36.207.817.084 1.024-.275l1.25-2.165.28 1.037c.107.4.52.638.92.53.4-.107.636-.518.53-.918L8.35 13.41l1.67-2.89 1.64 2.84-.68 2.536c-.106.4.132.81.532.92.4.106.81-.132.918-.532l.292-1.087 1.27 2.2c.207.358.665.48 1.024.273.36-.208.482-.666.274-1.025l-1.25-2.165 1.038.278c.4.107.81-.13.918-.53.107-.4-.13-.812-.53-.92l-2.486-.665-1.67-2.893h-.002z"/></svg>