<svg viewBox="0 0 18 18" xmlns="http://www.w3.org/2000/svg"><path d="M9.46 7.2l-2-2c.17-.42.25-.87.25-1.34C7.7 1.73 6 0 3.87 0c-.3 0-.55.25-.55.55 0 .15.06.3.17.4l1.7 1.68-.5 1.87-1.88.5-1.63-1.63C.9 3.1.47 3.1.2 3.37c-.13.13-.2.3-.2.48C0 6 1.73 7.7 3.86 7.7c.47 0 .92-.07 1.34-.23l2 2-.8.77h-.33c-.35-.02-.7.12-.95.37L.38 15.38c-.5.5-.5 1.3 0 1.8l.44.45c.5.5 1.32.5 1.83 0l4.75-4.75c.25-.25.4-.6.38-.95v-.3l.8-.8 6.8 6.8c.5.5 1.32.5 1.83 0l.42-.43c.5-.5.5-1.33 0-1.83l-6.8-6.82 3.7-3.7L16 4.63c.44-.08.82-.38.98-.8l.9-2.23c.07-.2.03-.4-.1-.55l-.83-.82C16.8.1 16.6.05 16.4.13l-2.23.9c-.4.15-.7.53-.8.97l-.24 1.52L9.46 7.2z"/></svg>