<svg viewBox="0 0 24 24" xmlns="http://www.w3.org/2000/svg"><path d="M3 17c-.55 0-1-.45-1-1V9c0-.55.45-1 1-1h4V5c0-.55.45-1 1-1h8c.55 0 1 .45 1 1v3h4c.55 0 1 .45 1 1v7c0 .55-.45 1-1 1h-3l.56 1.68c.18.53-.1 1.1-.63 1.27-.1.03-.2.05-.32.05H6.4c-.56 0-1-.45-1-1 0-.1 0-.2.04-.32L6 17H3zm14.33-2H20v-5H4v5h2.67l.1-.32c.14-.4.52-.68.95-.68h8.56c.43 0 .8.28.95.68l.1.32zM8.5 8h7V5.5h-7V8zM7.27 18.5h9.46l-.67-3H7.94l-.67 3zm10.48-5c-.7 0-1.25-.56-1.25-1.25S17.06 11 17.75 11s1.25.56 1.25 1.25-.56 1.25-1.25 1.25z"/></svg>