<svg viewBox="0 0 24 24" xmlns="http://www.w3.org/2000/svg"><path d="M14.828 18.364l.927.926 3.535-3.535L8.245 4.71 4.71 8.245l.926.927 1.237-1.238c.293-.293.768-.293 1.06 0 .294.293.294.768 0 1.06l-1.236 1.238 1.06 1.06.53-.53c.294-.292.768-.292 1.06 0 .294.293.294.768 0 1.06l-.53.532.885.883L10.94 12c.292-.293.767-.293 1.06 0 .293.293.293.768 0 1.06L10.763 14.3l.883.884.53-.53c.294-.293.77-.293 1.06 0 .294.293.294.767 0 1.06l-.53.53 1.062 1.06 1.237-1.236c.293-.293.768-.293 1.06 0 .294.293.294.768 0 1.06l-1.237 1.238zM8.962 3.296l11.752 11.752c.39.39.39 1.023 0 1.414l-4.252 4.243c-.39.39-1.024.39-1.414 0L3.296 8.952c-.39-.39-.39-1.023 0-1.414l4.242-4.242c.39-.39 1.033-.39 1.424 0z"/></svg>