<svg viewBox="0 0 20 16" xmlns="http://www.w3.org/2000/svg"><path d="M1 13c-.55 0-1-.45-1-1V5c0-.55.45-1 1-1h4V1c0-.55.45-1 1-1h8c.55 0 1 .45 1 1v3h4c.55 0 1 .45 1 1v7c0 .55-.45 1-1 1h-3l.56 1.68c.18.53-.1 1.1-.63 1.27-.1.03-.2.05-.32.05H4.4c-.56 0-1-.45-1-1 0-.1 0-.2.04-.32L4 13H1zm14.33-2H18V6H2v5h2.67l.1-.32c.14-.4.52-.68.95-.68h8.56c.43 0 .8.28.95.68l.1.32zM6.5 4h7V1.5h-7V4zM5.27 14.5h9.46l-.67-3H5.94l-.67 3zm10.48-5c-.7 0-1.25-.56-1.25-1.25 0-.7.56-1.25 1.25-1.25.7 0 1.25.56 1.25 1.25 0 .7-.56 1.25-1.25 1.25z"/></svg>