<svg viewBox="0 0 24 24" xmlns="http://www.w3.org/2000/svg"><path d="M12.458 10.19l-1.985-1.988c.156-.42.24-.872.24-1.345C10.714 4.727 8.988 3 6.858 3c-.305 0-.552.247-.552.553 0 .146.058.287.16.39l1.69 1.69-.498 1.862-1.864.5L4.17 6.37c-.267-.268-.7-.267-.97 0-.128.13-.2.303-.2.485 0 2.13 1.727 3.857 3.857 3.857.473 0 .926-.085 1.345-.24l1.988 1.984-.787.788-.33-.01c-.354-.01-.698.126-.948.377l-4.75 4.756c-.5.502-.5 1.316.002 1.817l.433.434c.502.503 1.315.503 1.817.002l4.758-4.75c.25-.25.387-.594.376-.948l-.007-.3.803-.803 6.813 6.802c.5.5 1.314.5 1.816 0l.433-.435c.5-.5.502-1.315 0-1.818l-6.8-6.814 3.69-3.69L19 7.62c.444-.075.816-.375.983-.792l.895-2.236c.074-.186.03-.398-.11-.54l-.82-.82c-.142-.14-.354-.184-.54-.11l-2.236.895c-.417.167-.717.54-.79.982l-.255 1.52-3.67 3.67z"/></svg>