<svg viewBox="0 0 24 24" xmlns="http://www.w3.org/2000/svg"><path d="M19.24 11.3c.54.14.86.68.73 1.22L18.9 16.5c-.14.53-.68.86-1.22.73l-.5-.13c-.2.6-.4 1.24-.6 1.9-.77 1.77-2.53 3-4.58 3-2 0-3.74-1.18-4.54-2.9-2-4.48-3.14-8.22-3.45-11.23V7.5C4 4.46 6.46 2 9.5 2c1.2 0 3.04.24 5.5.7 2.3.67 4 2.8 4 5.3 0 .85-.12 1.9-.35 3.16l.6.15zM17 8c0-1.55-1-2.9-2.46-3.34-2.3-.44-4-.66-5.04-.66C7.57 4 6 5.57 6 7.5v.22c.3 2.76 1.4 6.3 3.28 10.54C9.78 19.3 10.82 20 12 20c1.17 0 2.22-.68 2.7-1.72.2-.57.37-1.13.53-1.67l-.46-.1c-.54-.13-.86-.68-.73-1.2l1.08-4c.13-.53.67-.85 1.2-.72l.4.1C16.9 9.6 17 8.7 17 8zm-.76 6.8l.97.25.56-2.05-.97-.24-.56 2.05z"/></svg>