<svg viewBox="0 0 18 18" xmlns="http://www.w3.org/2000/svg"><path d="M9.3 12.5l3 2.17-1.17-3.65c-.06-.2 0-.43.18-.55l3.06-2.27-3.8-.16c-.2 0-.38-.15-.44-.35L9 4.15 7.88 7.7c-.06.2-.24.33-.45.34l-3.8.16 3.06 2.27c.16.12.23.35.17.55L5.7 14.67l3-2.18c.18-.13.42-.13.6 0zM9 14.12l-5.26 3.8c-.15.12-.37.1-.5-.07-.05-.1-.07-.2-.04-.3l2.02-6.32L.14 7.47c-.15-.12-.18-.34-.07-.5.06-.08.16-.13.27-.13l6.32-.27 2-6.33c.07-.18.26-.28.45-.22.1.03.2.12.23.22l2 6.33 6.33.27c.2 0 .35.17.34.36 0 .1-.06.2-.14.27l-5.08 3.78 2 6.3c.07.18-.03.38-.2.44-.12.02-.23 0-.32-.06L9 14.14z"/></svg>