<svg viewBox="0 0 18 18" xmlns="http://www.w3.org/2000/svg"><path d="M4.37 9.97L2.24 2H1c-.55 0-1-.45-1-1s.45-1 1-1h2c.32 0 .6.15.78.38.1.1.15.23.2.37L4.58 3H17c.43 0 .8.27.94.65.07.2.08.4.03.6l-1.6 6c-.14.5-.58.8-1.06.75H6.2l-.4 1.5H15c.55 0 1 .45 1 1s-.45 1-1 1H4.47c-.37 0-.7-.2-.86-.5-.12-.22-.16-.5-.1-.77l.88-3.26zM6.17 9h8.46l1.07-4H5.1l1.08 4zm.08 9C5.55 18 5 17.44 5 16.75c0-.7.56-1.25 1.25-1.25.7 0 1.25.56 1.25 1.25 0 .7-.56 1.25-1.25 1.25zm7.5 0c-.7 0-1.25-.56-1.25-1.25 0-.7.56-1.25 1.25-1.25.7 0 1.25.56 1.25 1.25 0 .7-.56 1.25-1.25 1.25z"/></svg>