<svg viewBox="0 0 20 18" xmlns="http://www.w3.org/2000/svg"><path d="M10.7 17.7c-.18.2-.43.3-.7.3-.3 0-.54-.12-.73-.3-5.05-5-7.76-7.72-8.13-8.2C.57 8.83 0 7.3 0 6c0-3.3 2.7-6 6-6 1.54 0 2.94.58 4 1.53C11.06.58 12.46 0 14 0c3.3 0 6 2.7 6 6 0 1.4-.5 2.7-1.3 3.73-.54.68-3.2 3.34-8 7.98zM9.2 3.6C8.45 2.62 7.3 2 6 2 3.8 2 2 3.8 2 6c0 .87.28 1.68.76 2.34.32.44 2.73 2.86 7.24 7.25 4.37-4.18 6.8-6.6 7.24-7.27.68-1 .76-1.46.76-2.34 0-2.2-1.8-4-4-4-1.3 0-2.46.6-3.2 1.57l-.02.04c-.18.24-.46.4-.78.4-.3 0-.58-.15-.76-.36l-.05-.07v.03z" fill-rule="nonzero" fill="#000"/></svg>