<svg viewBox="0 0 20 16" xmlns="http://www.w3.org/2000/svg"><path d="M17 13v2c0 .55-.45 1-1 1-.23 0-.46-.08-.64-.23L12 13H1c-.55 0-1-.45-1-1V1c0-.55.45-1 1-1h18c.55 0 1 .45 1 1v11c0 .55-.45 1-1 1h-2zM2 2v9h10.72L15 12.88V11h3V2H2zm8 5.75c-.7 0-1.25-.56-1.25-1.25 0-.7.56-1.25 1.25-1.25.7 0 1.25.56 1.25 1.25 0 .7-.56 1.25-1.25 1.25zm-4.25 0c-.7 0-1.25-.56-1.25-1.25 0-.7.56-1.25 1.25-1.25.7 0 1.25.55 1.25 1.25s-.56 1.25-1.25 1.25zm8.5 0c-.7 0-1.25-.56-1.25-1.25 0-.7.56-1.25 1.25-1.25.7 0 1.25.56 1.25 1.25 0 .7-.56 1.25-1.25 1.25z"/></svg>