<svg viewBox="0 0 24 24" xmlns="http://www.w3.org/2000/svg"><path d="M20.7 19.3c.4.38.4 1.02 0 1.4-.38.4-1 .4-1.4 0l-4.25-4.24C13.8 17.43 12.2 18 10.5 18 6.36 18 3 14.64 3 10.5 3 6.36 6.36 3 10.5 3c4.14 0 7.5 3.36 7.5 7.5 0 1.7-.57 3.3-1.54 4.55l4.25 4.24zM10.5 16c3.04 0 5.5-2.46 5.5-5.5S13.54 5 10.5 5 5 7.46 5 10.5 7.46 16 10.5 16zm-.75-6.25v-2.5c0-.4.34-.75.75-.75s.75.34.75.75v2.5h2.5c.4 0 .75.34.75.75s-.34.75-.75.75h-2.5v2.5c0 .4-.34.75-.75.75s-.75-.34-.75-.75v-2.5h-2.5c-.4 0-.75-.34-.75-.75s.34-.75.75-.75h2.5z"/></svg>