<svg viewBox="0 0 24 24" xmlns="http://www.w3.org/2000/svg"><path d="M21 12c0 .55-.45 1-1 1s-1-.45-1-1c0-3.87-3.13-7-7-7-1.32 0-2.55.37-3.6 1H9c.55 0 1 .45 1 1s-.45 1-1 1H6c-.26 0-.5-.1-.7-.3-.2-.2-.3-.46-.3-.73V4c0-.55.45-1 1-1s1 .45 1 1v.52C8.43 3.56 10.15 3 12 3c4.97 0 9 4.03 9 9zm-5.4 6H15c-.55 0-1-.45-1-1s.45-1 1-1h3c.26 0 .5.1.7.3.2.2.3.46.3.73V20c0 .55-.45 1-1 1s-1-.45-1-1v-.52c-1.43.96-3.15 1.52-5 1.52-4.97 0-9-4.03-9-9 0-.55.45-1 1-1s1 .45 1 1c0 3.87 3.13 7 7 7 1.32 0 2.55-.37 3.6-1z"/></svg>