<svg viewBox="0 0 24 24" xmlns="http://www.w3.org/2000/svg"><path d="M13.31 12.75h3.28l1.856 1.857c.293.293.768.293 1.06 0 .294-.293.294-.768 0-1.06l-.795-.797h2.54c.414 0 .75-.336.75-.75s-.336-.75-.75-.75h-2.5l.76-.76c.292-.292.292-.767 0-1.06-.294-.293-.77-.293-1.062 0l-1.82 1.82h-3.297l1.64-2.837 2.485-.666c.4-.108.638-.52.53-.92-.107-.4-.518-.636-.918-.53l-1.037.28 1.26-2.185c.208-.36.085-.818-.274-1.025-.36-.207-.817-.084-1.025.275L14.713 5.86l-.292-1.09c-.107-.4-.518-.636-.918-.53-.4.108-.638.52-.53.92l.68 2.536-1.63 2.822-1.66-2.874.666-2.486c.107-.4-.13-.81-.53-.918-.4-.107-.812.13-.92.53l-.277 1.037-1.26-2.184c-.207-.358-.665-.48-1.024-.274s-.482.665-.275 1.023L8.02 6.59 6.935 6.3c-.4-.108-.812.13-.92.53-.106.4.13.81.532.918l2.536.68 1.63 2.822h-3.32l-1.82-1.82c-.292-.293-.767-.293-1.06 0-.293.293-.293.768 0 1.06l.76.76H2.75c-.414 0-.75.336-.75.75s.336.75.75.75h2.56l-.796.796c-.293.293-.293.768 0 1.06.292.294.767.294 1.06 0L7.43 12.75h3.303l-1.66 2.877-2.538.68c-.4.107-.637.518-.53.918.107.4.52.638.92.53l1.086-.29-1.27 2.198c-.206.36-.083.818.276 1.025.36.207.817.084 1.024-.275l1.25-2.165.278 1.037c.108.4.52.638.92.53.4-.107.637-.518.53-.918l-.667-2.486 1.67-2.892 1.64 2.84-.68 2.537c-.106.4.132.81.532.92.4.106.81-.132.918-.532l.292-1.087 1.27 2.2c.207.358.665.48 1.024.273.36-.208.482-.666.274-1.025l-1.25-2.165 1.038.278c.4.107.81-.13.918-.53.107-.4-.13-.812-.53-.92l-2.486-.665-1.67-2.893z"/></svg>