<svg viewBox="0 0 18 18" xmlns="http://www.w3.org/2000/svg"><path d="M12.7 5.3c.4.38.4 1.02 0 1.4l-6 6c-.38.4-1.02.4-1.4 0-.4-.4-.4-1.02 0-1.4l6-6c.38-.4 1-.4 1.4 0zm-1.15 3.98l3.87-3.87c.78-.76.78-2.02 0-2.8-.78-.8-2.05-.8-2.83 0L8.7 6.47C8.36 5.13 8.7 3.64 9.75 2.6l1.42-1.43c1.56-1.56 4.1-1.56 5.65 0 1.56 1.56 1.56 4.1 0 5.66l-1.4 1.4c-1.06 1.06-2.54 1.4-3.88 1.05zm-5.1-.55L2.6 12.6c-.8.77-.8 2.04 0 2.82.77.78 2.03.78 2.8 0l3.88-3.87c.35 1.34 0 2.82-1.04 3.87l-1.4 1.4c-1.57 1.57-4.1 1.57-5.67 0-1.56-1.55-1.56-4.08 0-5.64L2.6 9.76C3.6 8.7 5.1 8.36 6.43 8.73z"/></svg>