<svg viewBox="0 0 16 20" xmlns="http://www.w3.org/2000/svg"><path d="M3.68 15.2l1.24-5.16s.13-.63-.2-1.18c0 0-.7-1.77.7-3.27 0 0 1.17-1.3 2.65-.33 0 0 .85.66.5 1.9l-1 3.12c0-.02-.62 2.35 1.67 2.55 0 0 2.4.33 3.57-2.9 1.17-3.22-.18-5.27-.18-5.27s-1.74-3-5.66-2.38c-3.93.64-4.42 4.33-4.42 4.33s-.3 2.28.93 3.94l-.6 2s-3-1.9-2.87-5.32C0 7.25.13 1.57 6.02.2c0 0 5.33-1.33 8.48 2.9 1.77 2.37 1.64 4.94 1.27 6.86-.38 1.9-1.8 3.13-1.8 3.13s-3.88 4.04-7.24.46l-.7 2.73s-.85 2.94-2 3.7l-.5-.13s-.27-3.3.15-4.68z"/></svg>