<svg viewBox="0 0 16 20" xmlns="http://www.w3.org/2000/svg"><path d="M15.24 9.3c.54.14.86.68.73 1.22L14.9 14.5c-.14.53-.68.86-1.22.73l-.5-.13c-.2.6-.4 1.24-.6 1.9-.77 1.77-2.53 3-4.58 3-2 0-3.74-1.18-4.54-2.9C1.46 12.62.32 8.88 0 5.87V5.5C0 2.46 2.47 0 5.5 0c1.2 0 3.04.24 5.5.7 2.3.67 4 2.8 4 5.3 0 .85-.12 1.9-.35 3.16l.6.15zM13 6c0-1.55-1-2.9-2.46-3.34-2.3-.44-4-.66-5.04-.66C3.57 2 2 3.57 2 5.5v.22c.3 2.76 1.4 6.3 3.28 10.54C5.78 17.3 6.82 18 8 18c1.17 0 2.22-.68 2.7-1.72.2-.57.37-1.13.53-1.67l-.46-.1c-.54-.12-.86-.67-.73-1.2l1.08-4c.13-.52.67-.84 1.2-.7l.4.1c.18-1.1.28-2 .28-2.7zm-.76 6.8l.97.25.57-2.05-.97-.24-.56 2.05z"/></svg>