<svg viewBox="0 0 24 24" xmlns="http://www.w3.org/2000/svg"><path d="M13.52 12.18l7.2 7.2c.37.38.37.97 0 1.34-.37.37-.96.37-1.33 0l-7.22-7.2c-.66-.04-1.18-.6-1.18-1.26 0-.7.56-1.26 1.26-1.26.67 0 1.22.52 1.26 1.18zm5.37 2.75c.37-.9.58-1.9.58-2.93 0-4.14-3.36-7.5-7.5-7.5-4.14 0-7.5 3.36-7.5 7.5 0 4.15 3.36 7.5 7.5 7.5 1.04 0 2.03-.2 2.93-.6l1.6 1.6-.07-.03c-.6-.23-1.3.06-1.57.65l-.13.27c-.24.5-.86.75-1.4.5-.1-.04-.18-.1-.27-.18l-.2-.2c-.5-.44-1.23-.44-1.7 0l-.22.2c-.43.4-1.1.37-1.5-.06-.07-.08-.13-.17-.17-.27l-.13-.28c-.27-.6-.96-.88-1.57-.65l-.27.1c-.55.2-1.15-.07-1.35-.62-.04-.1-.06-.2-.07-.32v-.3c-.04-.65-.56-1.17-1.2-1.2h-.3c-.6-.03-1.04-.52-1.02-1.1 0-.1.03-.22.07-.32l.1-.27c.23-.62-.06-1.3-.65-1.57l-.27-.12c-.52-.25-.75-.87-.5-1.4.04-.1.1-.2.18-.27l.2-.22c.45-.48.45-1.22 0-1.7l-.2-.22c-.4-.42-.37-1.1.06-1.48.08-.08.17-.14.27-.2l.28-.1c.6-.28.88-.96.65-1.58l-.1-.28c-.2-.55.07-1.15.62-1.36.1-.03.2-.06.33-.06h.3c.64-.04 1.16-.56 1.2-1.2v-.3c.02-.6.5-1.04 1.1-1.02.1 0 .2.03.32.07l.27.1c.6.23 1.3-.06 1.57-.65l.13-.27c.24-.5.86-.75 1.4-.5.1.04.18.1.27.18l.2.2c.5.44 1.23.44 1.7 0l.22-.2c.43-.4 1.1-.37 1.5.06.07.08.13.17.17.27l.13.28c.27.6.96.88 1.57.65l.27-.1c.55-.2 1.15.07 1.35.62.04.1.06.2.07.32v.3c.04.65.56 1.17 1.2 1.2h.3c.6.03 1.04.52 1.02 1.1 0 .1-.03.22-.07.32l-.1.27c-.23.62.06 1.3.65 1.57l.27.12c.52.25.75.87.5 1.4-.04.1-.1.2-.18.27l-.2.22c-.45.48-.45 1.22 0 1.7l.2.22c.4.42.37 1.1-.06 1.48-.08.08-.17.14-.27.2l-.28.1c-.6.28-.88.96-.65 1.58l.05.14-1.63-1.64z"/></svg>