<svg xmlns="http://www.w3.org/2000/svg" xmlns:xlink="http://www.w3.org/1999/xlink" viewBox="0 0 32 32" enable-background="new 0 0 32 32"><defs><path id="1" d="m0 0h32v32h-32z"/><clipPath id="0"><use xlink:href="#1"/></clipPath></defs><path clip-path="url(#0)" d="m30.798 4.22c.833-.833.833-2.184 0-3.02-.833-.833-2.183-.833-3.02 0l-11.781 11.781-11.779-11.781c-.834-.833-2.185-.833-3.02 0-.834.832-.834 2.183 0 3.02l11.78 11.78-11.78 11.781c-.834.833-.834 2.183 0 3.02.416.417.961.625 1.508.625.546 0 1.09-.208 1.508-.625l11.779-11.781 11.781 11.781c.417.417.962.625 1.508.625.546 0 1.092-.208 1.508-.625.833-.833.833-2.183 0-3.02l-11.781-11.781"/></svg>