<svg xmlns="http://www.w3.org/2000/svg" viewBox="0 0 32 32" enable-background="new 0 0 32 32"><g ><path d="m17.742 10.874h-3.367v-3.367c0-.382-.311-.693-.693-.693h-2.062c-.382 0-.693.311-.693.693v3.367h-3.367c-.382 0-.693.311-.693.693v2.062c0 .382.311.693.693.693h3.367v3.367c0 .382.311.694.693.694h2.062c.382 0 .693-.311.693-.694v-3.367h3.367c.382 0 .693-.311.693-.693v-2.062c0-.382-.311-.693-.693-.693"/><path d="m31.377 27.6l-8.04-8.04.154-.253c1.182-1.939 1.807-4.172 1.807-6.459 0-1.676-.349-3.326-1.038-4.903-.664-1.521-1.608-2.899-2.806-4.097-1.198-1.198-2.576-2.141-4.098-2.805-1.578-.689-3.228-1.038-4.908-1.038-3.325 0-6.45 1.295-8.8 3.646-2.35 2.351-3.644 5.477-3.644 8.802 0 1.675.349 3.325 1.038 4.903.664 1.521 1.608 2.899 2.806 4.097 1.198 1.198 2.576 2.142 4.097 2.806 1.578.689 3.227 1.038 4.903 1.038 2.2 0 4.368-.587 6.268-1.698l.251-.147 8.08 8.09c.302.301.703.467 1.13.467.427 0 .827-.166 1.128-.466l1.955-1.955c.766-.766.06-1.638-.28-1.978m-18.533-5.5c-2.437-.0001-4.895-1.062-6.742-2.91-1.848-1.848-2.908-4.306-2.908-6.742 0-5.104 4.151-9.256 9.254-9.256 2.437 0 4.895 1.06 6.744 2.908 1.849 1.848 2.909 4.306 2.909 6.744 0 5.104-4.152 9.256-9.257 9.256"/></g></svg>