<svg xmlns="http://www.w3.org/2000/svg" viewBox="0 0 32 32" enable-background="new 0 0 32 32"><g ><path d="m28.24 24.08c0-1.868-1.52-3.388-3.388-3.388s-3.388 1.52-3.388 3.388 1.52 3.388 3.388 3.388 3.388-1.52 3.388-3.388"/><path d="m2.122 20h1.618l.186-.125c.343-.231 1.667-1.028 3.472-.896 2.065.151 3.819 2.063 4.08 4.448l.072.655h8.245l.075-.651c.188-1.64 1.175-3.083 2.639-3.861l.39-.207v-12.71c0-1.17-.952-2.122-2.122-2.122h-18.653c-1.17 0-2.122.952-2.122 2.122v11.224c0 1.17.952 2.122 2.122 2.122m-.653-13.347c0-.36.293-.653.653-.653h18.653c.36 0 .653.293.653.653v11.844c-1.489.928-2.536 2.413-2.91 4.115h-5.682c-.572-2.768-2.768-4.912-5.33-5.099-2.01-.148-3.572.633-4.204 1.018h-1.18c-.36 0-.653-.293-.653-.653v-11.224"/><path d="m32 22.12v-3.224-4.082l-1.128-2.256c-.504-1.01-1.827-1.826-2.953-1.826h-4.082v8.267c.33-.068.672-.103 1.02-.103 2.813 0 5.102 2.452 5.102 5.265 1.127 0 2.041-.914 2.041-2.041m-6.122-6.286v-3.51h2.041c.564 0 1.225.408 1.476.913l1.154 2.598h-4.672"/><path d="m10.122 24.08c0-1.868-1.52-3.388-3.388-3.388s-3.388 1.52-3.388 3.388 1.52 3.388 3.388 3.388 3.388-1.52 3.388-3.388"/></g></svg>