<svg version="1.1" id="Layer_1" xmlns="http://www.w3.org/2000/svg" xmlns:xlink="http://www.w3.org/1999/xlink" x="0px" y="0px"
	 viewBox="0 0 48 48" enable-background="new 0 0 48 48" xml:space="preserve">
<path fill="#000000" d="M41.5,11L41.5,11H6.4C5.1,11,4,12.1,4,13.6v20.9C4,35.8,5.1,37,6.5,37H16c1,0,1.9-0.7,2.3-1.6l2.8-7
	c0.5-1.2,1.6-2,2.9-2c1.3,0,2.4,0.8,2.9,2l2.8,7c0.4,0.9,1.2,1.6,2.2,1.6h9.6c1.4,0,2.5-1.1,2.5-2.5V13.6C44,12.1,42.9,11,41.5,11z
	 M15,28.2c-2.4,0-4.2-1.9-4.2-4.2s1.9-4.2,4.2-4.2s4.2,1.9,4.2,4.2S17.4,28.2,15,28.2z M33,28.2c-2.4,0-4.2-1.9-4.2-4.2
	s1.9-4.2,4.2-4.2s4.2,1.9,4.2,4.2S35.3,28.2,33,28.2z"/>
</svg>
