<svg xmlns="http://www.w3.org/2000/svg" viewBox="0 0 20 20"><path d="M16.9 14.2c-0.6 0-1.1 0.2-1.6 0.5 0 0 0 0 0 0 -0.1 0.1-0.3 0.1-0.4 0.1 -0.1 0-0.2 0-0.3-0.1 0 0 0 0 0 0l-7.9-4.1c-0.2-0.1-0.4-0.4-0.4-0.7 0-0.3 0.1-0.5 0.4-0.6l8.1-4.1c0.1 0 0.2-0.1 0.3-0.1 0.1 0 0.3 0 0.4 0.1 0.5 0.3 1 0.5 1.6 0.5 1.6 0 2.9-1.3 2.9-2.9S18.5 0 16.9 0c-1.6 0-2.8 1.2-2.9 2.8 0 0 0 0 0 0 0 0.3-0.2 0.5-0.4 0.7v0L5.4 7.7c-0.1 0-0.2 0.1-0.3 0.1 -0.1 0-0.2 0-0.3-0.1 0 0 0 0 0 0C4.3 7.3 3.7 7.1 3.1 7.1c-1.6 0-2.9 1.3-2.9 2.9s1.3 2.9 2.9 2.9c0.6 0 1.2-0.2 1.7-0.5 0.1-0.1 0.2-0.1 0.4-0.1 0.1 0 0.2 0 0.3 0.1l8.1 4.2 0 0c0.3 0.1 0.4 0.4 0.4 0.7 0 0 0 0 0 0 0.1 1.5 1.3 2.8 2.9 2.8 1.6 0 2.9-1.3 2.9-2.9S18.5 14.2 16.9 14.2z"/></svg>