<svg xmlns="http://www.w3.org/2000/svg" viewBox="0 0 32 32" enable-background="new 0 0 32 32"><path  d="m16 32c-8.823 0-16-7.178-16-16 0-8.822 7.177-15.999 16-15.999 8.822 0 16 7.177 16 15.999 0 8.823-7.178 16-16 16m.009-10.141c.739 0 1.32.58 1.32 1.293v6.377c6.418-.661 11.553-5.741 12.148-12.221l-6.304-.002c-.714 0-1.294-.581-1.294-1.294 0-.738.58-1.319 1.294-1.319h6.36c-.65-6.42-5.721-11.622-12.201-12.226l-.003 6.334c0 .713-.581 1.294-1.294 1.294-.739 0-1.32-.581-1.32-1.294v-6.334c-6.442.642-11.594 5.786-12.19 12.287l6.298.004c.714 0 1.294.516 1.294 1.23 0 .738-.581 1.319-1.294 1.319h-6.293c.624 6.471 5.703 11.638 12.184 12.223v-6.377c0-.713.581-1.293 1.294-1.293"/></svg>