<svg xmlns="http://www.w3.org/2000/svg" viewBox="0 0 32 32" enable-background="new 0 0 32 32"><path  d="m31.12 3.476c-1.269.754-2.675 1.3-4.171 1.596-1.196-1.277-2.902-2.075-4.792-2.075-3.625 0-6.564 2.939-6.564 6.566 0 .515.058 1.015.169 1.496-5.456-.275-10.293-2.887-13.532-6.86-.565.969-.89 2.098-.89 3.302 0 2.277 1.161 4.285 2.922 5.462-1.075-.033-2.089-.329-2.974-.821 0 .027 0 .056 0 .083 0 3.179 2.263 5.833 5.267 6.437-.552.15-1.131.231-1.731.231-.423 0-.833-.042-1.235-.119.838 2.608 3.26 4.506 6.133 4.56-2.248 1.76-5.077 2.81-8.155 2.81-.529 0-1.052-.031-1.565-.092 2.905 1.862 6.357 2.948 10.06 2.948 12.08 0 18.679-10 18.679-18.679 0-.283-.004-.569-.017-.85 1.281-.925 2.396-2.081 3.275-3.398-1.177.523-2.442.875-3.771 1.033 1.356-.813 2.396-2.098 2.887-3.633"/></svg>