<svg xmlns="http://www.w3.org/2000/svg" viewBox="0 0 32 32" enable-background="new 0 0 32 32"><path  d="m16 .0001c-8.836 0-16 7.163-16 15.999s7.164 15.999 16 15.999c8.836 0 16-7.163 16-15.999s-7.164-15.999-16-15.999m7.955 23.946c-.309.309-.721.48-1.158.48-.438 0-.849-.17-1.158-.48l-5.639-5.638-5.606 5.606c-.244.339-.613.518-1.068.518-.056 0-.114-.003-.172-.009-.471-.046-.834-.203-1.109-.477-.309-.309-.48-.721-.48-1.158s.17-.849.48-1.158l5.639-5.638-5.639-5.638c-.309-.309-.479-.72-.479-1.158 0-.438.17-.849.479-1.158.309-.309.721-.48 1.158-.48.437 0 .849.17 1.158.48l5.639 5.638 5.639-5.638c.309-.309.721-.48 1.158-.48.437 0 .849.17 1.158.48.639.639.639 1.678 0 2.316l-5.639 5.638 5.639 5.638c.309.309.479.72.479 1.158 0 .438-.17.849-.479 1.158"/></svg>