<svg xmlns="http://www.w3.org/2000/svg" viewBox="0 0 32 32" enable-background="new 0 0 32 32"><g ><path d="m2.317 25.17v-22.01c0-.346.281-.627.627-.627h16.979c.346 0 .627.281.627.627v5.373h2.917v-6.933c0-.884-.716-1.6-1.6-1.6h-20.267c-.884 0-1.6.716-1.6 1.6v26.489c0 .884.716 1.6 1.6 1.6h13.9v-3.889h-12.556c-.346 0-.627-.281-.627-.627m8.567-24.306h1.7c.203 0 .367.164.367.367s-.164.367-.367.367h-1.7c-.203 0-.367-.164-.367-.367s.164-.367.367-.367m.85 25.679c.62 0 1.122.502 1.122 1.122 0 .62-.502 1.122-1.122 1.122-.62 0-1.122-.502-1.122-1.122 0-.62.502-1.122 1.122-1.122"/><path d="m30.995 9.878h-12.729c-.555 0-1 .534-1 1.192v19.738c0 .658.45 1.192 1 1.192h12.729c.555 0 1-.534 1-1.192v-19.738c0-.658-.45-1.192-1-1.192m-7.215.875h1.7c.203 0 .367.164.367.367s-.164.367-.367.367h-1.7c-.203 0-.367-.164-.367-.367s.164-.367.367-.367m.85 20.504c-.62 0-1.122-.502-1.122-1.122 0-.62.502-1.122 1.122-1.122.62 0 1.122.502 1.122 1.122 0 .62-.502 1.122-1.122 1.122m4.911-3.509c0 .238-.151.43-.338.43h-9.147c-.187 0-.338-.193-.338-.43v-15.11c0-.238.151-.43.338-.43h9.147c.187 0 .338.193.338.43v15.11"/></g></svg>