<svg xmlns="http://www.w3.org/2000/svg" viewBox="0 0 32 32" enable-background="new 0 0 32 32"><path  d="m25.815 0h-19.631c-3.41 0-6.183 2.773-6.183 6.183v6.533 13.1c0 3.41 2.773 6.183 6.183 6.183h19.631c3.41 0 6.185-2.773 6.185-6.183v-13.1-6.533c0-3.41-2.775-6.183-6.185-6.183m1.775 3.69l.706-.004v.706 4.717l-5.404.019-.019-5.423 4.717-.015m-16.16 9.03c1.025-1.419 2.687-2.348 4.567-2.348s3.542.929 4.567 2.348c.667.925 1.067 2.058 1.067 3.283 0 3.104-2.529 5.631-5.633 5.631-3.106 0-5.633-2.527-5.633-5.631 0-1.225.4-2.358 1.067-3.283m17.45 13.1c0 1.692-1.377 3.067-3.069 3.067h-19.631c-1.692 0-3.067-1.375-3.067-3.067v-13.1h4.777c-.412 1.015-.644 2.123-.644 3.283 0 4.825 3.925 8.75 8.75 8.75 4.825 0 8.75-3.925 8.75-8.75 0-1.16-.233-2.269-.646-3.283h4.779v13.1"/></svg>