<svg xmlns="http://www.w3.org/2000/svg" viewBox="0 0 32 32" enable-background="new 0 0 32 32"><path  d="m22.489 0h-12.977c-.735 0-1.33.596-1.33 1.33v29.339c0 .735.596 1.33 1.33 1.33h12.977c.735 0 1.33-.596 1.33-1.33v-29.339c0-.735-.596-1.33-1.33-1.33m-1.33 29.339h-10.316v-3.775h3.813c.439 0 .795-.356.795-.795 0-.439-.356-.795-.795-.795h-3.813v-2.795h6.347c.439 0 .795-.356.795-.795 0-.439-.356-.795-.795-.795h-6.347v-2.795h3.813c.439 0 .795-.356.795-.795 0-.439-.356-.795-.795-.795h-3.813v-2.795h6.347c.439 0 .795-.356.795-.795 0-.439-.356-.795-.795-.795h-6.347v-2.795h3.813c.439 0 .795-.356.795-.795 0-.439-.356-.795-.795-.795h-3.813v-3.774h10.316v26.678"/></svg>