<svg xmlns="http://www.w3.org/2000/svg" viewBox="0 0 24 24">
  <title>
    star-75
  </title>
  <path d="M16 9.64097547l-1.6638315-.06965043-2.0024833-6.32684449c-.034376-.10861093-.1194609-.1936959-.2280719-.2280719-.1842892-.05832862-.3809699.04378264-.4392985.2280719L9.66383152 9.57132504l-6.32740371.26487439c-.10541933.004413-.20322226.05614763-.2661934.14080779-.11536452.15509928-.08315312.37435348.07194616.48971798L8.22 14.243662l-2.01546081 6.3034332c-.03388168.1059663-.01536773.221729.04987305.3118427.11335628.156573.33217722.1916071.48875024.0782508L12 17.131325l4 2.8959336v-5.0955382l-.22-.6880584.22-.1636384V9.64097547z"/>
</svg>