<svg xmlns="http://www.w3.org/2000/svg" viewBox="0 0 24 24">
  <title>
    upload
  </title>
  <path d="M13 5.41479626V17c0 .5522847-.4477153 1-1 1s-1-.4477153-1-1V5.41421356L7.70710678 8.70710678c-.39052429.39052429-1.02368927.39052429-1.41421356 0-.39052429-.39052429-.39052429-1.02368927 0-1.41421356l5.00522288-5.00518479C11.4786527 2.10979333 11.7265046 2 12 2c.2864995 0 .5448589.12048241.7271753.3135444 3.3153841 3.31499569 4.9753613 4.97477863 4.9799315 4.97934882.3905243.39052429.3905243 1.02368927 0 1.41421356-.3896566.38965662-1.0208769.39052237-1.411903.00289326L13 5.41479626zM6 20h12v-2c0-.5522847.4477153-1 1-1s1 .4477153 1 1v3c0 .2761424-.1119288.5261424-.2928932.7071068C19.5261424 21.8880712 19.2761424 22 19 22H5c-.27614237 0-.52614237-.1119288-.70710678-.2928932C4.11192881 21.5261424 4 21.2761424 4 21v-3c0-.5522847.44771525-1 1-1s1 .4477153 1 1v2z"/>
</svg>