<?xml version="1.0" encoding="utf-8"?><svg xmlns="http://www.w3.org/2000/svg" xmlns:xlink="http://www.w3.org/1999/xlink"><symbol viewBox="0 0 24 24" style="version:1" id="ea-camping" xmlns="http://www.w3.org/2000/svg"><path d="M5.992 7.99c.663 0 1.287-.258 1.755-.726a.494.494 0 0 0 .104-.544.506.506 0 0 0-.467-.308.906.906 0 0 1-.906-.906c0-.499.405-.905.914-.905h.012a.5.5 0 1 0 .26-.933 2.486 2.486 0 0 0-4.156 1.837A2.487 2.487 0 0 0 5.992 7.99zm0-3.969c.062 0 .124.004.184.011a1.902 1.902 0 0 0 .002 2.946c-.858.106-1.67-.593-1.67-1.473 0-.818.666-1.484 1.484-1.484zM21.369 19.145a.5.5 0 0 0-.707-.016l-.21.2c-.189-2.118-.889-4.046-1.945-5.596v-3.017l1.146 1.146a.498.498 0 0 0 .708 0 .5.5 0 0 0 0-.707l-1.854-1.854V7.716l1.146 1.146a.498.498 0 0 0 .708 0 .5.5 0 0 0 0-.707l-1.854-1.854V4.716l1.146 1.146a.498.498 0 0 0 .708 0 .5.5 0 0 0 0-.707l-1.999-1.999a.496.496 0 0 0-.708 0l-1.999 1.999a.5.5 0 0 0 .708.707l1.146-1.146v1.586l-1.854 1.854a.5.5 0 0 0 .708.707l1.146-1.146v1.586l-1.763 1.763c-1.13-.689-2.395-1.087-3.737-1.09v-.001h-.016v.001c-4.37.01-7.976 4.107-8.445 9.354l-.21-.2a.5.5 0 0 0-.691.723l.95.908a.491.491 0 0 0 .411.231h16a.496.496 0 0 0 .439-.273l.906-.866a.5.5 0 0 0 .016-.708zm-8.861-3.287l3.434 4.132h-3.434v-4.132zm-1 4.132H8.073l3.434-4.132v4.132zm6-9.274v1.777a8.823 8.823 0 0 0-.929-.849l.929-.928zM12 10.975c4.007.005 7.281 4.004 7.488 9.015h-2.245l-4.85-5.835c-.01-.012-.025-.018-.036-.029-.011-.011-.017-.026-.029-.036-.014-.012-.032-.015-.047-.025a.458.458 0 0 0-.178-.074.513.513 0 0 0-.189-.001.485.485 0 0 0-.179.074c-.015.01-.032.013-.047.025-.012.01-.018.025-.029.036-.011.011-.026.017-.036.029l-4.85 5.835H4.512c.207-5.01 3.481-9.009 7.488-9.014z"/></symbol><symbol viewBox="0 0 24 24" style="version:1" id="ea-climbing" xmlns="http://www.w3.org/2000/svg"><path d="M16.5 16.27c0 2.33-1.73 4.22-3.86 4.22-1.8 0-3.33-1.27-3.8-3.08L6.65 8.86c-.35-1.35-.06-2.8.77-3.87.75-.96 1.79-1.49 2.94-1.49h2.27c1.96 0 3.56 1.6 3.81 3.67h1c-.26-2.62-2.3-4.67-4.8-4.67h-2.27c-1.45 0-2.81.68-3.73 1.88-1.03 1.31-1.39 3.08-.96 4.73l2.19 8.55c.58 2.26 2.51 3.84 4.69 3.84h.08c2.68 0 4.86-2.34 4.86-5.22v-.11h-1v.1z" fill="none"/><path d="M17.5 11.17h-1c-.28 0-.5.22-.5.5s.22.5.5.5h1c.28 0 .5-.22.5-.5s-.23-.5-.5-.5z"/><path d="M19 9.32V8.17c0-.37-.21-.68-.51-.85l-.01-.14C18.2 4 15.69 1.5 12.64 1.5h-2.27c-1.76 0-3.41.83-4.52 2.26-1.21 1.56-1.63 3.65-1.13 5.6l2.18 8.55c.69 2.7 3.02 4.59 5.66 4.59h.08c3.23 0 5.86-2.79 5.86-6.22v-.26c.29-.18.5-.49.5-.85v-1.15c.29-.17.5-.48.5-.84v-3c0-.38-.21-.69-.5-.86zm-1.5 6.95c0 2.88-2.18 5.23-4.86 5.23h-.08c-2.18 0-4.11-1.58-4.69-3.84L5.68 9.11c-.43-1.65-.07-3.42.95-4.73.93-1.2 2.29-1.88 3.73-1.88h2.27c2.5 0 4.55 2.05 4.81 4.67h-1c-.25-2.07-1.85-3.67-3.8-3.67h-2.27c-1.15 0-2.2.53-2.94 1.49-.84 1.07-1.13 2.52-.79 3.88l2.19 8.55c.47 1.82 2 3.09 3.8 3.09 2.13 0 3.86-1.89 3.86-4.22v-.11h1v.09zm.5-8.1v1h-2v-1h2zm-3 5.85v1.15c0 .37.21.67.5.85v.26c0 1.78-1.28 3.23-2.94 3.23-1.27 0-2.4-.96-2.75-2.33l-2.2-8.56c-.27-1.06-.04-2.19.6-3.02.55-.71 1.32-1.1 2.15-1.1h2.27c1.41 0 2.58 1.16 2.81 2.68.01 0 .02.08.02.16-.28.18-.48.48-.48.83v1.15c-.29.18-.5.48-.5.85v3c.02.36.23.67.52.85zm3 1.15h-2v-1h2v1m.5-2h-3v-3h3v3z"/></symbol><symbol viewBox="0 0 24 24" style="version:1" id="ea-clothing" xmlns="http://www.w3.org/2000/svg"><path d="M19.84 10.9c-.67-.43-1.33-1.09-1.47-3.85-.04-.87-.8-1.55-1.72-1.55h-.72V3.63c0-.11-.01-.22-.03-.33v-.04c-.15-.86-.81-1.5-1.61-1.5H9.71c-.8 0-1.46.65-1.61 1.52v.01c-.02.11-.03.22-.03.34v1.86h-.72c-.92 0-1.68.68-1.72 1.55-.14 2.77-.8 3.42-1.47 3.85-.41.27-.66.76-.66 1.31v8.39c0 .91.78 1.64 1.73 1.64h13.54c.95 0 1.73-.74 1.73-1.64V12.2c0-.54-.25-1.03-.66-1.3zm-1.02 6.84l-2.5-2.5h3.18v2.5h-.68zm-14.32 0v-2.5h3.18l-2.5 2.5H4.5zm0-5.53c0-.08.02-.34.2-.47H11v2.5H4.5v-2.03zm14.8-.47c.19.13.2.39.2.47v2.03H12v-.75h.5c.28 0 .5-.22.5-.5s-.22-.5-.5-.5H12v-.75h7.3zM8.97 15.36c.04-.04.06-.08.08-.12H11v2.5H6.59l2.38-2.38zM12 16.99h.5c.28 0 .5-.22.5-.5s-.22-.5-.5-.5H12v-.75h2.95c.02.04.05.09.08.12l2.38 2.38H12v-.75zm5.37-9.9c.09 1.83.41 2.92.9 3.65H12v-.75h.5c.28 0 .5-.22.5-.5s-.22-.5-.5-.5H12v-.75h2.28c.87 0 1.58-.78 1.63-1.75h.73c.39 0 .72.27.73.6zM9.07 4.6c.2.08.41.14.64.14H11v2.5H9.71c-.35 0-.64-.4-.64-.87V4.6zM12 6.49h.5c.28 0 .5-.22.5-.5s-.22-.5-.5-.5H12v-.75h2.28c.23 0 .44-.06.64-.14v1.77c0 .47-.29.87-.64.87H12v-.75zM9.71 2.76h4.57c.28 0 .52.26.6.61-.08.22-.32.37-.59.37H9.71c-.25 0-.47-.13-.6-.4.1-.33.33-.58.6-.58zM6.63 7.09c.01-.33.34-.6.72-.6h.73c.06.97.76 1.75 1.63 1.75H11v2.5H5.73c.49-.73.81-1.82.9-3.65zM4.5 20.6v-1.86H11v2.5H5.23c-.4 0-.73-.29-.73-.64zm14.27.64H12v-.75h.5c.28 0 .5-.22.5-.5s-.22-.5-.5-.5H12v-.75h7.5v1.86c0 .35-.33.64-.73.64z"/></symbol><symbol viewBox="0 0 24 24" style="version:1" id="ea-cycling" xmlns="http://www.w3.org/2000/svg"><path d="M22.906 12.566c-.079-.16-.184-.287-.268-.389-.069-.083-.141-.17-.141-.21 0-.04.071-.126.141-.21.085-.102.189-.229.27-.392a.918.918 0 0 0-.096-.934 1.9 1.9 0 0 0-.341-.331c-.084-.068-.171-.139-.179-.177-.008-.039.046-.138.098-.233.063-.117.143-.263.188-.438a.914.914 0 0 0-.276-.897c-.135-.119-.281-.196-.398-.258-.091-.048-.194-.103-.21-.141-.016-.036.018-.143.05-.247.039-.127.088-.285.099-.467a.915.915 0 0 0-.449-.825c-.154-.09-.312-.137-.438-.175-.104-.031-.21-.063-.232-.096-.021-.033-.011-.144 0-.251.013-.132.029-.296.004-.474a.927.927 0 0 0-.604-.726c-.167-.058-.329-.074-.46-.087-.107-.011-.219-.021-.247-.049-.027-.028-.039-.14-.05-.247-.013-.131-.029-.294-.087-.46a.923.923 0 0 0-.73-.599 2.078 2.078 0 0 0-.473.004c-.059.006-.115.013-.25 0-.033-.022-.065-.129-.097-.233-.038-.127-.085-.285-.176-.439-.154-.265-.466-.442-.826-.442h-.005c-.18.011-.337.059-.465.098a.88.88 0 0 1-.246.049c-.037-.015-.089-.114-.14-.209a1.947 1.947 0 0 0-.26-.399.923.923 0 0 0-.682-.296l-.219.028c-.174.045-.318.124-.436.187-.08.043-.18.097-.231.097h-.001c-.039-.008-.109-.094-.178-.177a1.927 1.927 0 0 0-.331-.338.945.945 0 0 0-.938-.091c-.161.079-.288.184-.391.268-.166.137-.252.137-.418 0-.103-.084-.229-.189-.392-.269a.938.938 0 0 0-.935.091c-.144.109-.247.238-.331.342-.068.084-.14.172-.188.181-.042 0-.143-.055-.224-.098a1.773 1.773 0 0 0-.433-.189l-.22-.029a.908.908 0 0 0-.678.297c-.119.136-.196.284-.259.403-.05.097-.103.198-.162.217a.98.98 0 0 1-.226-.054 1.957 1.957 0 0 0-.517-.102.917.917 0 0 0-.775.441c-.09.158-.137.318-.175.447-.03.105-.062.214-.171.248-.059 0-.118-.007-.179-.014a1.948 1.948 0 0 0-.477-.008.92.92 0 0 0-.723.595 1.97 1.97 0 0 0-.085.471c-.01.109-.02.221-.048.25-.028.029-.142.039-.251.048-.134.012-.3.026-.471.083a.913.913 0 0 0-.592.722c-.023.181-.005.348.01.482.012.11.025.222.002.256-.022.035-.134.066-.24.097-.13.036-.291.082-.45.172a.904.904 0 0 0-.436.82c.014.183.065.343.106.473.034.105.069.214.054.252-.017.039-.119.091-.22.141-.121.062-.273.138-.412.258a.886.886 0 0 0-.264.887c.05.176.132.324.198.442a.62.62 0 0 1 .097.256c-.024.043-.104.105-.182.166-.108.084-.242.188-.356.333a.885.885 0 0 0-.086.919c.082.162.191.29.279.393.072.085.148.174.149.22-.001.043-.077.132-.15.218-.088.103-.198.231-.281.394a.876.876 0 0 0 .091.915c.113.144.246.248.354.332.089.07.181.143.189.189.006.045-.052.147-.107.246a2.075 2.075 0 0 0-.199.441.86.86 0 0 0 .267.874c.141.119.293.195.414.257.102.051.207.104.226.147.015.044-.022.157-.058.266-.044.135-.095.289-.11.474a.86.86 0 0 0 .434.801c.16.088.323.133.455.17.11.031.225.062.251.101.022.039.009.155-.005.268a2.04 2.04 0 0 0-.016.485.87.87 0 0 0 .586.707c.173.055.334.067.476.079.113.009.23.018.267.048.03.033.039.15.048.264.011.136.023.306.079.48a.87.87 0 0 0 .709.579c.162.019.325.004.484-.016.066-.007.132-.016.271-.005.037.026.068.141.099.251.036.132.082.296.171.457a.892.892 0 0 0 .808.428c.182-.016.335-.066.471-.11.091-.03.153-.073.269-.058.04.019.093.124.144.226.062.122.138.274.258.416.154.182.397.29.65.29l.227-.031c.175-.051.322-.133.44-.2.09-.051.192-.108.249-.109.043.01.115.103.185.191.084.107.189.241.333.355a.846.846 0 0 0 .524.175.867.867 0 0 0 .392-.092c.164-.084.29-.195.393-.284.081-.071.164-.144.221-.148.043.001.131.077.217.15.103.088.23.197.395.28a.894.894 0 0 0 .918-.092c.144-.114.248-.247.332-.354.069-.089.141-.181.193-.189.044 0 .144.055.23.104.118.065.266.147.443.197l.217.028a.883.883 0 0 0 .667-.299c.119-.14.195-.291.256-.412.051-.101.104-.204.164-.224.051 0 .141.029.229.057.129.042.29.094.527.108a.9.9 0 0 0 .765-.443c.089-.158.135-.319.172-.449.03-.107.062-.218.17-.253.06 0 .12.008.182.015.099.011.198.021.299.021a.912.912 0 0 0 .902-.608c.058-.171.072-.337.084-.471.009-.109.019-.223.048-.251.028-.028.141-.039.249-.048.134-.012.3-.026.474-.085a.919.919 0 0 0 .588-.727 1.95 1.95 0 0 0-.009-.477c-.011-.108-.022-.22 0-.254.022-.033.131-.065.235-.095.129-.038.289-.084.447-.176a.92.92 0 0 0 .434-.828c-.012-.18-.061-.339-.1-.466-.032-.104-.066-.211-.051-.248.016-.038.115-.089.213-.14.119-.062.267-.139.402-.259a.92.92 0 0 0 .265-.9 2.025 2.025 0 0 0-.188-.435c-.052-.096-.105-.194-.098-.234.008-.039.096-.11.18-.178.104-.084.233-.189.343-.333a.933.933 0 0 0 .079-.937zM2.699 13.8c-.095-.375-.354-.579-.544-.729a3.465 3.465 0 0 1-.114-.092c.027-.036.06-.073.093-.112.158-.185.375-.438.391-.91-.016-.389-.231-.642-.389-.826-.034-.041-.068-.08-.096-.117.033-.029.072-.06.113-.091.188-.147.441-.345.538-.707l.013-.052.003-.011h-.001l.003-.012c.077-.401-.091-.7-.214-.918-.026-.048-.052-.094-.073-.135.039-.022.084-.045.131-.068.213-.108.534-.27.692-.651.158-.379.047-.718-.025-.944a2.433 2.433 0 0 1-.046-.151c.044-.016.095-.03.146-.045.242-.069.572-.162.799-.503.225-.337.188-.674.16-.92-.006-.059-.012-.115-.014-.164.048-.008.103-.012.16-.018.247-.021.585-.051.871-.337.285-.286.315-.623.337-.869.006-.06.011-.117.019-.166.056.001.11.008.165.014.345.038.661.007.916-.163.335-.224.43-.549.499-.786.017-.057.032-.112.05-.158.048.013.104.03.162.048.24.075.613.15.927.019.372-.155.529-.455.644-.675.026-.051.053-.102.078-.143.046.02.098.048.151.077.22.119.521.274.904.198.395-.078.606-.341.761-.532.038-.047.074-.092.108-.127.041.028.087.066.135.105.188.156.446.369.846.369.398 0 .657-.213.846-.369a2.02 2.02 0 0 1 .137-.107c.035.036.072.082.112.13.154.189.365.447.756.525.381.076.681-.078.901-.197.056-.03.108-.058.156-.079.026.042.054.094.082.147.114.216.271.512.641.665.31.128.681.056.923-.017.06-.018.117-.036.167-.046.019.046.035.103.053.161.07.234.167.555.498.776.249.167.567.199.905.164.049-.004.097-.01.176-.01.009.049.015.108.021.169.024.242.058.574.338.855.281.28.613.313.855.337.063.006.125.013.175.022 0 .05-.006.109-.012.171-.025.243-.058.574.163.905.222.332.543.429.777.499.061.018.118.035.166.054a2.19 2.19 0 0 1-.046.161c-.072.234-.171.555-.018.923.152.371.45.528.667.643.055.029.107.057.15.084-.019.046-.047.096-.075.149-.117.216-.276.511-.199.904.078.392.339.604.528.758.049.04.095.077.131.113a1.69 1.69 0 0 1-.104.131c-.156.189-.37.448-.37.848s.214.659.37.848c.039.048.078.095.107.137a2.145 2.145 0 0 1-.125.105c-.191.155-.453.367-.531.76-.079.394.082.689.199.906.029.055.058.107.078.153-.041.025-.09.051-.141.077-.219.114-.52.271-.674.644-.153.371-.054.692.019.927.019.059.036.116.047.166-.045.017-.098.032-.152.048-.237.069-.562.164-.786.5-.225.334-.188.67-.163.916.007.061.013.119.014.169a2.105 2.105 0 0 1-.16.018c-.246.022-.583.052-.868.336-.287.287-.316.625-.338.873-.005.059-.01.115-.018.164-.054-.002-.106-.009-.16-.015-.344-.038-.666-.01-.921.161-.34.228-.434.558-.502.799-.016.054-.03.105-.046.15a2.644 2.644 0 0 1-.149-.045c-.245-.078-.619-.157-.941-.025-.381.158-.536.467-.65.693a2.055 2.055 0 0 1-.07.134c-.042-.02-.087-.045-.134-.071-.185-.103-.414-.23-.717-.23-.058 0-.117.004-.224.023-.395.086-.604.354-.758.55-.032.041-.063.081-.094.115-.036-.027-.074-.06-.114-.094-.186-.158-.439-.375-.897-.386l-.079.004c-.361.032-.595.237-.768.388a4.932 4.932 0 0 1-.107.091 2.226 2.226 0 0 1-.089-.11c-.15-.191-.355-.453-.735-.546l-.246-.027c-.31 0-.542.131-.729.236a5.929 5.929 0 0 0-.127.072c-.021-.038-.042-.081-.063-.124-.109-.217-.259-.515-.61-.681l-.117-.045c-.307-.102-.656-.02-.891.057a2.773 2.773 0 0 1-.135.042c-.014-.041-.026-.086-.039-.133-.064-.236-.154-.558-.469-.791l-.097-.061c-.251-.145-.561-.162-.888-.122-.043.005-.087.011-.144.014a4.246 4.246 0 0 1-.013-.14c-.019-.239-.043-.57-.303-.857l-.08-.078c-.285-.253-.612-.278-.852-.297a2.653 2.653 0 0 1-.145-.014c.003-.043.009-.091.015-.141.027-.234.066-.556-.119-.881l-.069-.107c-.231-.308-.551-.396-.784-.461-.048-.013-.096-.026-.138-.04.012-.042.026-.085.041-.131.073-.223.173-.528.047-.918l-.038-.095c-.166-.347-.461-.495-.676-.604-.045-.023-.089-.045-.127-.067l.066-.123c.116-.207.275-.49.225-.882l-.017-.101z"/><path d="M11.998 3.248c-4.825 0-8.75 3.925-8.75 8.75s3.925 8.75 8.75 8.75 8.75-3.925 8.75-8.75-3.925-8.75-8.75-8.75zM18.442 7.7l-5.019 2.898-.025-.025 2.898-5.019A7.814 7.814 0 0 1 18.442 7.7zm-5.444 4.298a1.001 1.001 0 0 1-2 0 1.001 1.001 0 0 1 2 0zm-.5-1.929V4.274a7.689 7.689 0 0 1 2.93.785l-2.899 5.02-.031-.01zm-1 0l-.031.01-2.899-5.02a7.67 7.67 0 0 1 2.93-.785v5.795zm-1.429 1.429H4.274a7.68 7.68 0 0 1 .785-2.929l5.02 2.898-.01.031zm0 1l.01.031-5.02 2.898a7.689 7.689 0 0 1-.785-2.929h5.795zm1.429 1.429v5.796a7.689 7.689 0 0 1-2.93-.785l2.899-5.02c.011.002.021.006.031.009zm1 0l.031-.01 2.899 5.02a7.67 7.67 0 0 1-2.93.785v-5.795zm1.429-1.429h5.796a7.68 7.68 0 0 1-.785 2.929l-5.02-2.898c.003-.01.007-.02.009-.031zm0-1l-.01-.031 5.02-2.898c.443.894.718 1.883.785 2.929h-5.795zM7.701 5.554l2.898 5.019-.025.025L5.554 7.7a7.818 7.818 0 0 1 2.147-2.146zM5.554 16.296l5.019-2.898.025.025L7.7 18.442a7.8 7.8 0 0 1-2.146-2.146zm10.742 2.147l-2.898-5.019.025-.025 5.019 2.898a7.814 7.814 0 0 1-2.146 2.146z"/></symbol><symbol viewBox="0 0 24 24" style="version:1" id="ea-family" xmlns="http://www.w3.org/2000/svg"><style>.ea{fill:none}</style><circle cx="7" cy="10.21" r="2.5" class="ea"/><circle cx="17" cy="10.21" r="2.5" class="ea"/><path d="M10.314 16.544A2.484 2.484 0 0 1 9.5 14.71c0-.072.015-.139.021-.21A4.463 4.463 0 0 0 7 13.71a4.506 4.506 0 0 0-4.472 4H8.67a4.51 4.51 0 0 1 1.644-1.166zM11.886 16.199c.038.003.075.011.114.011.827 0 1.5-.673 1.5-1.5 0-.22-.05-.427-.136-.616-.236-.52-.757-.884-1.364-.884s-1.129.364-1.364.884a1.48 1.48 0 0 0-.136.616c0 .788.613 1.429 1.386 1.489zM13.801 17.71a3.521 3.521 0 0 0-1.801-.5c-.14 0-.274.022-.41.038-.069.008-.141.007-.209.019a3.472 3.472 0 0 0-1.181.443c-.42.253-.774.599-1.055 1a3.463 3.463 0 0 0-.609 1.5h6.929a3.463 3.463 0 0 0-.609-1.5 3.544 3.544 0 0 0-1.055-1zM17 13.71c-.937 0-1.8.298-2.521.79.006.07.021.138.021.21 0 .727-.317 1.377-.814 1.834a4.498 4.498 0 0 1 1.644 1.166h6.143a4.508 4.508 0 0 0-4.473-4z" class="ea"/><path d="M18.985 13.087A3.497 3.497 0 0 0 20.5 10.21c0-1.93-1.57-3.5-3.5-3.5s-3.5 1.57-3.5 3.5c0 1.192.602 2.244 1.515 2.877a5.414 5.414 0 0 0-.84.414c-.428-.766-1.237-1.29-2.174-1.29s-1.746.525-2.174 1.29a5.551 5.551 0 0 0-.84-.414 3.497 3.497 0 0 0 1.515-2.877c0-1.93-1.57-3.5-3.5-3.5s-3.5 1.57-3.5 3.5c0 1.192.602 2.244 1.515 2.877A5.504 5.504 0 0 0 1.5 18.21a.5.5 0 0 0 .5.5h5.99a4.447 4.447 0 0 0-.49 2 .5.5 0 0 0 .5.5h8a.5.5 0 0 0 .5-.5c0-.722-.187-1.395-.49-2H22a.5.5 0 0 0 .5-.5 5.505 5.505 0 0 0-3.515-5.123zM14.5 10.21c0-1.378 1.122-2.5 2.5-2.5s2.5 1.122 2.5 2.5-1.122 2.5-2.5 2.5-2.5-1.121-2.5-2.5zm-3.864 3.884c.236-.52.757-.884 1.364-.884s1.129.364 1.364.884c.086.189.136.396.136.616 0 .827-.673 1.5-1.5 1.5-.039 0-.076-.009-.114-.011A1.497 1.497 0 0 1 10.5 14.71c0-.22.05-.427.136-.616zM4.5 10.21c0-1.378 1.122-2.5 2.5-2.5s2.5 1.122 2.5 2.5-1.122 2.5-2.5 2.5-2.5-1.121-2.5-2.5zm-1.972 7.5c.25-2.247 2.16-4 4.472-4 .937 0 1.8.298 2.521.79-.006.071-.021.138-.021.21 0 .727.317 1.377.814 1.834A4.498 4.498 0 0 0 8.67 17.71H2.528zm6.008 2.5c.08-.555.3-1.061.609-1.5a3.507 3.507 0 0 1 1.055-1 3.472 3.472 0 0 1 1.181-.443c.068-.012.14-.011.209-.019.136-.016.27-.038.41-.038.212 0 .418.021.619.057.425.076.824.228 1.181.443.42.253.774.599 1.055 1 .309.439.529.945.609 1.5H8.536zm6.794-2.5a4.51 4.51 0 0 0-1.644-1.166 2.485 2.485 0 0 0 .814-1.834c0-.072-.015-.139-.021-.21A4.455 4.455 0 0 1 17 13.71a4.506 4.506 0 0 1 4.472 4H15.33z"/><path d="M11.646 6.998a.5.5 0 0 0 .708.001l1.727-1.727a1.46 1.46 0 0 0-.015-2.061c-.555-.555-1.516-.562-2.062-.015L12 3.199l-.004-.004c-.546-.546-1.506-.539-2.061.015a1.459 1.459 0 0 0-.016 2.061l1.727 1.727zm-1.004-3.081a.476.476 0 0 1 .337-.142c.118 0 .229.045.31.126l.357.357a.5.5 0 0 0 .707 0l.357-.357c.168-.169.47-.163.647.015a.458.458 0 0 1 .015.647L12 5.938l-1.374-1.374a.458.458 0 0 1 .016-.647z"/></symbol><symbol viewBox="0 0 24 24" style="version:1" id="ea-fitness" xmlns="http://www.w3.org/2000/svg"><path d="M20.24 12c0-2.14-.83-4.15-2.34-5.66a7.82 7.82 0 0 0-1.77-1.33l-1.2-2.34c-.26-.5-.77-.81-1.33-.81h-2.71c-.56 0-1.06.31-1.32.8L8.29 5.03c0 .01 0 .01-.01.02a8.002 8.002 0 0 0-4.03 6.45h-.52V11c0-.28-.22-.5-.5-.5s-.5.22-.5.5v2c0 .28.22.5.5.5s.5-.22.5-.5v-.5h.53a8.005 8.005 0 0 0 4.03 6.46v.01l1.27 2.38c.26.49.77.8 1.33.8h2.71c.56 0 1.08-.31 1.33-.81l1.21-2.35c2.44-1.38 4.1-3.99 4.1-6.99zm-9.8-8.88c.09-.16.26-.26.44-.26h2.71c.19 0 .36.1.44.27l.64 1.25A7.98 7.98 0 0 0 12.23 4c-.86 0-1.69.14-2.47.4l.68-1.28zm3.59 17.75c-.09.17-.26.27-.44.27h-2.71c-.19 0-.35-.1-.44-.27l-.67-1.26c.77.25 1.6.39 2.46.39h.02c.85 0 1.67-.14 2.44-.39l-.66 1.26zm-1.81-1.86c-3.85 0-6.99-3.14-6.99-7s3.14-7 7.01-7c1.87 0 3.63.73 4.95 2.05a6.96 6.96 0 0 1 2.05 4.95c0 3.86-3.14 7-7.01 7.01h-.01z"/><path d="M12.24 5.74c-3.45 0-6.26 2.81-6.26 6.26s2.81 6.26 6.26 6.26S18.5 15.45 18.5 12s-2.81-6.26-6.26-6.26zm0 1c2.77 0 5.02 2.16 5.22 4.88h-2.24l-.91-1.97a.491.491 0 0 0-.9.01l-1.45 3.31-1.3-2.62a.486.486 0 0 0-.44-.28c-.22-.01-.38.1-.47.27l-.67 1.28H7.02c.2-2.72 2.45-4.88 5.22-4.88zm0 10.52c-2.69 0-4.88-2.03-5.19-4.64H9.4c.19 0 .36-.1.44-.27l.35-.68 1.34 2.7c.09.17.26.28.45.28h.01c.19 0 .37-.12.45-.3l1.43-3.27.58 1.25c.08.18.26.29.45.29l2.54.01c-.32 2.6-2.52 4.63-5.2 4.63z"/></symbol><symbol viewBox="0 0 24 24" style="version:1" id="ea-hiking" xmlns="http://www.w3.org/2000/svg"><path d="M12.55 21.24c.02.01.06.06.09.09.13.15.37.44.82.44s.69-.28.82-.44c.02-.02.05-.06.05-.08.02.02.05.06.07.08.13.15.37.44.82.44.45 0 .69-.28.82-.44.02-.03.05-.06.05-.08.02.02.05.05.07.08.13.15.37.44.82.44s.69-.28.82-.44c.02-.02.05-.06.05-.08.02.02.05.05.07.08.13.15.37.44.82.44s.69-.28.82-.44c.02-.03.06-.06.05-.08.02.02.05.06.08.08.13.15.37.44.82.44.33 0 .55-.15.71-.31.17-.08.29-.25.29-.45v-4.09c0-1.32-1.01-2.4-2.35-2.49-4.47-.33-7.98-1.89-8.13-3.59.3-.28.49-.68.49-1.15 0-.81-.65-1.46-1.45-1.46h-.26c.05-.16.09-.32.09-.5 0-.39-.15-.73-.39-1 .24-.27.39-.61.39-1s-.15-.73-.39-1c.24-.27.39-.61.39-1 0-.83-.67-1.5-1.5-1.5h-4c-.83 0-1.5.67-1.5 1.5 0 .39.15.73.39 1-.24.27-.39.61-.39 1s.15.73.39 1a1.469 1.469 0 0 0-.17 1.77c-.37.26-.62.69-.62 1.18v1.06l.01 8.23c0 .01-.01.02-.01.03 0 .01.01.03.01.04v1.81c.05.23.22.5.23.5.18.27.46.41.79.41.45 0 .69-.28.82-.44.02-.02.05-.06.05-.08.02.02.05.05.07.08.13.15.37.44.82.44s.69-.28.82-.44c.02-.03.05-.06.05-.08.02.02.05.05.07.08.13.15.37.44.82.44s.69-.28.82-.44c.02-.02.05-.06.05-.08.02.02.05.05.07.08.13.15.37.44.82.44s.69-.28.82-.44c.03-.03.07-.08.06-.08h2.86zM11 12.76l-1.04 1.05c-.19.2-.19.51 0 .71a.485.485 0 0 0 .7 0l1.13-1.13c.27.18.57.35.9.52l-.92.92c-.19.2-.19.51 0 .71a.485.485 0 0 0 .7 0l1.2-1.2c.32.12.66.24 1.02.34l-.83.83c-.19.2-.19.51 0 .71a.485.485 0 0 0 .7 0l1.25-1.25c.99.22 2.08.39 3.25.47.81.06 1.43.7 1.43 1.5v1.58h-17v-7.27h6.56c.13.52.46 1.04.95 1.51zm-.5-2.99c0 .26-.2.46-.45.46H3.5v-.55c0-.25.2-.45.45-.45h6.1c.25 0 .45.21.45.54zM4.4 3.23h4c.28 0 .5.22.5.5s-.22.5-.5.5-.5.22-.5.5.22.5.5.5.5.22.5.5-.22.5-.5.5H6.38c-.28 0-.5.22-.5.5s.22.5.5.5H8.4c.28 0 .5.22.5.5s-.22.5-.5.5h-4c-.28 0-.5-.22-.5-.5s.23-.5.5-.5c.28 0 .5-.22.5-.5s-.22-.5-.5-.5-.5-.22-.5-.5.23-.5.5-.5h1.96c.28 0 .5-.22.5-.5s-.22-.5-.5-.5H4.4c-.28 0-.5-.22-.5-.5s.23-.5.5-.5zm5.28 17.01c-.45 0-.69.28-.82.44-.02.03-.05.06-.05.08a.572.572 0 0 1-.07-.08c-.13-.15-.37-.44-.82-.44-.45 0-.69.28-.82.44-.02.02-.05.06-.04.08a.572.572 0 0 1-.07-.08c-.13-.15-.37-.44-.82-.44s-.69.28-.82.44c-.02.02-.05.06-.04.08a.572.572 0 0 1-.07-.08c-.13-.15-.37-.44-.82-.44s-.69.28-.82.44c-.02.02-.04.05-.04.07-.02-.03-.03-.06-.04-.08V19.5h17v1.25l-.06-.06c-.13-.15-.37-.44-.82-.44s-.69.28-.82.44c-.02.03-.05.06-.05.08-.02-.02-.05-.06-.07-.08-.13-.15-.37-.44-.82-.44-.45 0-.69.28-.82.44-.02.03-.05.06-.05.08a.572.572 0 0 1-.07-.08c-.13-.15-.37-.44-.82-.44s-.69.28-.82.44c-.02.03-.05.06-.05.08a.572.572 0 0 1-.07-.08c-.13-.15-.37-.44-.82-.44-.45 0-.69.28-.82.44-.02.03-.05.06-.05.08a.572.572 0 0 1-.07-.08c-.13-.15-.37-.44-.82-.44l-2.92-.01z"/></symbol><symbol viewBox="0 0 24 24" style="version:1" id="ea-outdoor-basics" xmlns="http://www.w3.org/2000/svg"><path d="M14.65 5.35c.09.1.22.15.35.15s.26-.05.35-.15c.2-.19.2-.51 0-.71l-3-3a.572.572 0 0 0-.16-.11.5.5 0 0 0-.38 0c-.06.03-.12.06-.16.11l-3 3.01c-.19.2-.19.51 0 .71.09.09.22.14.35.14s.26-.05.35-.15l2.15-2.14V5.8L8.65 8.65c-.19.2-.19.51 0 .71.09.09.22.14.35.14s.26-.05.35-.15l2.15-2.14V9.8l-2.85 2.85c-.19.2-.19.51 0 .71.09.09.22.14.35.14s.26-.05.35-.15l2.15-2.15v2.59l-2.85 2.85c-.19.2-.19.51 0 .71.09.1.22.15.35.15s.26-.05.35-.15l2.15-2.15V22c0 .28.22.5.5.5s.5-.22.5-.5v-6.79l2.15 2.15c.09.09.22.14.35.14s.26-.05.35-.15c.2-.19.2-.51 0-.71l-2.85-2.85V11.2l2.15 2.15c.09.1.22.15.35.15s.26-.05.35-.15c.2-.19.2-.51 0-.71L12.5 9.79V7.21l2.15 2.15c.09.09.22.14.35.14s.26-.05.35-.15c.2-.19.2-.51 0-.71L12.5 5.79V3.21l2.15 2.14zM6.65 7.35c.09.1.22.15.35.15s.26-.05.35-.15c.2-.19.2-.51 0-.71l-2-1.99a.355.355 0 0 0-.16-.11.5.5 0 0 0-.38 0c-.06.02-.12.06-.16.11l-2 2c-.19.2-.19.51 0 .71.09.09.22.14.35.14s.26-.05.35-.15L4.5 6.21V7.8L2.65 9.65c-.19.2-.19.51 0 .71.09.09.22.14.35.14s.26-.05.35-.15L4.5 9.21v1.59l-1.85 1.85c-.19.2-.19.51 0 .71.09.09.22.14.35.14s.26-.05.35-.15l1.15-1.14V19c0 .28.22.5.5.5s.5-.22.5-.5v-6.79l1.15 1.15c.09.09.22.14.35.14s.26-.05.35-.15c.2-.19.2-.51 0-.71L5.5 10.79V9.21l1.15 1.15c.09.09.22.14.35.14s.26-.05.35-.15c.2-.19.2-.51 0-.71L5.5 7.79V6.21l1.15 1.14zM20.65 10.35c.09.1.22.15.35.15s.26-.05.35-.15c.2-.19.2-.51 0-.71L19.5 7.79V6.21l1.15 1.15c.09.09.22.14.35.14s.26-.05.35-.15c.2-.19.2-.51 0-.71l-2-2a.572.572 0 0 0-.16-.11.5.5 0 0 0-.38 0c-.06.03-.12.06-.16.11l-2 2c-.19.2-.19.51 0 .71.09.1.22.15.35.15s.26-.05.35-.15l1.15-1.14V7.8l-1.85 1.85c-.19.2-.19.51 0 .71.09.09.22.14.35.14s.26-.05.35-.15l1.15-1.14v1.59l-1.85 1.85c-.19.2-.19.51 0 .71.09.09.22.14.35.14s.26-.05.35-.15l1.15-1.15V19c0 .28.22.5.5.5s.5-.22.5-.5v-6.79l1.15 1.15c.09.09.22.14.35.14s.26-.05.35-.15c.2-.19.2-.51 0-.71l-1.85-1.85V9.21l1.15 1.14z"/></symbol><symbol viewBox="0 0 24 24" style="version:1.1" id="ea-paddling" xmlns="http://www.w3.org/2000/svg"><path d="M3 7.5c-.83 0-1.5.67-1.5 1.5 0 .64.76 1.81 1.09 2.28a.49.49 0 0 0 .82 0C3.74 10.81 4.5 9.64 4.5 9c0-.83-.67-1.5-1.5-1.5zm0 2.57c-.29-.48-.5-.92-.5-1.07 0-.28.22-.5.5-.5s.5.23.5.5c0 .15-.21.59-.5 1.07zM21.41 11.72c-.19-.27-.64-.27-.82 0-.33.47-1.09 1.64-1.09 2.28 0 .83.67 1.5 1.5 1.5s1.5-.67 1.5-1.5c0-.64-.76-1.81-1.09-2.28zM21 14.5c-.28 0-.5-.22-.5-.5 0-.15.21-.59.5-1.07.29.49.5.92.5 1.07 0 .28-.22.5-.5.5zM16 3.48c-.28 0-.5.22-.5.5v4c0 .28.22.5.5.5s.5-.22.5-.5v-4c0-.27-.22-.5-.5-.5z"/><path d="M17.5 1.5h-3c-.83 0-1.5.67-1.5 1.5v5.62c0 .35.12.69.35.96l1.5 1.81c.18.21.4.36.66.45v9.65c-.28 0-.5.22-.5.5s.22.5.5.5h1c.28 0 .5-.22.5-.5s-.22-.5-.5-.5v-9.65c.25-.09.48-.24.66-.45l1.5-1.81c.21-.27.33-.61.33-.96V3c0-.83-.67-1.5-1.5-1.5zm.5 7.12c0 .12-.04.23-.11.32l-1.5 1.81c-.13.16-.3.18-.38.18s-.25-.02-.38-.18l-1.5-1.81a.438.438 0 0 1-.13-.32V3c0-.28.22-.5.5-.5h3c.28 0 .5.23.5.5v5.62zM8 15.5c-.28 0-.5.22-.5.5v4c0 .28.22.5.5.5s.5-.22.5-.5v-4c0-.28-.22-.5-.5-.5z"/><path d="M9.15 12.59c-.17-.21-.4-.35-.65-.43V2.5c.28 0 .5-.22.5-.5s-.22-.5-.5-.5h-1c-.28 0-.5.22-.5.5s.22.5.5.5v9.66c-.25.08-.48.22-.65.43l-1.5 1.81c-.23.27-.35.61-.35.96v5.62c0 .83.67 1.5 1.5 1.5h3c.83 0 1.5-.67 1.5-1.5v-5.62c0-.35-.12-.69-.34-.96l-1.51-1.81zm.85 8.39c0 .28-.22.5-.5.5h-3c-.28 0-.5-.22-.5-.5v-5.62c0-.12.04-.23.12-.32l1.5-1.81a.5.5 0 0 1 .77 0l1.5 1.81c.07.09.11.2.11.32v5.62z"/></symbol><symbol viewBox="0 0 24 24" style="version:1" id="ea-snowsports" xmlns="http://www.w3.org/2000/svg"><path d="M20.91 16.57l-3.28-1.9 2.7-.72c.27-.07.43-.35.35-.61s-.34-.42-.61-.35l-3.66.98L13 12l3.4-1.96 3.66.98a.5.5 0 0 0 .61-.35.5.5 0 0 0-.35-.61l-2.7-.72 3.29-1.9c.24-.14.32-.44.18-.68a.496.496 0 0 0-.68-.18l-.86.49-.01.01-2.42 1.4.72-2.7a.5.5 0 0 0-.35-.61.513.513 0 0 0-.61.35l-.98 3.67-3.4 1.96V7.23l2.68-2.68c.2-.19.2-.51 0-.71s-.51-.19-.71 0L12.5 5.82V2c0-.28-.22-.5-.5-.5s-.5.22-.5.5v3.81L9.53 3.84c-.19-.19-.51-.19-.71 0s-.19.51 0 .71l2.68 2.68v3.91L8.12 9.18l-.98-3.66a.51.51 0 0 0-.61-.36c-.27.08-.43.35-.36.62l.72 2.7-2.43-1.41-.01-.01-.86-.49c-.24-.14-.54-.06-.68.18s-.06.55.18.68L6.4 9.34l-2.7.72a.496.496 0 1 0 .26.96l3.66-.98L11 12l-3.39 1.96-3.66-.98a.508.508 0 0 0-.61.35.5.5 0 0 0 .35.61l2.7.72-3.3 1.91c-.24.14-.32.44-.18.68.14.24.44.32.68.18l.86-.49h.01l2.44-1.41-.72 2.7a.5.5 0 0 0 .48.63c.22 0 .42-.15.48-.37l.98-3.66 3.39-1.96v3.93l-2.69 2.68c-.19.2-.19.51 0 .71s.51.2.71 0l1.98-1.97V22c0 .28.22.5.5.5s.5-.22.5-.5v-3.79l1.98 1.98c.2.2.51.2.71 0s.2-.51 0-.71l-2.68-2.68v-3.93l3.4 1.96.98 3.66c.06.22.26.37.48.37.04 0 .09-.01.13-.02.27-.07.43-.35.35-.61l-.72-2.7 2.42 1.4s.01 0 .01.01l.86.5c.24.14.54.06.68-.18.12-.25.04-.56-.2-.69z"/></symbol><symbol viewBox="0 0 24 24" style="version:1" id="ea-travel" xmlns="http://www.w3.org/2000/svg"><path d="M20.06 6.5H15.5V5c0-.83-.67-1.5-1.5-1.5h-4c-.83 0-1.5.67-1.5 1.5v1.5H3.94c-.79 0-1.44.65-1.44 1.44v10.13c0 .79.65 1.44 1.44 1.44h16.13c.79 0 1.44-.64 1.44-1.44V7.94c-.01-.79-.65-1.44-1.45-1.44zM8.95 10.49c.01 0 .02.01.03.01l.52.49v1.51h-1v-1.52l.45-.49zm-.45-.83c-.05.03-.11.05-.15.09l-.6.57c-.16.16-.25.36-.25.57v1.79c0 .45.4.82.9.82h1.2c.5 0 .9-.37.9-.82v-1.79c0-.21-.09-.41-.25-.56l-.6-.57c-.04-.05-.1-.07-.15-.1V7.5h8v11h-11v-11h2v2.16zM10 4.5h4c.28 0 .5.23.5.5v1.5h-5V5c0-.28.23-.5.5-.5zM3.5 18.06V7.94c0-.24.2-.44.44-.44H5.5v11H3.94c-.24 0-.44-.2-.44-.44zm17 0c0 .24-.2.44-.44.44H18.5v-11h1.56c.24 0 .44.2.44.44v10.12z"/><path d="M13 17.75h3c.28 0 .5-.22.5-.5v-2c0-.28-.22-.5-.5-.5h-3c-.28 0-.5.22-.5.5v2c0 .28.22.5.5.5zm.5-2h2v1h-2v-1zM15 13.5c.83 0 1.5-.67 1.5-1.5s-.67-1.5-1.5-1.5-1.5.67-1.5 1.5.67 1.5 1.5 1.5zm0-2c.28 0 .5.23.5.5s-.22.5-.5.5-.5-.22-.5-.5.23-.5.5-.5z"/></symbol></svg>