<?xml version="1.0" encoding="utf-8"?><svg xmlns="http://www.w3.org/2000/svg" xmlns:xlink="http://www.w3.org/1999/xlink"><symbol viewBox="0 0 24 24" id="caret-right" xmlns="http://www.w3.org/2000/svg"><path d="M16 12c0-.27-.1-.52-.3-.7l-5-5a.967.967 0 0 0-1.4 0c-.4.38-.4 1.02 0 1.4l4.3 4.3-4.3 4.3c-.4.4-.4 1.02 0 1.4.38.4 1.02.4 1.4 0l5-4.97c.18-.2.3-.44.3-.73z"/></symbol><symbol viewBox="0 0 18 18" id="cdr-account" xmlns="http://www.w3.org/2000/svg"><path d="M9 9c1.93 0 3.5-1.57 3.5-3.5S10.93 2 9 2 5.5 3.57 5.5 5.5 7.07 9 9 9zm6.76 7c-.88-2.9-3.58-5-6.76-5-3.18 0-5.88 2.1-6.76 5h13.52zM1 18c-.55 0-1-.45-1-1v-.16c.45-3.22 2.57-5.9 5.47-7.13-1.2-1-1.97-2.5-1.97-4.2C3.5 2.47 5.96 0 9 0s5.5 2.46 5.5 5.5c0 1.7-.76 3.2-1.97 4.2a9.122 9.122 0 0 1 5.46 7.14V17c0 .55-.46 1-1 1H1z"/></symbol><symbol viewBox="0 0 12 16" id="cdr-arrow-down" xmlns="http://www.w3.org/2000/svg"><path d="M5 12.6L1.7 9.3c-.4-.4-1.02-.4-1.4 0-.4.38-.4 1.02 0 1.4l4.97 5c.2.18.44.3.73.3.27 0 .52-.1.7-.3l5-5c.4-.38.4-1.02 0-1.4a.967.967 0 0 0-1.4 0L7 12.6V1c0-.55-.45-1-1-1S5 .45 5 1v11.6z"/></symbol><symbol viewBox="0 0 16 12" id="cdr-arrow-left" xmlns="http://www.w3.org/2000/svg"><path d="M3.4 5l3.3-3.3c.4-.4.4-1.02 0-1.4a.967.967 0 0 0-1.4 0l-5 4.97c-.18.2-.3.44-.3.73 0 .27.1.52.3.7l5 5c.38.4 1.02.4 1.4 0 .4-.38.4-1.02 0-1.4L3.4 7H15c.55 0 1-.45 1-1s-.45-1-1-1H3.4z"/></symbol><symbol viewBox="0 0 16 12" id="cdr-arrow-right" xmlns="http://www.w3.org/2000/svg"><path d="M12.6 7l-3.3 3.3c-.4.4-.4 1.02 0 1.4.38.4 1.02.4 1.4 0l5-4.97c.18-.2.3-.44.3-.73 0-.27-.1-.52-.3-.7l-5-5a.967.967 0 0 0-1.4 0c-.4.38-.4 1.02 0 1.4L12.6 5H1c-.55 0-1 .45-1 1s.45 1 1 1h11.6z"/></symbol><symbol viewBox="0 0 12 16" id="cdr-arrow-up" xmlns="http://www.w3.org/2000/svg"><path d="M7 3.4l3.3 3.3c.4.4 1.02.4 1.4 0 .4-.38.4-1.02 0-1.4L6.73.3C6.53.12 6.3 0 6 0c-.27 0-.52.1-.7.3l-5 5c-.4.38-.4 1.02 0 1.4.38.4 1.02.4 1.4 0L5 3.4V15c0 .55.45 1 1 1s1-.45 1-1V3.4z"/></symbol><symbol viewBox="0 0 20 20" id="cdr-bike" xmlns="http://www.w3.org/2000/svg"><path d="M11.52 10.18l7.2 7.2c.37.38.37.97 0 1.34-.37.37-.96.37-1.33 0l-7.23-7.2C9.5 11.48 9 10.92 9 10.26 9 9.56 9.54 9 10.24 9c.67 0 1.22.52 1.26 1.18h.02zm5.37 2.75c.36-.9.57-1.9.57-2.93 0-4.14-3.36-7.5-7.5-7.5-4.14 0-7.5 3.36-7.5 7.5 0 4.15 3.36 7.5 7.5 7.5 1.04 0 2.03-.2 2.93-.6l1.6 1.6-.07-.03c-.6-.23-1.3.06-1.57.65l-.13.27c-.24.5-.86.74-1.4.5-.1-.05-.18-.1-.27-.2l-.2-.2c-.5-.43-1.23-.43-1.7 0l-.22.2c-.43.4-1.1.38-1.5-.05a.948.948 0 0 1-.17-.27l-.13-.28c-.27-.6-.96-.88-1.57-.65l-.27.1c-.55.2-1.15-.07-1.35-.62-.04-.1-.06-.2-.07-.32v-.3a1.29 1.29 0 0 0-1.2-1.2h-.3c-.6-.02-1.04-.5-1.02-1.1 0-.1.03-.2.07-.3l.1-.28c.23-.62-.06-1.3-.65-1.57l-.27-.12c-.5-.25-.74-.87-.5-1.4.05-.1.1-.2.2-.27l.2-.22c.44-.48.44-1.22 0-1.7l-.2-.22c-.4-.42-.38-1.1.05-1.48.08-.08.17-.14.27-.2l.28-.1c.6-.28.88-.96.65-1.58l-.1-.28c-.2-.55.07-1.15.62-1.36.1-.03.2-.06.33-.06h.3a1.29 1.29 0 0 0 1.2-1.2v-.3a1.043 1.043 0 0 1 1.42-.95l.27.1c.6.24 1.3-.05 1.56-.64L7.3.6c.23-.5.85-.76 1.4-.5.1.03.17.1.26.17l.2.2c.5.44 1.23.44 1.7 0l.22-.2c.43-.4 1.1-.37 1.5.06.07.08.13.17.17.27l.13.28c.27.6.96.88 1.57.65l.27-.1c.55-.2 1.15.07 1.35.62.04.1.06.2.07.32v.3c.04.65.56 1.17 1.2 1.2h.3c.6.03 1.04.52 1.02 1.1 0 .1-.03.22-.07.32l-.1.26c-.24.62.05 1.3.64 1.57l.27.12c.53.25.76.87.5 1.4-.03.1-.1.2-.17.27l-.2.22a1.24 1.24 0 0 0 0 1.7l.2.22c.4.42.37 1.1-.06 1.48-.08.08-.17.14-.27.2l-.28.1c-.6.28-.88.96-.65 1.58l.05.14-1.63-1.64z"/></symbol><symbol viewBox="0 0 16 20" id="cdr-bookmark-fill" xmlns="http://www.w3.org/2000/svg"><path d="M1 0h14c.55 0 1 .45 1 1v18a1.003 1.003 0 0 1-1.6.8L8 15l-6.4 4.8A1.003 1.003 0 0 1 0 19V1c0-.55.45-1 1-1z"/></symbol><symbol viewBox="0 0 16 20" id="cdr-bookmark-stroke" xmlns="http://www.w3.org/2000/svg"><path d="M1 0h14c.55 0 1 .45 1 1v18a1.003 1.003 0 0 1-1.6.8L8 15l-6.4 4.8A1.003 1.003 0 0 1 0 19V1c0-.55.45-1 1-1zm1 2v15l5.4-4.05a.99.99 0 0 1 1.2 0L14 17V2H2z"/></symbol><symbol viewBox="0 0 18 18" id="cdr-calendar" xmlns="http://www.w3.org/2000/svg"><path d="M15 2h2c.55 0 1 .45 1 1v14c0 .55-.45 1-1 1H1c-.55 0-1-.45-1-1V3c0-.55.45-1 1-1h2v1c0 1.1.9 2 2 2s2-.9 2-2V2h4v1c0 1.1.9 2 2 2s2-.9 2-2V2zM1.5 6v10.5h15V6h-15zM4 8.5h2v2H4v-2zm0 4h2v2H4v-2zm4-4h2v2H8v-2zm0 4h2v2H8v-2zm4-4h2v2h-2v-2zm0 4h2v2h-2v-2zM5 0c.55 0 1 .45 1 1v2c0 .55-.45 1-1 1s-1-.45-1-1V1c0-.55.45-1 1-1zm8 0c.55 0 1 .45 1 1v2c0 .55-.45 1-1 1s-1-.45-1-1V1c0-.55.45-1 1-1z"/></symbol><symbol viewBox="0 0 20 16" id="cdr-camera" xmlns="http://www.w3.org/2000/svg"><path d="M1 3h3L5.7.45c.2-.28.5-.45.84-.45h6.93c.33 0 .65.17.83.45L16 3h3c.55 0 1 .45 1 1v11c0 .55-.45 1-1 1H1c-.55 0-1-.45-1-1V4c0-.55.45-1 1-1zm1 11h16V5h-2.53c-.34 0-.65-.17-.84-.45L12.93 2H7.07l-1.7 2.55c-.2.28-.5.45-.83.45H2v9zm8 0c-2.76 0-5-2.24-5-5s2.24-5 5-5 5 2.24 5 5-2.24 5-5 5zm0-2c1.66 0 3-1.34 3-3s-1.34-3-3-3-3 1.34-3 3 1.34 3 3 3z"/></symbol><symbol viewBox="0 0 12 7" id="cdr-caret-down" xmlns="http://www.w3.org/2000/svg"><path d="M6 7c.27 0 .52-.1.7-.3l5-5c.4-.38.4-1.02 0-1.4a.967.967 0 0 0-1.4 0L6 4.6 1.7.3C1.3-.1.68-.1.3.3c-.4.38-.4 1.02 0 1.4l4.97 5c.2.18.44.3.73.3z"/></symbol><symbol viewBox="0 0 7 12" id="cdr-caret-left" xmlns="http://www.w3.org/2000/svg"><path d="M0 6c0 .27.1.52.3.7l5 5c.38.4 1.02.4 1.4 0 .4-.38.4-1.02 0-1.4L2.4 6l4.3-4.3c.4-.4.4-1.02 0-1.4a.967.967 0 0 0-1.4 0l-5 4.97c-.18.2-.3.44-.3.73z"/></symbol><symbol viewBox="0 0 7 12" id="cdr-caret-right" xmlns="http://www.w3.org/2000/svg"><path d="M7 6c0-.27-.1-.52-.3-.7l-5-5A.967.967 0 0 0 .3.3c-.4.38-.4 1.02 0 1.4L4.6 6 .3 10.3c-.4.4-.4 1.02 0 1.4.38.4 1.02.4 1.4 0l5-4.97c.18-.2.3-.44.3-.73z"/></symbol><symbol viewBox="0 0 12 7" id="cdr-caret-up" xmlns="http://www.w3.org/2000/svg"><path d="M6 0c-.27 0-.52.1-.7.3l-5 5c-.4.38-.4 1.02 0 1.4.38.4 1.02.4 1.4 0L6 2.4l4.3 4.3c.4.4 1.02.4 1.4 0 .4-.38.4-1.02 0-1.4L6.73.3C6.53.12 6.3 0 6 0z"/></symbol><symbol viewBox="0 0 18 18" id="cdr-cart" xmlns="http://www.w3.org/2000/svg"><path d="M4.37 9.97L2.24 2H1c-.55 0-1-.45-1-1s.45-1 1-1h2c.32 0 .6.15.78.38.1.1.15.23.2.37L4.58 3H17a1.001 1.001 0 0 1 .97 1.25l-1.6 6c-.14.5-.58.8-1.06.75H6.2l-.4 1.5H15c.55 0 1 .45 1 1s-.45 1-1 1H4.47c-.37 0-.7-.2-.86-.5-.12-.22-.16-.5-.1-.77l.88-3.26zM6.17 9h8.46l1.07-4H5.1l1.08 4zm.08 9C5.55 18 5 17.44 5 16.75c0-.7.56-1.25 1.25-1.25.7 0 1.25.56 1.25 1.25 0 .7-.56 1.25-1.25 1.25zm7.5 0c-.7 0-1.25-.56-1.25-1.25 0-.7.56-1.25 1.25-1.25.7 0 1.25.56 1.25 1.25 0 .7-.56 1.25-1.25 1.25z"/></symbol><symbol viewBox="0 0 18 18" id="cdr-chainlink" xmlns="http://www.w3.org/2000/svg"><path d="M12.7 5.3c.4.38.4 1.02 0 1.4l-6 6c-.38.4-1.02.4-1.4 0-.4-.4-.4-1.02 0-1.4l6-6c.38-.4 1-.4 1.4 0zm-1.15 3.98l3.87-3.87c.78-.76.78-2.02 0-2.8-.78-.8-2.05-.8-2.83 0L8.7 6.47c-.34-1.34 0-2.83 1.05-3.87l1.42-1.43c1.56-1.56 4.1-1.56 5.65 0a4.008 4.008 0 0 1 0 5.66l-1.4 1.4a4.023 4.023 0 0 1-3.88 1.05zm-5.1-.55L2.6 12.6c-.8.77-.8 2.04 0 2.82.77.78 2.03.78 2.8 0l3.88-3.87c.35 1.34 0 2.82-1.04 3.87l-1.4 1.4a4.002 4.002 0 0 1-5.67 0 3.983 3.983 0 0 1 0-5.64L2.6 9.76c1-1.06 2.5-1.4 3.83-1.03z"/></symbol><symbol viewBox="0 0 20 16" id="cdr-chat" xmlns="http://www.w3.org/2000/svg"><path d="M17 13v2a1.003 1.003 0 0 1-1.64.77L12 13H1c-.55 0-1-.45-1-1V1c0-.55.45-1 1-1h18c.55 0 1 .45 1 1v11c0 .55-.45 1-1 1h-2zM2 2v9h10.72L15 12.88V11h3V2H2zm8 5.75c-.7 0-1.25-.56-1.25-1.25 0-.7.56-1.25 1.25-1.25.7 0 1.25.56 1.25 1.25 0 .7-.56 1.25-1.25 1.25zm-4.25 0c-.7 0-1.25-.56-1.25-1.25 0-.7.56-1.25 1.25-1.25.7 0 1.25.55 1.25 1.25s-.56 1.25-1.25 1.25zm8.5 0c-.7 0-1.25-.56-1.25-1.25 0-.7.56-1.25 1.25-1.25.7 0 1.25.56 1.25 1.25 0 .7-.56 1.25-1.25 1.25z"/></symbol><symbol viewBox="0 0 20 20" id="cdr-check-circ-fill" xmlns="http://www.w3.org/2000/svg"><path d="M10 20C4.48 20 0 15.52 0 10S4.48 0 10 0s10 4.48 10 10-4.48 10-10 10zm4.77-13.36c.35-.42.3-1.05-.12-1.4a.986.986 0 0 0-1.4.12L7.3 12.44l-1.54-1.82c-.36-.42-1-.48-1.4-.12-.44.35-.5 1-.14 1.4l2.23 2.67c.18.26.48.43.82.43.3 0 .56-.13.75-.33l6.74-8.03z"/></symbol><symbol viewBox="0 0 20 20" id="cdr-check-circ-stroke" xmlns="http://www.w3.org/2000/svg"><path d="M10 20C4.48 20 0 15.52 0 10S4.48 0 10 0s10 4.48 10 10-4.48 10-10 10zm0-2c4.42 0 8-3.58 8-8s-3.58-8-8-8-8 3.58-8 8 3.58 8 8 8zm4.77-11.36l-6.74 8.03c-.2.2-.45.33-.75.33-.34 0-.64-.17-.82-.43L4.23 11.9c-.35-.4-.3-1.04.13-1.4a.996.996 0 0 1 1.4.12l1.53 1.82 5.93-7.08c.35-.42.98-.48 1.4-.12.43.35.48.98.13 1.4z"/></symbol><symbol viewBox="0 0 16 14" id="cdr-check-lg" xmlns="http://www.w3.org/2000/svg"><path d="M5.67 13.67l10.1-12.03c.35-.42.3-1.05-.13-1.4a.987.987 0 0 0-1.4.12l-9.3 11.08-3.17-3.77c-.36-.43-1-.48-1.4-.13-.44.36-.5 1-.14 1.4l3.88 4.63c.2.26.5.43.84.43.3 0 .56-.13.74-.33z"/></symbol><symbol viewBox="0 0 11 10" id="cdr-check-sm" xmlns="http://www.w3.org/2000/svg"><path d="M10.77 1.64c.35-.42.3-1.05-.12-1.4a.986.986 0 0 0-1.4.12L3.3 7.44 1.75 5.62c-.36-.42-1-.47-1.4-.12-.44.36-.5 1-.14 1.4l2.23 2.67c.18.26.48.43.82.43.3 0 .56-.13.75-.33l6.74-8.03z"/></symbol><symbol viewBox="0 0 16 20" id="cdr-climb" xmlns="http://www.w3.org/2000/svg"><path d="M15.24 9.3c.54.14.86.68.73 1.22L14.9 14.5c-.14.53-.68.86-1.22.73l-.5-.13c-.2.6-.4 1.24-.6 1.9-.77 1.77-2.53 3-4.58 3-2 0-3.74-1.18-4.54-2.9C1.46 12.62.32 8.88 0 5.87V5.5C0 2.46 2.47 0 5.5 0c1.2 0 3.04.24 5.5.7 2.3.67 4 2.8 4 5.3 0 .85-.12 1.9-.35 3.16l.6.15zM13 6c0-1.55-1-2.9-2.46-3.34-2.3-.44-4-.66-5.04-.66C3.57 2 2 3.57 2 5.5v.22c.3 2.76 1.4 6.3 3.28 10.54C5.78 17.3 6.82 18 8 18c1.17 0 2.22-.68 2.7-1.72.2-.57.37-1.13.53-1.67l-.46-.1a.985.985 0 0 1-.73-1.2l1.08-4c.13-.52.67-.84 1.2-.7l.4.1c.18-1.1.28-2 .28-2.7zm-.76 6.8l.97.25.57-2.05-.97-.24-.56 2.05z"/></symbol><symbol viewBox="0 0 18 18" id="cdr-coupon" xmlns="http://www.w3.org/2000/svg"><path d="M9.4 0H17c.55 0 1 .45 1 1v7.6c0 .25-.12.5-.3.7l-8.4 8.4c-.4.4-1.03.4-1.42 0L.3 10.2c-.4-.4-.4-1.02 0-1.4L8.7.3c.18-.2.44-.3.7-.3zm.42 2l-7.4 7.48 6.16 6.1 7.4-7.4L16 2H9.82zm3.93 3.5c-.7 0-1.25-.56-1.25-1.25 0-.7.56-1.25 1.25-1.25.7 0 1.25.56 1.25 1.25 0 .7-.56 1.25-1.25 1.25z"/></symbol><symbol viewBox="0 0 18 18" id="cdr-coupon-fill" xmlns="http://www.w3.org/2000/svg"><path d="M9.4 0H17c.55 0 1 .45 1 1v7.6c0 .25-.12.5-.3.7l-8.4 8.4c-.4.4-1.03.4-1.42 0L.3 10.2c-.4-.4-.4-1.02 0-1.4L8.7.3c.18-.2.44-.3.7-.3zm4.35 5.5c.7 0 1.25-.56 1.25-1.25 0-.7-.56-1.25-1.25-1.25-.7 0-1.25.56-1.25 1.25 0 .7.56 1.25 1.25 1.25z"/></symbol><symbol viewBox="0 0 20 14" id="cdr-creditcard" xmlns="http://www.w3.org/2000/svg"><path d="M1 0h18c.55 0 1 .45 1 1v12c0 .55-.45 1-1 1H1c-.55 0-1-.45-1-1V1c0-.55.45-1 1-1zm17 4V2H2v2h16zm0 3H2v5h16V7zm-4 2h3v2h-3V9zm-3 0h2v2h-2V9z"/></symbol><symbol viewBox="0 0 16 20" id="cdr-download" xmlns="http://www.w3.org/2000/svg"><path d="M7 12.6V1c0-.55.45-1 1-1s1 .45 1 1v11.6l3.3-3.3c.38-.4 1.02-.4 1.4 0 .4.38.4 1.02 0 1.4l-5 5c-.18.2-.43.3-.7.3-.3 0-.54-.12-.73-.3-3.3-3.33-4.97-5-4.98-5a.967.967 0 0 1 0-1.4c.37-.4 1-.4 1.4 0L7 12.6zM2 18h12v-2c0-.55.45-1 1-1s1 .45 1 1v3c0 .28-.1.53-.3.7-.17.2-.42.3-.7.3H1c-.28 0-.53-.1-.7-.3-.2-.17-.3-.42-.3-.7v-3c0-.55.45-1 1-1s1 .45 1 1v2z"/></symbol><symbol viewBox="0 0 18 18" id="cdr-expand" xmlns="http://www.w3.org/2000/svg"><path d="M16 3.42l-4.3 4.3c-.38.38-1.02.38-1.4 0-.4-.4-.4-1.04 0-1.43L14.57 2H12c-.55 0-1-.45-1-1s.45-1 1-1h5c.26 0 .52.1.7.3.2.2.3.46.3.73V6c0 .55-.45 1-1 1s-1-.45-1-1V3.42zM2 14.58l4.3-4.3c.4-.38 1.02-.38 1.4 0 .4.4.4 1.04 0 1.43L3.43 16H6c.55 0 1 .45 1 1s-.45 1-1 1H1c-.26 0-.5-.1-.7-.3-.2-.2-.3-.46-.3-.73V12c0-.55.45-1 1-1s1 .45 1 1v2.58z"/></symbol><symbol viewBox="0 0 18 18" id="cdr-external" xmlns="http://www.w3.org/2000/svg"><path d="M16 3.42l-8.3 8.3c-.4.38-1.02.38-1.4 0-.4-.4-.4-1.04 0-1.43L14.57 2H12c-.55 0-1-.45-1-1s.45-1 1-1h5c.26 0 .5.1.7.3.2.2.3.46.3.73V6c0 .55-.45 1-1 1s-1-.45-1-1V3.42zM.3 4.3C.47 4.1.72 4 1 4h6c.55 0 1 .45 1 1s-.45 1-1 1H2v10h10v-5c0-.55.45-1 1-1s1 .45 1 1v6c0 .28-.1.53-.3.7-.17.2-.42.3-.7.3H1c-.28 0-.53-.1-.7-.3-.2-.17-.3-.42-.3-.7V5c0-.28.1-.53.3-.7z"/></symbol><symbol viewBox="0 0 10 18" id="cdr-facebook" xmlns="http://www.w3.org/2000/svg"><path d="M2.68 17.9V9.65H0V6.7h2.68V4.5S2.48 0 6.38 0H10v3.02H7.6s-1.46-.08-1.48 1.42V6.7h3.34L9 9.64H6.1V18H2.67v-.1z"/></symbol><symbol viewBox="0 0 20 18" id="cdr-heart-fill" xmlns="http://www.w3.org/2000/svg"><path d="M10.7 17.7c-.18.2-.43.3-.7.3-.3 0-.54-.12-.73-.3-5.05-5-7.76-7.72-8.13-8.2C.57 8.83 0 7.3 0 6c0-3.3 2.7-6 6-6 1.54 0 2.94.58 4 1.53A5.97 5.97 0 0 1 14 0c3.3 0 6 2.7 6 6 0 1.4-.5 2.7-1.3 3.73-.54.68-3.2 3.34-8 7.98z"/></symbol><symbol viewBox="0 0 20 18" id="cdr-heart-stroke" xmlns="http://www.w3.org/2000/svg"><path d="M10.7 17.7c-.18.2-.43.3-.7.3-.3 0-.54-.12-.73-.3-5.05-5-7.76-7.72-8.13-8.2C.57 8.83 0 7.3 0 6c0-3.3 2.7-6 6-6 1.54 0 2.94.58 4 1.53A5.97 5.97 0 0 1 14 0c3.3 0 6 2.7 6 6 0 1.4-.5 2.7-1.3 3.73-.54.68-3.2 3.34-8 7.98zM9.2 3.6C8.45 2.62 7.3 2 6 2 3.8 2 2 3.8 2 6c0 .87.28 1.68.76 2.34.32.44 2.73 2.86 7.24 7.25 4.37-4.18 6.8-6.6 7.24-7.27.68-1 .76-1.46.76-2.34 0-2.2-1.8-4-4-4-1.3 0-2.46.6-3.2 1.57l-.02.04c-.18.24-.46.4-.78.4-.3 0-.58-.15-.76-.36l-.05-.07v.03z"/></symbol><symbol viewBox="0 0 20 20" id="cdr-help-circ-fill" xmlns="http://www.w3.org/2000/svg"><path d="M10 20C4.48 20 0 15.52 0 10S4.48 0 10 0s10 4.48 10 10-4.48 10-10 10zm0-4c.7 0 1.25-.56 1.25-1.25 0-.7-.55-1.25-1.25-1.25s-1.25.56-1.25 1.25c0 .7.55 1.25 1.25 1.25zm1.5-8.5c0 .82-.88 1.12-1.5 1.75-.62.63-1 1.3-1 2.26 0 .57.45 1 1 1s1-.43 1-1c0-.24.06-.5.17-.7.13-.22.3-.42.53-.56.23-.14 1.8-.93 1.8-2.73C13.5 5.58 11.93 4 10 4S6.5 5.57 6.5 7.5c0 .55.45 1 1 1s1-.45 1-1c0-.83.67-1.5 1.5-1.5s1.5.67 1.5 1.5z"/></symbol><symbol viewBox="0 0 20 20" id="cdr-help-circ-stroke" xmlns="http://www.w3.org/2000/svg"><path d="M10 20C4.48 20 0 15.52 0 10S4.48 0 10 0s10 4.48 10 10-4.48 10-10 10zm0-2c4.42 0 8-3.58 8-8s-3.58-8-8-8-8 3.58-8 8 3.58 8 8 8zm0-2c-.7 0-1.25-.56-1.25-1.25 0-.7.55-1.25 1.25-1.25s1.25.56 1.25 1.25c0 .7-.55 1.25-1.25 1.25zm1.5-8.5c0-.83-.67-1.5-1.5-1.5s-1.5.67-1.5 1.5c0 .55-.45 1-1 1s-1-.45-1-1C6.5 5.57 8.07 4 10 4s3.5 1.57 3.5 3.5c0 1.8-1.57 2.6-1.8 2.73-.22.14-.4.34-.53.57-.1.2-.17.45-.17.7 0 .56-.45 1-1 1s-1-.44-1-1c0-.95.38-1.62 1-2.25.62-.63 1.5-.93 1.5-1.75z"/></symbol><symbol viewBox="0 0 18 18" id="cdr-image" xmlns="http://www.w3.org/2000/svg"><path d="M1 0h16c.55 0 1 .45 1 1v16c0 .55-.45 1-1 1H1c-.55 0-1-.45-1-1V1c0-.55.45-1 1-1zm15 9.15V2H2v11.04L8.5 9.3c.3-.2.7-.2 1 0l1.13.63 2.87-1.65c.3-.2.7-.2 1 0l1.5.85v.02zm0 2.3l-2-1.14-2.87 1.67c-.3.18-.7.18-1 0L9 11.3l-7 4.05V16h14v-4.54zM5.25 6.5C4.55 6.5 4 5.94 4 5.25 4 4.55 4.56 4 5.25 4c.7 0 1.25.56 1.25 1.25 0 .7-.56 1.25-1.25 1.25z"/></symbol><symbol viewBox="0 0 20 20" id="cdr-info-circ-fill" xmlns="http://www.w3.org/2000/svg"><path d="M10 20C4.48 20 0 15.52 0 10S4.48 0 10 0s10 4.48 10 10-4.48 10-10 10zm-1-6c-.55 0-1 .45-1 1s.45 1 1 1h2c.55 0 1-.45 1-1s-.45-1-1-1V9c0-.28-.1-.53-.3-.7-.17-.2-.42-.3-.7-.3H9c-.55 0-1 .45-1 1s.45 1 1 1v4zm1-7.5c.7 0 1.25-.56 1.25-1.25C11.25 4.55 10.7 4 10 4s-1.25.56-1.25 1.25c0 .7.55 1.25 1.25 1.25z"/></symbol><symbol viewBox="0 0 20 20" id="cdr-info-circ-stroke" xmlns="http://www.w3.org/2000/svg"><path d="M10 20C4.48 20 0 15.52 0 10S4.48 0 10 0s10 4.48 10 10-4.48 10-10 10zm0-2c4.42 0 8-3.58 8-8s-3.58-8-8-8-8 3.58-8 8 3.58 8 8 8zm-1-8c-.55 0-1-.45-1-1s.45-1 1-1h1c.28 0 .53.1.7.3.2.17.3.42.3.7v5c.55 0 1 .45 1 1s-.45 1-1 1H9c-.55 0-1-.45-1-1s.45-1 1-1v-4zm1.03-3.44c-.7 0-1.28-.57-1.28-1.28 0-.7.57-1.28 1.28-1.28.7 0 1.28.57 1.28 1.28 0 .7-.55 1.28-1.26 1.28z"/></symbol><symbol viewBox="0 0 18 18" id="cdr-instagram" xmlns="http://www.w3.org/2000/svg"><path d="M5 0h8c2.76 0 5 2.24 5 5v8c0 2.76-2.24 5-5 5H5c-2.76 0-5-2.24-5-5V5c0-2.76 2.24-5 5-5zm0 2C3.34 2 2 3.34 2 5v8c0 1.66 1.34 3 3 3h8c1.66 0 3-1.34 3-3V5c0-1.66-1.34-3-3-3H5zm4 12c-2.76 0-5-2.24-5-5s2.24-5 5-5 5 2.24 5 5-2.24 5-5 5zm0-2c1.66 0 3-1.34 3-3s-1.34-3-3-3-3 1.34-3 3 1.34 3 3 3zm4.75-6.75c-.55 0-1-.45-1-1s.45-1 1-1 1 .45 1 1-.45 1-1 1z"/></symbol><symbol viewBox="0 0 16 20" id="cdr-loc-pin" xmlns="http://www.w3.org/2000/svg"><path d="M8.72 19.7c-.42.4-1.05.4-1.44 0C2.43 14.7 0 10.8 0 8c0-4.42 3.58-8 8-8s8 3.58 8 8c0 2.8-2.43 6.7-7.28 11.7zM14 8c0-3.3-2.7-6-6-6S2 4.7 2 8c0 2 1.97 5.28 6 9.55C12.03 13.28 14 10 14 8zM8 9.5c-.83 0-1.5-.67-1.5-1.5S7.17 6.5 8 6.5s1.5.67 1.5 1.5S8.83 9.5 8 9.5z"/></symbol><symbol viewBox="0 0 16 20" id="cdr-loc-pin-fill" xmlns="http://www.w3.org/2000/svg"><path d="M8.72 19.7c-.42.4-1.05.4-1.44 0C2.43 14.7 0 10.8 0 8c0-4.42 3.58-8 8-8s8 3.58 8 8c0 2.8-2.43 6.7-7.28 11.7zM8 9.5c.83 0 1.5-.67 1.5-1.5S8.83 6.5 8 6.5 6.5 7.17 6.5 8 7.17 9.5 8 9.5z"/></symbol><symbol viewBox="0 0 20 20" id="cdr-locate" xmlns="http://www.w3.org/2000/svg"><path d="M2.06 9H3c.55 0 1 .45 1 1s-.45 1-1 1h-.94c.45 3.62 3.32 6.5 6.94 6.94V17c0-.55.45-1 1-1s1 .45 1 1v.94c3.62-.45 6.5-3.32 6.94-6.94H17c-.55 0-1-.45-1-1s.45-1 1-1h.94A7.983 7.983 0 0 0 11 2.06V3c0 .55-.45 1-1 1s-1-.45-1-1v-.94C5.38 2.5 2.5 5.38 2.06 9zM10 20C4.48 20 0 15.52 0 10S4.48 0 10 0s10 4.48 10 10-4.48 10-10 10zm0-8.75c-.7 0-1.25-.56-1.25-1.25 0-.7.56-1.25 1.25-1.25.7 0 1.25.56 1.25 1.25 0 .7-.56 1.25-1.25 1.25z"/></symbol><symbol viewBox="0 0 20 14" id="cdr-mail" xmlns="http://www.w3.org/2000/svg"><path d="M3.34 2L10 5.85 16.66 2H3.34zM18 3.54l-7.48 4.32-.1.05c-.15.08-.3.1-.44.1-.15 0-.32-.03-.48-.12L2 3.54V12h16V3.54zM1 0h18c.55 0 1 .45 1 1v12c0 .55-.45 1-1 1H1c-.55 0-1-.45-1-1V1c0-.55.45-1 1-1z"/></symbol><symbol viewBox="0 0 20 20" id="cdr-minus-circ-fill" xmlns="http://www.w3.org/2000/svg"><path d="M10 20C4.48 20 0 15.52 0 10S4.48 0 10 0s10 4.48 10 10-4.48 10-10 10zM6 9c-.55 0-1 .45-1 1s.45 1 1 1h8c.55 0 1-.45 1-1s-.45-1-1-1H6z"/></symbol><symbol viewBox="0 0 20 20" id="cdr-minus-circ-stroke" xmlns="http://www.w3.org/2000/svg"><path d="M10 20C4.48 20 0 15.52 0 10S4.48 0 10 0s10 4.48 10 10-4.48 10-10 10zm0-2c4.42 0 8-3.58 8-8s-3.58-8-8-8-8 3.58-8 8 3.58 8 8 8zM6 9h8c.55 0 1 .45 1 1s-.45 1-1 1H6c-.55 0-1-.45-1-1s.45-1 1-1z"/></symbol><symbol viewBox="0 0 14 2" id="cdr-minus-lg" xmlns="http://www.w3.org/2000/svg"><rect width="14" height="2" rx="1"/></symbol><symbol viewBox="0 0 10 2" id="cdr-minus-sm" xmlns="http://www.w3.org/2000/svg"><rect width="10" height="2" rx="1"/></symbol><symbol viewBox="0 0 4 16" id="cdr-more" xmlns="http://www.w3.org/2000/svg"><path d="M2 3C1.17 3 .5 2.33.5 1.5S1.17 0 2 0s1.5.67 1.5 1.5S2.83 3 2 3zm0 6.5C1.17 9.5.5 8.83.5 8S1.17 6.5 2 6.5s1.5.67 1.5 1.5S2.83 9.5 2 9.5zM2 16c-.83 0-1.5-.67-1.5-1.5S1.17 13 2 13s1.5.67 1.5 1.5S2.83 16 2 16z"/></symbol><symbol viewBox="0 0 18 14" id="cdr-nav" xmlns="http://www.w3.org/2000/svg"><path d="M1 0h16c.55 0 1 .45 1 1s-.45 1-1 1H1c-.55 0-1-.45-1-1s.45-1 1-1zm0 6h16c.55 0 1 .45 1 1s-.45 1-1 1H1c-.55 0-1-.45-1-1s.45-1 1-1zm0 6h16c.55 0 1 .45 1 1s-.45 1-1 1H1c-.55 0-1-.45-1-1s.45-1 1-1z"/></symbol><symbol viewBox="0 0 18 14" id="cdr-nav-alt" xmlns="http://www.w3.org/2000/svg"><path d="M1 0h16c.55 0 1 .45 1 1s-.45 1-1 1H1c-.55 0-1-.45-1-1s.45-1 1-1zm0 6h10c.55 0 1 .45 1 1s-.45 1-1 1H1c-.55 0-1-.45-1-1s.45-1 1-1zm0 6h14c.55 0 1 .45 1 1s-.45 1-1 1H1c-.55 0-1-.45-1-1s.45-1 1-1z"/></symbol><symbol viewBox="0 0 16 16" id="cdr-phone" xmlns="http://www.w3.org/2000/svg"><path d="M.36 1.78L2.2.23C2.4.1 2.6 0 2.8 0c.56-.03 1.04.4 1.07.96v.12c.07.73.2 1.46.4 2.15.05.2.14.46.25.8.1.25.07.54-.05.78L3.5 6.75c1.32 2.44 3.33 4.44 5.76 5.76l1.93-.97a.98.98 0 0 1 .77-.05c.33.12.6.2.8.26.7.2 1.42.32 2.16.38h.1c.23.02.44.1.6.25.44.36.5 1 .13 1.43l-1.56 1.84c-.23.28-.58.4-.93.34-.57-.1-1.02-.2-1.33-.27A16.225 16.225 0 0 1 .3 4.08C.2 3.75.1 3.3 0 2.73c-.05-.35.08-.7.36-.95z"/></symbol><symbol viewBox="0 0 16 20" id="cdr-pinterest" xmlns="http://www.w3.org/2000/svg"><path d="M3.68 15.2l1.24-5.16s.13-.63-.2-1.18c0 0-.7-1.77.7-3.27 0 0 1.17-1.3 2.65-.33 0 0 .85.66.5 1.9l-1 3.12c0-.02-.62 2.35 1.67 2.55 0 0 2.4.33 3.57-2.9 1.17-3.22-.18-5.27-.18-5.27s-1.74-3-5.66-2.38c-3.93.64-4.42 4.33-4.42 4.33s-.3 2.28.93 3.94l-.6 2s-3-1.9-2.87-5.32C0 7.25.13 1.57 6.02.2c0 0 5.33-1.33 8.48 2.9 1.77 2.37 1.64 4.94 1.27 6.86-.38 1.9-1.8 3.13-1.8 3.13s-3.88 4.04-7.24.46l-.7 2.73s-.85 2.94-2 3.7l-.5-.13s-.27-3.3.15-4.68z"/></symbol><symbol viewBox="0 0 20 20" id="cdr-play-circ-fill" xmlns="http://www.w3.org/2000/svg"><path d="M10 20C4.48 20 0 15.52 0 10S4.48 0 10 0s10 4.48 10 10-4.48 10-10 10zm4.73-9.56c.1-.05.16-.12.2-.2.13-.25.04-.55-.2-.68l-7-3.75c-.07 0-.15-.03-.23-.03-.28 0-.5.22-.5.5v7.5c0 .08.02.16.06.23.13.23.43.33.68.2l7-3.76z"/></symbol><symbol viewBox="0 0 20 20" id="cdr-play-circ-stroke" xmlns="http://www.w3.org/2000/svg"><path d="M10 20C4.48 20 0 15.52 0 10S4.48 0 10 0s10 4.48 10 10-4.48 10-10 10zm0-2c4.42 0 8-3.58 8-8s-3.58-8-8-8-8 3.58-8 8 3.58 8 8 8zm4.73-7.56l-7 3.75c-.24.12-.54.02-.67-.2a.651.651 0 0 1-.06-.26v-7.5c0-.27.22-.5.5-.5.08 0 .16.03.24.06l7 3.76c.23.13.32.43.2.68-.05.08-.12.15-.2.2z"/></symbol><symbol viewBox="0 0 20 20" id="cdr-plus-circ-fill" xmlns="http://www.w3.org/2000/svg"><path d="M9 9H6c-.55 0-1 .45-1 1s.45 1 1 1h3v3c0 .55.45 1 1 1s1-.45 1-1v-3h3c.55 0 1-.45 1-1s-.45-1-1-1h-3V6c0-.55-.45-1-1-1s-1 .45-1 1v3zm1 11C4.48 20 0 15.52 0 10S4.48 0 10 0s10 4.48 10 10-4.48 10-10 10z"/></symbol><symbol viewBox="0 0 20 20" id="cdr-plus-circ-stroke" xmlns="http://www.w3.org/2000/svg"><path d="M9 9V6c0-.55.45-1 1-1s1 .45 1 1v3h3c.55 0 1 .45 1 1s-.45 1-1 1h-3v3c0 .55-.45 1-1 1s-1-.45-1-1v-3H6c-.55 0-1-.45-1-1s.45-1 1-1h3zm1 11C4.48 20 0 15.52 0 10S4.48 0 10 0s10 4.48 10 10-4.48 10-10 10zm0-2c4.42 0 8-3.58 8-8s-3.58-8-8-8-8 3.58-8 8 3.58 8 8 8z"/></symbol><symbol viewBox="0 0 14 14" id="cdr-plus-lg" xmlns="http://www.w3.org/2000/svg"><path d="M6 6H1c-.55 0-1 .45-1 1s.45 1 1 1h5v5c0 .55.45 1 1 1s1-.45 1-1V8h5c.55 0 1-.45 1-1s-.45-1-1-1H8V1c0-.55-.45-1-1-1S6 .45 6 1v5z"/></symbol><symbol viewBox="0 0 10 10" id="cdr-plus-sm" xmlns="http://www.w3.org/2000/svg"><path d="M4 4H1c-.55 0-1 .45-1 1s.45 1 1 1h3v3c0 .55.45 1 1 1s1-.45 1-1V6h3c.55 0 1-.45 1-1s-.45-1-1-1H6V1c0-.55-.45-1-1-1S4 .45 4 1v3z"/></symbol><symbol viewBox="0 0 20 16" id="cdr-print" xmlns="http://www.w3.org/2000/svg"><path d="M1 13c-.55 0-1-.45-1-1V5c0-.55.45-1 1-1h4V1c0-.55.45-1 1-1h8c.55 0 1 .45 1 1v3h4c.55 0 1 .45 1 1v7c0 .55-.45 1-1 1h-3l.56 1.68a.99.99 0 0 1-.95 1.32H4.4c-.56 0-1-.45-1-1 0-.1 0-.2.04-.32L4 13H1zm14.33-2H18V6H2v5h2.67l.1-.32c.14-.4.52-.68.95-.68h8.56c.43 0 .8.28.95.68l.1.32zM6.5 4h7V1.5h-7V4zM5.27 14.5h9.46l-.67-3H5.94l-.67 3zm10.48-5c-.7 0-1.25-.56-1.25-1.25 0-.7.56-1.25 1.25-1.25.7 0 1.25.56 1.25 1.25 0 .7-.56 1.25-1.25 1.25z"/></symbol><symbol viewBox="0 0 20 20" id="cdr-recent" xmlns="http://www.w3.org/2000/svg"><path d="M10 20C4.48 20 0 15.52 0 10S4.48 0 10 0s10 4.48 10 10-4.48 10-10 10zm0-2c4.42 0 8-3.58 8-8s-3.58-8-8-8-8 3.58-8 8 3.58 8 8 8zm.5-8.15l2.78 2.77c.3.3.3.8 0 1.1-.3.3-.8.3-1.1 0L9.3 10.85c-.2-.15-.3-.36-.3-.6v-5.5c0-.4.34-.75.75-.75.4 0 .75.34.75.75v5.1z"/></symbol><symbol viewBox="0 0 18 18" id="cdr-refresh" xmlns="http://www.w3.org/2000/svg"><path d="M18 9c0 .55-.45 1-1 1s-1-.45-1-1A6.995 6.995 0 0 0 5.4 3H6c.55 0 1 .45 1 1s-.45 1-1 1H3c-.26 0-.5-.1-.7-.3-.2-.2-.3-.46-.3-.73V1c0-.55.45-1 1-1s1 .45 1 1v.52A8.94 8.94 0 0 1 9 0a9 9 0 0 1 9 9zm-5.4 6H12c-.55 0-1-.45-1-1s.45-1 1-1h3c.26 0 .5.1.7.3.2.2.3.46.3.73V17c0 .55-.45 1-1 1s-1-.45-1-1v-.52A8.94 8.94 0 0 1 9 18a9 9 0 0 1-9-9c0-.55.45-1 1-1s1 .45 1 1a6.995 6.995 0 0 0 10.6 6z"/></symbol><symbol viewBox="0 0 18 18" id="cdr-reload" xmlns="http://www.w3.org/2000/svg"><path d="M5.4 3A6.995 6.995 0 0 1 16 9c0 3.87-3.13 7-7 7s-7-3.13-7-7c0-.55-.45-1-1-1s-1 .45-1 1a9 9 0 1 0 9-9C7.15 0 5.43.56 4 1.52V1c0-.55-.45-1-1-1S2 .45 2 1v2.97c0 .27.1.53.3.74.2.2.44.3.7.3h3c.55 0 1-.44 1-1 0-.54-.45-1-1-1h-.6z"/></symbol><symbol viewBox="0 0 18 18" id="cdr-service" xmlns="http://www.w3.org/2000/svg"><path d="M9.46 7.2l-2-2c.17-.42.25-.87.25-1.34C7.7 1.73 6 0 3.87 0c-.3 0-.55.25-.55.55 0 .15.06.3.17.4l1.7 1.68-.5 1.87-1.88.5-1.63-1.63a.694.694 0 0 0-.98 0c-.13.13-.2.3-.2.48C0 6 1.73 7.7 3.86 7.7c.47 0 .92-.07 1.34-.23l2 2-.8.77h-.33c-.35-.02-.7.12-.95.37L.38 15.38c-.5.5-.5 1.3 0 1.8l.44.45c.5.5 1.32.5 1.83 0l4.75-4.75c.25-.25.4-.6.38-.95v-.3l.8-.8 6.8 6.8c.5.5 1.32.5 1.83 0l.42-.43c.5-.5.5-1.33 0-1.83l-6.8-6.82 3.7-3.7L16 4.63c.44-.08.82-.38.98-.8l.9-2.23c.07-.2.03-.4-.1-.55l-.83-.82a.524.524 0 0 0-.55-.1l-2.23.9c-.4.15-.7.53-.8.97l-.24 1.52L9.46 7.2z"/></symbol><symbol viewBox="0 0 16 20" id="cdr-share" xmlns="http://www.w3.org/2000/svg"><path d="M9 3.4V14c0 .55-.45 1-1 1s-1-.45-1-1V3.4L4.7 5.7c-.38.4-1.02.4-1.4 0a.967.967 0 0 1 0-1.4l4-4c.18-.2.43-.3.7-.3.3 0 .54.12.73.3l3.98 4c.4.38.4 1.02 0 1.4-.37.4-1 .4-1.4 0L9 3.4zM2 18h12v-8h-2.5c-.55 0-1-.45-1-1s.45-1 1-1H15c.55 0 1 .45 1 1v10c0 .28-.1.53-.3.7-.17.2-.42.3-.7.3H1c-.28 0-.53-.1-.7-.3-.2-.17-.3-.42-.3-.7V9c0-.55.45-1 1-1h3.5c.55 0 1 .45 1 1 0 .56-.45 1-1 1H2v8z"/></symbol><symbol viewBox="0 0 18 18" id="cdr-ship" xmlns="http://www.w3.org/2000/svg"><path d="M.6 3.73L8.6.1c.25-.14.55-.14.8 0l8 3.62c.37.16.6.52.6.9v8.7c0 .4-.23.77-.6.93l-8 3.65c-.25.12-.55.12-.8 0l-8-3.64a.995.995 0 0 1-.6-.92v-8.7c0-.4.23-.75.6-.9zM2 6.2v6.5l6 2.68V8.85L2 6.2zm8 9.18l6-2.65V6.2l-6 2.68v6.5zM3.47 4.65l2.05.92 5.5-2.47L9 2.18 3.47 4.65zm3.5 1.55L9 7.12l5.5-2.47-2.02-.92L6.96 6.2zM3 10l2 .86v2L3 12v-2z"/></symbol><symbol viewBox="0 0 18 18" id="cdr-shopping-bag" xmlns="http://www.w3.org/2000/svg"><path d="M4 5c0-2.76 2.24-5 5-5s5 2.24 5 5h2.07c.52 0 .96.4 1 .92l.93 11c.04.55-.36 1.03-.9 1.08H1c-.55 0-1-.45-1-1v-.08l.92-11c.04-.52.47-.92 1-.92H4zM2.83 7l-.74 9h13.8l-.75-9H14v1c0 .55-.45 1-1 1s-1-.45-1-1V7H6v1c0 .55-.45 1-1 1s-1-.45-1-1V7H2.83zM9 2C7.34 2 6 3.34 6 5h6c0-1.66-1.34-3-3-3z"/></symbol><symbol viewBox="0 0 18 18" id="cdr-shrink" xmlns="http://www.w3.org/2000/svg"><path d="M6 13.42l-4.3 4.3c-.38.38-1.02.38-1.4 0-.4-.4-.4-1.04 0-1.43L4.57 12H2c-.55 0-1-.45-1-1s.45-1 1-1h5c.26 0 .52.1.7.3.2.2.3.46.3.73V16c0 .55-.45 1-1 1s-1-.45-1-1v-2.58zm6-8.84l4.3-4.3c.4-.38 1.02-.38 1.4 0 .4.4.4 1.04 0 1.43L13.43 6H16c.55 0 1 .45 1 1s-.45 1-1 1h-5c-.26 0-.5-.1-.7-.3-.2-.2-.3-.46-.3-.73V2c0-.55.45-1 1-1s1 .45 1 1v2.58z"/></symbol><symbol viewBox="0 0 18 18" id="cdr-sizechart" xmlns="http://www.w3.org/2000/svg"><path d="M11.83 15.36l.93.93 3.53-3.54L5.24 1.7 1.7 5.25l.94.93 1.23-1.24c.3-.3.77-.3 1.06 0 .3.3.3.77 0 1.06L3.7 7.22 4.76 8.3l.53-.54c.28-.3.75-.3 1.05 0 .3.3.3.77 0 1.06l-.53.53.88.9L7.94 9c.3-.3.77-.3 1.06 0 .3.3.3.77 0 1.06L7.76 11.3l.9.88.52-.53c.3-.3.77-.3 1.06 0 .3.3.3.77 0 1.06l-.53.54 1.07 1.06L12 13.07c.3-.3.77-.3 1.06 0 .3.3.3.77 0 1.06l-1.23 1.24zM5.96.3L17.7 12.05c.4.4.4 1.02 0 1.4l-4.24 4.25c-.4.4-1.02.4-1.4 0L.3 5.95c-.4-.4-.4-1.02 0-1.4L4.54.3a.99.99 0 0 1 1.42 0z"/></symbol><symbol viewBox="0 0 20 18" id="cdr-snow" xmlns="http://www.w3.org/2000/svg"><path d="M11.31 9.75h3.28l1.856 1.857a.749.749 0 1 0 1.06-1.06l-.795-.797h2.54a.75.75 0 1 0 0-1.5h-2.5l.76-.76a.749.749 0 1 0-1.06-1.06l-1.82 1.82H11.33l1.64-2.837 2.485-.666a.751.751 0 0 0-.388-1.45l-1.038.28 1.26-2.185a.75.75 0 1 0-1.299-.75L12.71 2.86l-.292-1.09a.749.749 0 1 0-1.447.39l.68 2.536-1.63 2.822-1.66-2.874.666-2.486a.75.75 0 0 0-1.45-.388L7.3 2.807 6.042.623a.75.75 0 0 0-1.299.749L6.02 3.59 4.935 3.3a.75.75 0 0 0-.388 1.448l2.536.68 1.63 2.822h-3.32l-1.82-1.82a.749.749 0 1 0-1.06 1.06l.76.76H.75a.75.75 0 0 0 0 1.5h2.56l-.796.796a.749.749 0 1 0 1.06 1.06L5.43 9.75h3.303l-1.66 2.877-2.538.68a.75.75 0 1 0 .39 1.448l1.086-.29-1.27 2.198a.753.753 0 0 0 .277 1.025.75.75 0 0 0 1.024-.275l1.25-2.165.28 1.037a.75.75 0 0 0 1.45-.388L8.35 13.41l1.67-2.89 1.64 2.84-.68 2.536c-.106.4.132.81.532.92.4.106.81-.132.918-.532l.292-1.087 1.27 2.2a.75.75 0 0 0 1.298-.752l-1.25-2.165 1.038.278a.75.75 0 0 0 .388-1.45l-2.486-.665-1.67-2.893h-.002z"/></symbol><symbol viewBox="0 0 18 18" id="cdr-spyglass" xmlns="http://www.w3.org/2000/svg"><path d="M17.7 16.3c.4.38.4 1.02 0 1.4-.38.4-1.02.4-1.4 0l-4.25-4.24A7.432 7.432 0 0 1 7.5 15C3.36 15 0 11.64 0 7.5 0 3.36 3.36 0 7.5 0 11.64 0 15 3.36 15 7.5c0 1.7-.57 3.3-1.54 4.55l4.25 4.24zM7.5 13c3.04 0 5.5-2.46 5.5-5.5S10.54 2 7.5 2 2 4.46 2 7.5 4.46 13 7.5 13z"/></symbol><symbol viewBox="0 0 18 18" id="cdr-star-100" xmlns="http://www.w3.org/2000/svg"><path d="M9 14.13l-5.26 3.8c-.15.12-.37.1-.5-.07a.4.4 0 0 1-.04-.3l2.02-6.32L.14 7.47c-.15-.12-.2-.34-.07-.5.06-.08.16-.13.27-.13l6.32-.27 2-6.33c.06-.18.26-.28.45-.22.1.03.2.12.23.22l2 6.33 6.33.27c.2 0 .35.17.34.36 0 .1-.06.2-.14.27l-5.08 3.77 2.02 6.3c.05.2-.05.4-.23.45-.1.02-.22 0-.3-.06L9 14.14v-.01z"/></symbol><symbol viewBox="0 0 5 18" id="cdr-star-25" xmlns="http://www.w3.org/2000/svg"><path d="M5 17.06l-1.26.87c-.15.1-.37.1-.5-.07a.4.4 0 0 1-.04-.3L5 12.12v4.95zm0-5.76L.14 7.8c-.14-.1-.2-.33-.07-.47.06-.1.16-.14.27-.14L5 7v4.3z"/></symbol><symbol viewBox="0 0 9 18" id="cdr-star-50" xmlns="http://www.w3.org/2000/svg"><path d="M9 0c-.15 0-.3.1-.33.24l-2 6.33-6.33.27c-.1 0-.2.05-.27.14-.12.15-.08.37.07.5l5.08 3.76-2.02 6.3c-.03.1 0 .23.05.32.12.16.34.2.5.08L9 14.14V0z"/></symbol><symbol viewBox="0 0 13 18" id="cdr-star-75" xmlns="http://www.w3.org/2000/svg"><path d="M13 6.64l-1.66-.07-2-6.33C9.3.14 9.2.04 9.1.02a.34.34 0 0 0-.43.22l-2 6.33-6.33.27c-.1 0-.2.05-.27.14-.1.15-.08.37.07.5l5.08 3.76-2 6.3c-.05.1-.03.23.03.32.12.16.34.2.5.08L9 14.14l4 2.9v-5.1l-.22-.7.22-.16V6.64z"/></symbol><symbol viewBox="0 0 18 18" id="cdr-star-stroke" xmlns="http://www.w3.org/2000/svg"><path d="M9.3 12.5l3 2.17-1.17-3.65c-.06-.2 0-.43.18-.55l3.06-2.27-3.8-.16c-.2 0-.38-.15-.44-.35L9 4.15 7.88 7.7c-.06.2-.24.33-.45.34l-3.8.16 3.06 2.27c.16.12.23.35.17.55L5.7 14.67l3-2.18a.51.51 0 0 1 .6 0zM9 14.12l-5.26 3.8c-.15.12-.37.1-.5-.07a.4.4 0 0 1-.04-.3l2.02-6.32L.14 7.47a.372.372 0 0 1-.07-.5c.06-.08.16-.13.27-.13l6.32-.27 2-6.33a.362.362 0 0 1 .68 0l2 6.33 6.33.27c.2 0 .35.17.34.36 0 .1-.06.2-.14.27l-5.08 3.78 2 6.3a.34.34 0 0 1-.2.44c-.12.02-.23 0-.32-.06L9 14.14z"/></symbol><symbol viewBox="0 0 21 16" id="cdr-twitter" xmlns="http://www.w3.org/2000/svg"><path d="M10 5.05S8.93 2.32 12.1.45c0 0 2.6-1.47 5.08.9 0 0 1.12-.04 2.48-1 0 0 .2.88-1.57 2.3 0 0 .97-.07 2.1-.78 0 0-.22 1.22-2.04 2.1 0 0 .55 9.7-9.2 11.8 0 0-5.14 1.13-8.77-1.63 0 0 3.84.4 5.88-1.7 0 0-2.56.24-3.83-2.7 0 0 1.3.22 1.8-.18 0 0-2.7.02-3.3-3.9 0 0 1.1.54 1.83.44 0 0-3.07-1.83-1.22-5.4 0 0 3.42 4.1 8.63 4.35H10z"/></symbol><symbol viewBox="0 0 16 20" id="cdr-upload" xmlns="http://www.w3.org/2000/svg"><path d="M9 3.4V15c0 .55-.45 1-1 1s-1-.45-1-1V3.4L3.7 6.7c-.38.4-1.02.4-1.4 0a.967.967 0 0 1 0-1.4l5-5c.18-.2.43-.3.7-.3.3 0 .54.12.73.3 3.3 3.33 4.97 5 4.98 5 .4.38.4 1.02 0 1.4-.38.4-1 .4-1.4 0L9 3.4zM2 18h12v-2c0-.55.45-1 1-1s1 .45 1 1v3c0 .28-.1.53-.3.7-.17.2-.42.3-.7.3H1c-.28 0-.53-.1-.7-.3-.2-.17-.3-.42-.3-.7v-3c0-.55.45-1 1-1s1 .45 1 1v2z"/></symbol><symbol viewBox="0 0 20 20" id="cdr-warning-circ-fill" xmlns="http://www.w3.org/2000/svg"><path d="M10 20C4.48 20 0 15.52 0 10S4.48 0 10 0s10 4.48 10 10-4.48 10-10 10zM9.78 4h-.03c-.55.02-1 .48-.97 1.03l.2 6.5c0 .54.45.97 1 .97h.05c.54 0 .98-.43 1-.97l.2-6.5V5c0-.55-.46-1-1-1h-.45zM10 16c.7 0 1.25-.56 1.25-1.25S10.7 13.5 10 13.5s-1.25.56-1.25 1.25S9.3 16 10 16z"/></symbol><symbol viewBox="0 0 20 20" id="cdr-warning-circ-stroke" xmlns="http://www.w3.org/2000/svg"><path d="M10 20C4.48 20 0 15.52 0 10S4.48 0 10 0s10 4.48 10 10-4.48 10-10 10zm0-2c4.42 0 8-3.58 8-8s-3.58-8-8-8-8 3.58-8 8 3.58 8 8 8zM9.78 4h.44c.55 0 1 .45 1 1v.03l-.2 6.5c0 .54-.45.97-1 .97h-.05c-.54 0-.98-.43-1-.97l-.2-6.5c0-.55.43-1 .98-1.03h.03zM10 16c-.7 0-1.25-.56-1.25-1.25S9.3 13.5 10 13.5s1.25.56 1.25 1.25S10.7 16 10 16z"/></symbol><symbol viewBox="0 0 18 18" id="cdr-warning-tri" xmlns="http://www.w3.org/2000/svg"><path d="M9.894.558l8.002 15.995A.998.998 0 0 1 16.999 18H1a1 1 0 0 1-.894-1.447l8-15.995a.998.998 0 0 1 1.788.003V.557zM8.78 4.5h-.03a1 1 0 0 0-.97 1.03l.19 6.5c.017.54.46.97 1 .97h.06c.54 0 .983-.43 1-.97l.19-6.5V5.5a1 1 0 0 0-1-1h-.44zm.22 12A1.25 1.25 0 1 0 9 14a1.25 1.25 0 0 0 0 2.5z"/></symbol><symbol viewBox="0 0 20 20" id="cdr-x-circ-fill" xmlns="http://www.w3.org/2000/svg"><path d="M10 20C4.48 20 0 15.52 0 10S4.48 0 10 0s10 4.48 10 10-4.48 10-10 10zm1.4-10l3.3-3.3c.4-.38.4-1 0-1.4-.4-.4-1.02-.4-1.4 0L10 8.6 6.7 5.3a.967.967 0 0 0-1.4 0c-.4.4-.4 1.02 0 1.4L8.58 10l-3.3 3.3c-.38.38-.38 1.02 0 1.4.4.4 1.04.4 1.43 0l3.3-3.28 3.3 3.3c.38.38 1 .38 1.4 0 .4-.4.4-1.04 0-1.43L11.4 10z"/></symbol><symbol viewBox="0 0 20 20" id="cdr-x-circ-stroke" xmlns="http://www.w3.org/2000/svg"><path d="M10 20C4.48 20 0 15.52 0 10S4.48 0 10 0s10 4.48 10 10-4.48 10-10 10zm0-2c4.42 0 8-3.58 8-8s-3.58-8-8-8-8 3.58-8 8 3.58 8 8 8zm1.4-8l3.3-3.3c.4-.38.4-1.02 0-1.4-.4-.4-1.02-.4-1.4 0L10 8.6 6.7 5.3a.967.967 0 0 0-1.4 0c-.4.38-.4 1.02 0 1.4L8.58 10l-3.3 3.3c-.38.38-.38 1 0 1.4.4.4 1.04.4 1.43 0l3.3-3.28 3.3 3.28c.38.4 1 .4 1.4 0 .4-.4.4-1.02 0-1.4L11.4 10z"/></symbol><symbol viewBox="0 0 14 14" id="cdr-x-lg" xmlns="http://www.w3.org/2000/svg"><path d="M8.42 7l5.3-5.3c.38-.38.38-1 0-1.4a.99.99 0 0 0-1.42 0L7 5.6 1.7.3C1.32-.1.7-.1.3.3c-.4.4-.4 1.02 0 1.4L5.6 7 .3 12.3c-.4.4-.4 1.02 0 1.4.38.4 1.02.4 1.4 0L7 8.42l5.3 5.3c.38.38 1.02.38 1.4 0 .4-.4.4-1.03 0-1.42L8.43 7h-.01z"/></symbol><symbol viewBox="0 0 10 10" id="cdr-x-sm" xmlns="http://www.w3.org/2000/svg"><path d="M6.4 5l3.3-3.3c.4-.38.4-1 0-1.4-.4-.4-1.02-.4-1.4 0L5 3.6 1.7.3A.967.967 0 0 0 .3.3c-.4.4-.4 1.02 0 1.4L3.58 5 .28 8.3c-.38.38-.38 1.02 0 1.4.4.4 1.04.4 1.43 0L5 6.42l3.3 3.3c.4.38 1 .38 1.4 0 .4-.4.4-1.04 0-1.43L6.4 5z"/></symbol><symbol viewBox="0 0 20 14" id="cdr-youtube" xmlns="http://www.w3.org/2000/svg"><path d="M2.822.225S5.267 0 9.985 0c4.717 0 6.956.225 6.956.225s1.718.06 2.39 1.336c0 0 .67.927.67 5.44 0 0 .04 2.795-.278 4.28-.317 1.486-1.02 1.92-1.02 1.92s-.45.434-1.442.55c-.993.12-4.213.25-7.273.25 0 0-5.603-.002-7.49-.312-1.886-.31-2.152-2.06-2.152-2.06s-.772-4.428 0-9.25c0 0 .224-1.926 2.48-2.152h-.003zM13.394 6.89l-5.47-2.746V9.64l5.47-2.748z"/></symbol><symbol viewBox="0 0 18 18" id="cdr-zoom-in" xmlns="http://www.w3.org/2000/svg"><path d="M17.7 16.3c.4.38.4 1.02 0 1.4-.38.4-1 .4-1.4 0l-4.25-4.24A7.432 7.432 0 0 1 7.5 15C3.36 15 0 11.64 0 7.5 0 3.36 3.36 0 7.5 0 11.64 0 15 3.36 15 7.5c0 1.7-.57 3.3-1.54 4.55l4.25 4.24zM7.5 13c3.04 0 5.5-2.46 5.5-5.5S10.54 2 7.5 2 2 4.46 2 7.5 4.46 13 7.5 13zm-.75-6.25v-2.5c0-.4.34-.75.75-.75.4 0 .75.34.75.75v2.5h2.5c.4 0 .75.34.75.75 0 .4-.34.75-.75.75h-2.5v2.5c0 .4-.34.75-.75.75-.4 0-.75-.34-.75-.75v-2.5h-2.5c-.4 0-.75-.34-.75-.75 0-.4.34-.75.75-.75h2.5z"/></symbol><symbol viewBox="0 0 18 18" id="cdr-zoom-out" xmlns="http://www.w3.org/2000/svg"><path d="M17.7 16.3c.4.4.4 1.02 0 1.4-.38.4-1.02.4-1.4 0l-4.25-4.24A7.432 7.432 0 0 1 7.5 15C3.36 15 0 11.64 0 7.5 0 3.36 3.36 0 7.5 0 11.64 0 15 3.36 15 7.5c0 1.7-.57 3.3-1.54 4.55l4.25 4.25zM7.5 13c3.04 0 5.5-2.46 5.5-5.5S10.54 2 7.5 2 2 4.46 2 7.5 4.46 13 7.5 13zM4.25 6.75h6.5c.4 0 .75.34.75.75 0 .4-.34.75-.75.75h-6.5c-.4 0-.75-.34-.75-.75 0-.4.34-.75.75-.75z"/></symbol><symbol viewBox="0 0 24 24" id="check-sm" xmlns="http://www.w3.org/2000/svg"><path d="M16.77 8.64c.35-.42.3-1.05-.12-1.4a.986.986 0 0 0-1.4.12l-5.96 7.08-1.53-1.82c-.36-.42-1-.47-1.4-.12-.44.36-.5 1-.14 1.4l2.23 2.67c.18.26.48.43.82.43.3 0 .56-.13.75-.33l6.74-8.03z"/></symbol></svg>