<svg xmlns="http://www.w3.org/2000/svg" viewBox="0 0 24 24">
  <title>
    size-chart
  </title>
  <path d="M14.8284273 18.3639607l.9263105.9263105 3.5355339-3.5355339L8.24526317 4.70972879 4.70972927 8.2452627l.92630984.92630984 1.23743687-1.23743687c.29289321-.29289322.76776695-.29289322 1.06066017 0 .29289322.29289322.29289322.76776695 0 1.06066017L6.69669928 10.2322327l1.06066017 1.0606602.53033009-.5303301c.29289322-.2928932.76776695-.2928932 1.06066017 0 .29289322.2928932.29289322.7677669 0 1.0606602l-.53033009.5303301.88388348.8838834 1.2374369-1.2374368c.2928932-.2928933.7677669-.2928933 1.0606601 0 .2928933.2928932.2928933.7677669 0 1.0606601l-1.2374368 1.2374369.8838834.8838835.5303301-.5303301c.2928933-.2928932.767767-.2928932 1.0606602 0 .2928932.2928932.2928932.7677669 0 1.0606602l-.5303301.53033 1.0606602 1.0606602 1.2374369-1.2374368c.2928932-.2928933.7677669-.2928933 1.0606601 0 .2928933.2928932.2928933.7677669 0 1.0606601l-1.2374368 1.2374369zM8.96152301 3.29551523L20.7136383 15.0476305c.3905243.3905243.3905243 1.0236893 0 1.4142136l-4.2517937 4.2430018c-.3905243.3905243-1.0236893.3905243-1.4142136 0L3.2955157 8.95236948c-.39052429-.3905243-.39052429-1.02368927 0-1.41421357l4.24264069-4.24264068c.39052429-.39052429 1.03284233-.39052429 1.42336662 0z"/>
</svg>