<svg xmlns="http://www.w3.org/2000/svg" viewBox="0 0 32 32" enable-background="new 0 0 32 32"><path  d="m16 0c-8.838 0-16 7.163-16 15.999 0 8.838 7.163 16 16 16 8.835 0 15.999-7.163 15.999-16 0-8.836-7.165-15.999-15.999-15.999m1.493 5.776c1.56 0 2.02.905 2.02 1.94 0 1.292-1.033 2.487-2.798 2.487-1.477 0-2.18-.742-2.137-1.97 0-1.035.865-2.457 2.917-2.457m-3.996 19.806c-1.067 0-1.845-.648-1.1-3.49l1.222-5.04c.212-.807.247-1.13 0-1.13-.318 0-1.703.557-2.52 1.107l-.532-.872c2.592-2.165 5.571-3.435 6.846-3.435 1.067 0 1.243 1.26.712 3.2l-1.4 5.3c-.248.937-.142 1.26.107 1.26.32 0 1.367-.387 2.397-1.198l.603.81c-2.522 2.52-5.27 3.49-6.335 3.49"/></svg>