<svg xmlns="http://www.w3.org/2000/svg" viewBox="0 0 32 32" enable-background="new 0 0 32 32"><path  d="m15.786.0001c-8.836.118-15.902 7.378-15.785 16.214.118 8.832 7.377 15.901 16.213 15.783 8.834-.119 15.902-7.378 15.784-16.214-.118-8.833-7.378-15.901-16.212-15.783m-.047 25.738l-.088-.0001c-1.361-.04-2.32-1.043-2.281-2.383.038-1.318 1.02-2.274 2.336-2.274l.079.0001c1.399.041 2.347 1.034 2.308 2.413-.039 1.321-1.01 2.245-2.353 2.245m5.724-11.36c-.32.454-1.024 1.019-1.91 1.71l-.976.674c-.536.417-.859.809-.981 1.194-.096.304-.143.384-.151 1l-.0001.157h-3.728l.011-.316c.046-1.297.077-2.059.615-2.69.843-.99 2.703-2.188 2.782-2.238.266-.201.491-.429.658-.673.391-.539.565-.964.565-1.381 0-.579-.172-1.115-.512-1.592-.327-.46-.947-.693-1.844-.693-.89 0-1.499.282-1.864.862-.375.596-.565 1.221-.565 1.861v.159h-3.844l.007-.166c.099-2.354.94-4.05 2.497-5.04.979-.629 2.196-.949 3.617-.949 1.859 0 3.429.452 4.665 1.343 1.252.903 1.887 2.255 1.887 4.02 0 .987-.312 1.914-.927 2.756"/></svg>