<svg xmlns="http://www.w3.org/2000/svg" viewBox="0 0 32 32" enable-background="new 0 0 32 32"><path  d="m10.659 11.3c-.749.461 2.01 7.107 2.677 8.189.586.953 1.831 1.243 2.778.66.952-.59 1.248-1.833.662-2.781-.665-1.086-5.369-6.53-6.117-6.068m-.561-7.276c1.555-.541 3.22-.841 4.957-.841s3.403.3 4.957.841c.551.191 1.282-.193.958-1.024-.236-.603-.464-1.193-.556-1.432-.219-.568-1.01-1.037-1.347-1.114-1.293-.291-2.634-.454-4.01-.454s-2.719.163-4.01.454c-.342.077-1.126.546-1.345 1.114-.092.24-.322.829-.556 1.432-.323.831.407 1.216.958 1.024m20.2 1.313c-.322-.385-.663-.762-1.027-1.126-.362-.364-.739-.704-1.122-1.027-.256-.216-1.01-.392-1.488.085-.476.477-2.761 2.759-2.761 2.759.673.482 1.329 1.014 1.935 1.618.606.605 1.134 1.26 1.618 1.935 0 0 2.283-2.282 2.759-2.759.479-.479.303-1.231.085-1.486m-15.242-.479c-7.497 0-13.572 6.075-13.572 13.57 0 7.497 6.075 13.572 13.572 13.572 7.494 0 13.57-6.075 13.57-13.572 0-7.494-6.076-13.57-13.57-13.57m0 23.791c-5.642 0-10.219-4.575-10.219-10.219 0-5.644 4.575-10.219 10.219-10.219 5.644 0 10.221 4.575 10.221 10.219 0 5.642-4.577 10.219-10.221 10.219"/></svg>