<svg xmlns="http://www.w3.org/2000/svg" viewBox="0 0 32 32" enable-background="new 0 0 32 32"><g ><path d="m16 0c-8.837 0-16 7.163-16 16 0 8.836 7.163 16 16 16 8.837 0 16-7.164 16-16 0-8.837-7.163-16-16-16m0 30.933c-8.234 0-14.933-6.699-14.933-14.933s6.699-14.933 14.933-14.933 14.933 6.699 14.933 14.933-6.699 14.933-14.933 14.933"/><path d="m21.831 15.56l-7.975-4.819c-.159-.097-.357-.099-.519-.008-.162.091-.261.262-.261.448v9.638c0 .185.1.357.261.448.078.044.166.066.253.066.092 0 .184-.024.266-.074l7.975-4.819c.154-.093.248-.259.248-.44s-.094-.347-.248-.44m-7.727 4.348v-7.816l6.467 3.908-6.467 3.908"/></g></svg>