<svg xmlns="http://www.w3.org/2000/svg" viewBox="0 0 32 32"><path d="M10.7 11.3c-.8.5 2 7 2.6 8.2.6 1 2 1.2 2.8.6 1 0 2-1 1-2 0-1-5-6-6-6m-1-8h5s4 .7 5 1 2 0 1-1V2c0-.7-1-1-1-1-1-.7-2-.7-4-.7s-2 .3-4 .7c0 0-1 0-1 1 0 0 0 1-.3 1 0 1 .7 1 1 1M32 5l-1-1-1-1c-.4 0-1-.8-1.6 0l-4 3 2 1.2 1.6 2 2.6-2.8c.5-.5.3-1.2 0-1.5m-15-.6C7.6 5 1.3 11 1.3 18c0 8 6 14 13.7 14s13.6-6 13.6-13.6C28.6 11 22.6 5 15 5m0 23.6C9.5 28.6 5 24 5 18.4 4.8 12.8 9.4 8.2 15 8.2c5.7 0 10.3 4.6 10.3 10.2 0 5.7-4.6 10.2-10.2 10.2"/></svg>