<svg xmlns="http://www.w3.org/2000/svg" viewBox="0 0 20 20"><path fill="#222" d="M16.9 14.2c-.6 0-1.1.2-1.6.5-.1.1-.3.1-.4.1-.1 0-.2 0-.3-.1l-7.9-4.1c-.2-.1-.4-.4-.4-.7 0-.3.1-.5.4-.6l8.1-4.1c.1 0 .2-.1.3-.1.1 0 .3 0 .4.1.5.3 1 .5 1.6.5 1.6 0 2.9-1.3 2.9-2.9S18.5 0 16.9 0 14.1 1.2 14 2.8c0 .3-.2.5-.4.7L5.4 7.7c-.1 0-.2.1-.3.1-.1 0-.2 0-.3-.1-.5-.4-1.1-.6-1.7-.6C1.5 7.1.2 8.4.2 10s1.3 2.9 2.9 2.9c.6 0 1.2-.2 1.7-.5.1-.1.2-.1.4-.1.1 0 .2 0 .3.1l8.1 4.2c.3.1.4.4.4.7.1 1.5 1.3 2.8 2.9 2.8 1.6 0 2.9-1.3 2.9-2.9s-1.3-3-2.9-3z"/></svg>