<svg xmlns="http://www.w3.org/2000/svg" viewBox="0 0 32 32"><path d="M28.24 24.08c0-1.87-1.52-3.4-3.4-3.4s-3.38 1.53-3.38 3.4 1.52 3.4 3.4 3.4 3.38-1.53 3.38-3.4M2.12 20h1.62l.2-.13c.33-.23 1.65-1.02 3.46-.9 2.06.16 3.82 2.07 4.08 4.46l.07.65h8.24l.06-.65c.2-1.64 1.17-3.08 2.64-3.86l.4-.2V6.64c0-1.17-.95-2.12-2.12-2.12H2.12C.95 4.52 0 5.48 0 6.65v11.23C0 19.05.95 20 2.12 20M1.47 6.65c0-.36.3-.65.65-.65h18.66c.36 0 .65.3.65.65V18.5c-1.5.92-2.54 2.4-2.9 4.1h-5.7c-.56-2.76-2.76-4.9-5.32-5.1-2-.14-3.55.64-4.2 1.03H2.13c-.36 0-.65-.3-.65-.65V6.65"/><path d="M32 22.12V14.8l-1.13-2.24c-.5-1-1.83-1.83-2.95-1.83h-4.08V19c.33-.07.67-.1 1.02-.1 2.8 0 5.1 2.45 5.1 5.26 1.13 0 2.04-.9 2.04-2.04m-6.12-6.3v-3.5h2.04c.56 0 1.22.4 1.47.92l1.14 2.6h-4.67m-15.75 8.24c0-1.87-1.52-3.4-3.4-3.4s-3.37 1.53-3.37 3.4 1.52 3.4 3.38 3.4 3.4-1.53 3.4-3.4"/></svg>