<svg xmlns="http://www.w3.org/2000/svg" viewBox="0 0 32 32"><path d="M17.7 11h-3.3V7.4c0-.4-.3-.7-.7-.7h-2c-.5 0-.8.3-.8.7V11H7.3c-.4 0-.7.2-.7.6v2c0 .4.2.7.6.7H11v3.4c0 .4.2.7.6.7h2c.5 0 .8-.3.8-.7v-3.4h3.3c.4 0 .7-.3.7-.7v-2c0-.4-.3-.7-.7-.7"/><path d="M31.4 27.6l-8-8v-.3c1.3-2 2-4.2 2-6.5 0-1.6-.5-3.3-1-5-.8-1.4-1.7-2.8-3-4-1-1-2.5-2-4-2.8-1.6-.6-3.3-1-5-1C9 0 6 1.3 3.6 3.7 1.3 6 0 9 0 12.5c0 1.6.4 3.3 1 5 .7 1.4 1.6 2.8 2.8 4 1.2 1.2 2.6 2 4 2.8 1.7.6 3.4 1 5 1 2.2 0 4.4-.6 6.3-1.7h.6l8 8c.3.2.7.4 1.2.4.4 0 .8-.2 1-.5l2-2c.8-.7 0-1.5-.2-2M13 22c-2.6 0-5-1-7-2.7-1.7-1.8-2.8-4.3-2.8-6.7 0-5 4-9.3 9.3-9.3 2.4 0 4.8 1 6.7 3 1.8 1.8 3 4.2 3 6.7 0 5-4.2 9-9.4 9"/></svg>