<svg xmlns="http://www.w3.org/2000/svg" viewBox="0 0 32 32"><path d="M15.8 0C6.8 0-.2 7.4 0 16.2 0 25 7.4 32.2 16.2 32c8.8 0 16-7.4 15.8-16.2C32 7 24.6-.2 15.8 0m0 25.7c-1.5 0-2.5-1-2.4-2.3 0-1.4 1-2.3 2.3-2.3 1.5 0 2.4 1 2.4 2.6 0 1.3-1 2.2-2.2 2.2m5.8-11.3c-.4.4-1 1-2 1.7l-1 .8c-.5.4-.8.8-1 1.2v1h-3.8V19c0-1.3 0-2 .6-2.7 1-1 2.7-2 2.8-2l.8-.8c.4-.5.5-1 .5-1.4 0-.5 0-1-.5-1.5-.3-.4-1-.7-1.8-.7-1 0-1.5.3-2 1-.2.5-.4 1-.4 1.8h-4c.2-2.4 1-4 2.6-5 1-.7 2.2-1 3.6-1 2 0 3.5.4 4.7 1.3 1.3 1 2 2.2 2 4 0 1-.4 2-1 2.7"/></svg>