<svg xmlns="http://www.w3.org/2000/svg" viewBox="0 0 32 32"><path d="M2.3 25.2v-22c0-.4.3-.7.6-.7h17s.2.3.2.7v5.3h3v-7C23.2.8 22.8 0 22 0H1.5C.5 0 0 .7 0 1.6V28c0 1 .7 1.7 1.6 1.7h14v-4H2.8c-.4 0-.7-.2-.7-.5M11 1h1.6c.2 0 .4 0 .4.2s-.2.4-.4.4H11c-.3 0-.5-.2-.5-.4s.2-.3.4-.3m.4 25.2c.7 0 1.2.5 1.2 1.2 0 .6-.6 1-1.3 1-.6 0-1-.4-1-1 0-.7.4-1.2 1-1.2"/><path d="M31 10H18.3c-.6 0-1 .4-1 1v20c0 .7.4 1.2 1 1.2H31c.6 0 1-.5 1-1.2V11c0-.6-.5-1-1-1m-7.2.8h1.7c.2 0 .3 0 .3.3s0 .8-.3.8h-1.7c-.2 0-.4-.2-.4-.4s.2-.2.4-.2m.8 20.6c-.6 0-1-.5-1-1.2 0-.5.4-1 1-1 .7 0 1.2.5 1.2 1 0 .8-.5 1.3-1.2 1.3m5-3.7c0 .4-.2.6-.4.6h-9c-.3 0-.5-.3-.5-.6V13c0-.3.2-.5.4-.5h9.5c.2 0 .3.2.3.4v15"/></svg>