<svg xmlns="http://www.w3.org/2000/svg" viewBox="0 0 32 32" enable-background="new 0 0 32 32"><g ><path d="m31.992 1.368c0-.377-.306-.683-.684-.683l-10.846.008c-.277 0-.526.167-.631.423-.106.256-.047.55.148.746l3.896 3.89-9.707 9.181c-.824.779-.86 2.078-.081 2.902.404.427.947.642 1.492.642.506 0 1.013-.186 1.41-.561l9.792-9.263 4.053 4.047c.131.13.306.2.484.2.088 0 .178-.017.262-.052.257-.106.422-.356.422-.633l-.008-10.846"/><path d="m5.999 31.32c-3.308 0-5.999-2.692-5.999-5.999v-14.777c0-3.308 2.691-5.999 5.999-5.999h9.578c1.045 0 1.895.85 1.895 1.895 0 1.044-.85 1.894-1.895 1.894h-9.578c-1.219 0-2.21.992-2.21 2.21v14.777c0 1.219.992 2.209 2.21 2.209h16.15c1.219 0 2.209-.991 2.209-2.209v-8.21c0-1.044.85-1.894 1.895-1.894 1.045 0 1.895.85 1.895 1.894v8.21c0 3.307-2.692 5.999-5.999 5.999h-16.15"/></g></svg>