<svg xmlns="http://www.w3.org/2000/svg" viewBox="0 0 32 32" enable-background="new 0 0 32 32"><g ><path d="m1.628 5.605h28.744c.9 0 1.628-.727 1.628-1.626 0-.896-.728-1.624-1.628-1.624h-28.744c-.899 0-1.627.728-1.627 1.624 0 .899.727 1.626 1.627 1.626"/><path d="m30.372 14.375h-28.743c-.901 0-1.629.726-1.629 1.624 0 .898.728 1.624 1.629 1.624h28.743c.9 0 1.628-.727 1.628-1.624 0-.898-.728-1.624-1.628-1.624"/><path d="m30.372 26.395h-28.743c-.901 0-1.629.727-1.629 1.625 0 .897.728 1.625 1.629 1.625h28.743c.9 0 1.628-.728 1.628-1.625 0-.898-.728-1.625-1.628-1.625"/></g></svg>