<svg xmlns="http://www.w3.org/2000/svg" viewBox="0 0 32 32" enable-background="new 0 0 32 32"><path  d="m31.522 29.21l-6.78-6.78c1.864-2.361 2.981-5.338 2.981-8.572 0-7.643-6.218-13.861-13.861-13.861s-13.861 6.218-13.861 13.861c0 7.643 6.218 13.861 13.861 13.861 3.234 0 6.211-1.117 8.572-2.98l6.78 6.78c.319.319.736.478 1.154.478s.835-.159 1.154-.478c.637-.637.637-1.671 0-2.309m-28.26-15.352c0-5.843 4.754-10.596 10.596-10.596s10.596 4.753 10.596 10.596-4.754 10.596-10.596 10.596-10.596-4.754-10.596-10.596"/></svg>