<svg xmlns="http://www.w3.org/2000/svg" viewBox="0 0 32 32" enable-background="new 0 0 32 32"><path  d="m8.93 31.797c.029.219.31.271.437.106.181-.238 2.523-3.127 3.319-6.01.225-.819 1.292-5.05 1.292-5.05.64 1.221 2.506 2.292 4.492 2.292 5.908 0 9.916-5.385 9.916-12.595 0-5.452-4.619-10.531-11.637-10.531-8.731 0-13.13 6.262-13.13 11.483 0 3.16 1.198 5.973 3.762 7.02.423.173.8.006.921-.458.085-.323.285-1.135.377-1.477.121-.46.075-.621-.265-1.023-.742-.873-1.215-2-1.215-3.606 0-4.644 3.477-8.802 9.05-8.802 4.935 0 7.648 3.02 7.648 7.04 0 5.3-2.346 9.773-5.825 9.773-1.925 0-3.364-1.59-2.904-3.542.554-2.327 1.625-4.839 1.625-6.521 0-1.504-.808-2.76-2.479-2.76-1.967 0-3.546 2.035-3.546 4.758 0 1.735.588 2.908.588 2.908s-2.01 8.523-2.365 10.02c-.702 2.973-.106 6.616-.056 6.983"/></svg>