<svg xmlns="http://www.w3.org/2000/svg" viewBox="0 0 32 32" enable-background="new 0 0 32 32"><g fill="#231f20"><circle cx="26.22" cy="29.933" r="2.067"/><circle cx="12.07" cy="29.933" r="2.067"/><path d="m31.737 8.313c-.26-.357-.675-.568-1.118-.568h-22.08l-.791-2.336c-.19-.56-.716-.936-1.308-.936h-5.063c-.763 0-1.381.616-1.381 1.378s.617 1.378 1.381 1.378h4.072l5.336 15.735c.19.56.716.936 1.308.936h14.15c.597 0 1.127-.383 1.313-.951l4.372-13.399c.136-.42.063-.879-.195-1.236m-6.492 12.832h-12.158l-3.609-10.644h19.24l-3.473 10.644"/></g></svg>