<svg xmlns="http://www.w3.org/2000/svg" viewBox="0 0 32 32"><path d="M28.6 32c-.5 0-1-.2-1.2-.5l-8-8H19c-1.8 1.2-4 1.8-6.2 1.8-1.6 0-3.3-.4-5-1-1.4-.7-2.8-1.7-4-3-1.2-1-2-2.4-2.8-4-.6-1.5-1-3.2-1-5 0-3 1.3-6.3 3.6-8.6C6 1.3 9 0 12.4 0c1.7 0 3.4.3 5 1 1.5.7 3 1.6 4 2.8 1.2 1.2 2.2 2.6 3 4 .5 1.7 1 3.4 1 5 0 2.3-.7 4.6-2 6.5v.2l8 8c.3.4 1 1.3.3 2l-2 2c-.3.3-.7.5-1 .5M12.3 3.2c-5 0-9.2 4-9.2 9.2 0 2.5 1 5 3 6.8 1.8 1.8 4.3 3 6.7 3 5 0 9.3-4.3 9.3-9.4 0-2.4-1-5-2.8-6.7-2-1.7-4.3-2.7-6.8-2.7"/></svg>