<svg xmlns="http://www.w3.org/2000/svg" viewBox="0 0 32 32" enable-background="new 0 0 32 32"><path  d="m28.574 31.999c-.427 0-.828-.166-1.13-.467l-8.08-8.09-.251.147c-1.9 1.111-4.067 1.698-6.268 1.698-1.675 0-3.325-.349-4.903-1.038-1.521-.664-2.899-1.608-4.097-2.806-1.198-1.198-2.142-2.576-2.806-4.097-.689-1.578-1.038-3.227-1.038-4.903 0-3.325 1.294-6.451 3.644-8.802 2.35-2.351 5.475-3.646 8.8-3.646 1.68 0 3.33.349 4.908 1.038 1.521.664 2.9 1.608 4.098 2.805 1.198 1.198 2.142 2.576 2.806 4.097.689 1.578 1.038 3.228 1.038 4.903 0 2.287-.625 4.52-1.807 6.459l-.154.253 8.04 8.04c.339.339 1.046 1.211.28 1.978l-1.955 1.955c-.301.301-.701.466-1.128.466m-16.13-28.807c-5.103 0-9.254 4.152-9.254 9.256 0 2.436 1.06 4.894 2.908 6.742 1.848 1.849 4.305 2.909 6.742 2.91 5.104 0 9.257-4.152 9.257-9.256 0-2.438-1.06-4.896-2.909-6.744-1.848-1.848-4.306-2.908-6.744-2.908"/></svg>