<svg xmlns="http://www.w3.org/2000/svg" viewBox="0 0 32 32" enable-background="new 0 0 32 32"><path  d="m32 16.01c-.001-.312-.068-.556-.394-.876l-10.241-9.541c-.418-.385-1.051-.344-1.418.093-.367.439-.327 1.11.088 1.497l8.417 7.841h-4.681l-10.123-9.431c-.418-.385-1.051-.344-1.418.093-.367.439-.327 1.11.088 1.497l8.417 7.841h-19.73c-.555 0-1 .474-1 1.06 0 .586.449 1.06 1 1.06h19.539l-8.225 7.663c-.416.387-.455 1.058-.088 1.497.198.236.475.358.753.358.237 0 .473-.087.665-.265l9.932-9.253h4.681l-8.225 7.663c-.416.387-.455 1.058-.088 1.497.198.236.475.358.753.358.237 0 .473-.087.665-.265l10.02-9.336c.284-.284.628-.632.614-1.052"/></svg>