<svg xmlns="http://www.w3.org/2000/svg" viewBox="0 0 32 32" enable-background="new 0 0 32 32"><path  d="m1.056 7.619c.868.467 12.886 6.922 13.333 7.162.448.24 1.027.356 1.611.356.584 0 1.164-.116 1.611-.356.447-.24 12.465-6.696 13.333-7.162.868-.466 1.69-1.93.095-1.93h-30.08c-1.594 0-.773 1.464.095 1.93m30.26 3.556c-.986.515-13.1 6.847-13.701 7.162-.604.315-1.027.356-1.611.356-.584 0-1.01-.041-1.611-.356-.604-.315-12.714-6.648-13.701-7.162-.694-.362-.688.062-.688.39 0 .328 0 13.04 0 13.04 0 .745.993 1.705 1.763 1.705h28.474c.77 0 1.763-.96 1.763-1.705 0 0 0-12.714 0-13.04 0-.328.007-.752-.688-.39"/></svg>