<svg xmlns="http://www.w3.org/2000/svg" viewBox="0 0 32 32" enable-background="new 0 0 32 32"><path  d="m21.443 16.306c2.206-1.656 3.642-4.281 3.642-7.242 0-4.999-4.076-9.06-9.09-9.06s-9.09 4.066-9.09 9.06c0 2.961 1.436 5.586 3.642 7.242-4.454 2.187-7.557 6.955-7.557 12.489v3.205h3.212 19.576 3.212v-3.205c0-5.534-3.103-10.302-7.557-12.489m-5.443-13.1c3.244 0 5.873 2.624 5.873 5.86 0 3.237-2.63 5.861-5.873 5.861s-5.873-2.624-5.873-5.861c0-3.236 2.63-5.86 5.873-5.86m-9.788 25.591c0-5.836 4.382-10.567 9.788-10.567s9.788 4.731 9.788 10.567h-19.576"/></svg>