<svg xmlns="http://www.w3.org/2000/svg" viewBox="0 0 32 32"><path d="M25.82 0H6.18C2.78 0 0 2.77 0 6.18v19.64C0 29.22 2.77 32 6.18 32h19.64c3.4 0 6.18-2.77 6.18-6.18V6.18C32 2.78 29.23 0 25.82 0m1.77 3.7h.7v5.4l-5.4.03-.07-5.42h4.72m-16.16 9c1.02-1.4 2.7-2.32 4.57-2.32s3.53.93 4.55 2.35c.67.93 1.07 2.07 1.07 3.3 0 3.1-2.54 5.62-5.64 5.62s-5.63-2.5-5.63-5.6c0-1.22.4-2.35 1.06-3.28m17.44 13.1c0 1.7-1.37 3.07-3.07 3.07H6.2c-1.7 0-3.06-1.4-3.06-3.1V12.7H7.9c-.42 1-.65 2.13-.65 3.3 0 4.82 3.92 8.74 8.75 8.74 4.82 0 8.75-3.92 8.75-8.75 0-1.2-.23-2.3-.65-3.3h4.78v13.1"/></svg>