<svg xmlns="http://www.w3.org/2000/svg" viewBox="0 0 32 32"><path d="M8.93 31.8c.03.22.3.27.44.1.18-.23 2.52-3.12 3.32-6l1.26-5.06c.64 1.22 2.5 2.3 4.5 2.3 5.9 0 9.9-5.4 9.9-12.6C28.4 5.1 23.8 0 16.76 0 8 0 3.6 6.28 3.6 11.5c0 3.15 1.2 5.96 3.76 7 .42.18.8.02.92-.45.1-.32.3-1.13.38-1.47.12-.46.07-.62-.27-1.03-.73-.87-1.2-2-1.2-3.6 0-4.65 3.5-8.8 9.05-8.8 4.93 0 7.65 3.02 7.65 7.04 0 5.3-2.34 9.74-5.82 9.74-1.92 0-3.36-1.6-2.9-3.54.55-2.32 1.62-4.83 1.62-6.5 0-1.5-.82-2.77-2.5-2.77-1.95 0-3.53 2.03-3.53 4.75 0 1.73.6 2.9.6 2.9l-2.4 10.04c-.7 2.98-.1 6.62-.06 7"/></svg>