<svg version="1.1" id="Layer_1" xmlns="http://www.w3.org/2000/svg" xmlns:xlink="http://www.w3.org/1999/xlink" x="0px" y="0px" viewBox="0 0 34.5 34.5" enable-background="new 0 0 34.5 34.5" xml:space="preserve"><g><path d="M17.2,34.5C7.7,34.5,0,26.8,0,17.2C0,7.7,7.7,0,17.2,0s17.2,7.7,17.2,17.2C34.5,26.8,26.8,34.5,17.2,34.5z M17.2,2.5C9.1,2.5,2.5,9.1,2.5,17.2C2.5,25.4,9.1,32,17.2,32S32,25.4,32,17.2C32,9.1,25.4,2.5,17.2,2.5z"/><path d="M25.1,15.7h-6.3V9.4c0-0.9-0.7-1.6-1.6-1.6c-0.9,0-1.6,0.7-1.6,1.6v6.3H9.4c-0.9,0-1.6,0.7-1.6,1.6 s0.7,1.6,1.6,1.6h6.3v6.3c0,0.9,0.7,1.6,1.6,1.6c0.9,0,1.6-0.7,1.6-1.6v-6.3h6.3c0.9,0,1.6-0.7,1.6-1.6S26,15.7,25.1,15.7z"/></g></svg>