<svg xmlns="http://www.w3.org/2000/svg" viewBox="0 0 24 24" style="enable-background:new 0 0 24 24;version:1"><path d="M5.992 7.99c0.663 0 1.287-0.258 1.755-0.726C7.891 7.122 7.929 6.907 7.851 6.72 7.774 6.533 7.586 6.412 7.384 6.412c-0.5 0-0.906-0.406-0.906-0.906 0-0.499 0.405-0.905 0.914-0.905 0.002-0.001 0.009 0 0.012 0 0.274 0.003 0.51-0.22 0.51-0.5 0-0.185-0.1-0.346-0.25-0.433C7.207 3.25 6.617 3.021 5.992 3.021c-1.37 0-2.484 1.114-2.484 2.484S4.622 7.99 5.992 7.99zM5.992 4.021c0.062 0 0.124 0.004 0.184 0.011 -0.426 0.35-0.698 0.88-0.698 1.473s0.272 1.124 0.7 1.473c-0.858 0.106-1.67-0.593-1.67-1.473C4.508 4.687 5.174 4.021 5.992 4.021z"/><path d="M21.369 19.145c-0.19-0.2-0.507-0.207-0.707-0.016l-0.21 0.2c-0.189-2.118-0.889-4.046-1.945-5.596v-3.017l1.146 1.146c0.098 0.098 0.226 0.146 0.354 0.146s0.256-0.049 0.354-0.146c0.195-0.195 0.195-0.512 0-0.707l-1.854-1.854V7.716l1.146 1.146c0.098 0.098 0.226 0.146 0.354 0.146s0.256-0.049 0.354-0.146c0.195-0.195 0.195-0.512 0-0.707l-1.854-1.854V4.716l1.146 1.146c0.098 0.098 0.226 0.146 0.354 0.146s0.256-0.049 0.354-0.146c0.195-0.195 0.195-0.512 0-0.707l-1.999-1.999c-0.046-0.046-0.102-0.083-0.163-0.109 -0.122-0.051-0.26-0.051-0.382 0C17.755 3.073 17.7 3.11 17.654 3.156l-1.999 1.999c-0.195 0.195-0.195 0.512 0 0.707 0.098 0.098 0.226 0.146 0.354 0.146s0.256-0.049 0.354-0.146l1.146-1.146v1.586l-1.854 1.854c-0.195 0.195-0.195 0.512 0 0.707 0.098 0.098 0.226 0.146 0.354 0.146s0.256-0.049 0.354-0.146l1.146-1.146v1.586l-1.763 1.763c-1.13-0.689-2.395-1.087-3.737-1.09V9.975c-0.003 0-0.005 0-0.008 0s-0.005 0-0.008 0v0.001c-4.37 0.01-7.976 4.107-8.445 9.354l-0.21-0.2c-0.199-0.19-0.516-0.184-0.707 0.016 -0.191 0.2-0.184 0.516 0.016 0.707l0.95 0.908c0.089 0.136 0.236 0.231 0.411 0.231h16c0.193 0 0.356-0.113 0.439-0.273l0.906-0.866C21.553 19.661 21.56 19.345 21.369 19.145zM12.508 15.858l3.434 4.132h-3.434V15.858zM11.508 19.99H8.073l3.434-4.132V19.99zM17.508 10.716v1.777c-0.293-0.309-0.603-0.591-0.929-0.849L17.508 10.716zM12 10.975c4.007 0.005 7.281 4.004 7.488 9.015h-2.245l-4.85-5.835c-0.01-0.012-0.025-0.018-0.036-0.029 -0.011-0.011-0.017-0.026-0.029-0.036 -0.014-0.012-0.032-0.015-0.047-0.025 -0.029-0.019-0.058-0.036-0.09-0.048 -0.029-0.012-0.057-0.02-0.088-0.026 -0.032-0.006-0.063-0.01-0.096-0.01 -0.032 0-0.062 0.003-0.093 0.009 -0.031 0.006-0.06 0.014-0.09 0.026 -0.032 0.013-0.06 0.029-0.089 0.048 -0.015 0.01-0.032 0.013-0.047 0.025 -0.012 0.01-0.018 0.025-0.029 0.036 -0.011 0.011-0.026 0.017-0.036 0.029l-4.85 5.835H4.512C4.719 14.979 7.993 10.98 12 10.975z"/><g style="display:none;opacity:0.7"><path d="M22 0H2 0v2 20 2h2 20 2v-2V2 0H22zM22 22H2V2h20V22z" fill="#00F"/></g></svg>