<svg xmlns="http://www.w3.org/2000/svg" viewBox="0 0 24 24" style="enable-background:new 0 0 24 24;version:1"><g id="Icons"><path d="M22.906 12.566c-0.079-0.16-0.184-0.287-0.268-0.389 -0.069-0.083-0.141-0.17-0.141-0.21 0-0.04 0.071-0.126 0.141-0.21 0.085-0.102 0.189-0.229 0.27-0.392 0.143-0.295 0.104-0.671-0.096-0.934 -0.109-0.143-0.237-0.248-0.341-0.331 -0.084-0.068-0.171-0.139-0.179-0.177 -0.008-0.039 0.046-0.138 0.098-0.233 0.063-0.117 0.143-0.263 0.188-0.438 0.083-0.316-0.027-0.677-0.276-0.897 -0.135-0.119-0.281-0.196-0.398-0.258 -0.091-0.048-0.194-0.103-0.21-0.141 -0.016-0.036 0.018-0.143 0.05-0.247 0.039-0.127 0.088-0.285 0.099-0.467 0.019-0.327-0.162-0.659-0.449-0.825 -0.154-0.09-0.312-0.137-0.438-0.175 -0.104-0.031-0.21-0.063-0.232-0.096 -0.021-0.033-0.011-0.144 0-0.251 0.013-0.132 0.029-0.296 0.004-0.474 -0.046-0.324-0.287-0.615-0.604-0.726 -0.167-0.058-0.329-0.074-0.46-0.087 -0.107-0.011-0.219-0.021-0.247-0.049 -0.027-0.028-0.039-0.14-0.05-0.247 -0.013-0.131-0.029-0.294-0.087-0.46 -0.107-0.312-0.401-0.553-0.73-0.599 -0.158-0.022-0.316-0.01-0.473 0.004 -0.059 0.006-0.115 0.013-0.25 0 -0.033-0.022-0.065-0.129-0.097-0.233 -0.038-0.127-0.085-0.285-0.176-0.439C17.4 2.32 17.088 2.143 16.728 2.143c-0.002 0-0.003 0-0.005 0 -0.18 0.011-0.337 0.059-0.465 0.098 -0.085 0.026-0.169 0.049-0.246 0.049 -0.037-0.015-0.089-0.114-0.14-0.209 -0.062-0.118-0.14-0.263-0.26-0.399 -0.166-0.186-0.421-0.296-0.682-0.296l-0.219 0.028c-0.174 0.045-0.318 0.124-0.436 0.187 -0.08 0.043-0.18 0.097-0.231 0.097h-0.001c-0.039-0.008-0.109-0.094-0.178-0.177 -0.084-0.103-0.188-0.23-0.331-0.338 -0.252-0.192-0.644-0.232-0.938-0.091 -0.161 0.079-0.288 0.184-0.391 0.268 -0.166 0.137-0.252 0.137-0.418 0 -0.103-0.084-0.229-0.189-0.392-0.269 -0.29-0.14-0.682-0.103-0.935 0.091 -0.144 0.109-0.247 0.238-0.331 0.342 -0.068 0.084-0.14 0.172-0.188 0.181 -0.042 0-0.143-0.055-0.224-0.098C9.603 1.542 9.457 1.463 9.284 1.418L9.064 1.389c-0.262 0-0.515 0.111-0.678 0.297C8.267 1.822 8.19 1.97 8.127 2.089c-0.05 0.097-0.103 0.198-0.162 0.217 -0.051 0-0.14-0.027-0.226-0.054 -0.127-0.04-0.286-0.089-0.517-0.102 -0.312 0-0.623 0.177-0.775 0.441C6.357 2.749 6.31 2.909 6.272 3.038c-0.03 0.105-0.062 0.214-0.171 0.248 -0.059 0-0.118-0.007-0.179-0.014 -0.156-0.017-0.315-0.03-0.477-0.008C5.123 3.308 4.826 3.552 4.722 3.859 4.664 4.03 4.649 4.196 4.637 4.33c-0.01 0.109-0.02 0.221-0.048 0.25C4.561 4.609 4.447 4.619 4.338 4.628c-0.134 0.012-0.3 0.026-0.471 0.083 -0.306 0.103-0.549 0.4-0.592 0.722 -0.023 0.181-0.005 0.348 0.01 0.482C3.297 6.025 3.31 6.137 3.287 6.171c-0.022 0.035-0.134 0.066-0.24 0.097C2.917 6.304 2.756 6.35 2.597 6.44 2.319 6.598 2.14 6.935 2.161 7.26c0.014 0.183 0.065 0.343 0.106 0.473 0.034 0.105 0.069 0.214 0.054 0.252 -0.017 0.039-0.119 0.091-0.22 0.141C1.98 8.188 1.828 8.264 1.689 8.384 1.446 8.59 1.338 8.954 1.425 9.271c0.05 0.176 0.132 0.324 0.198 0.442C1.667 9.791 1.712 9.871 1.72 9.969c-0.024 0.043-0.104 0.105-0.182 0.166 -0.108 0.084-0.242 0.188-0.356 0.333 -0.197 0.25-0.233 0.627-0.086 0.919 0.082 0.162 0.191 0.29 0.279 0.393 0.072 0.085 0.148 0.174 0.149 0.22 -0.001 0.043-0.077 0.132-0.15 0.218 -0.088 0.103-0.198 0.231-0.281 0.394 -0.146 0.287-0.109 0.663 0.091 0.915 0.113 0.144 0.246 0.248 0.354 0.332 0.089 0.07 0.181 0.143 0.189 0.189 0.006 0.045-0.052 0.147-0.107 0.246 -0.066 0.118-0.148 0.265-0.199 0.441 -0.089 0.308 0.021 0.668 0.267 0.874 0.141 0.119 0.293 0.195 0.414 0.257 0.102 0.051 0.207 0.104 0.226 0.147 0.015 0.044-0.022 0.157-0.058 0.266 -0.044 0.135-0.095 0.289-0.11 0.474C2.133 17.07 2.313 17.4 2.594 17.554c0.16 0.088 0.323 0.133 0.455 0.17 0.11 0.031 0.225 0.062 0.251 0.101 0.022 0.039 0.009 0.155-0.005 0.268 -0.017 0.136-0.036 0.305-0.016 0.485 0.035 0.316 0.275 0.606 0.586 0.707 0.173 0.055 0.334 0.067 0.476 0.079 0.113 0.009 0.23 0.018 0.267 0.048 0.03 0.033 0.039 0.15 0.048 0.264 0.011 0.136 0.023 0.306 0.079 0.48 0.098 0.304 0.39 0.542 0.709 0.579 0.162 0.019 0.325 0.004 0.484-0.016 0.066-0.007 0.132-0.016 0.271-0.005 0.037 0.026 0.068 0.141 0.099 0.251 0.036 0.132 0.082 0.296 0.171 0.457 0.142 0.257 0.468 0.446 0.808 0.428 0.182-0.016 0.335-0.066 0.471-0.11 0.091-0.03 0.153-0.073 0.269-0.058 0.04 0.019 0.093 0.124 0.144 0.226 0.062 0.122 0.138 0.274 0.258 0.416 0.154 0.182 0.397 0.29 0.65 0.29l0.227-0.031c0.175-0.051 0.322-0.133 0.44-0.2 0.09-0.051 0.192-0.108 0.249-0.109 0.043 0.01 0.115 0.103 0.185 0.191 0.084 0.107 0.189 0.241 0.333 0.355 0.143 0.113 0.329 0.175 0.524 0.175 0.139 0 0.274-0.032 0.392-0.092 0.164-0.084 0.29-0.195 0.393-0.284 0.081-0.071 0.164-0.144 0.221-0.148 0.043 0.001 0.131 0.077 0.217 0.15 0.103 0.088 0.23 0.197 0.395 0.28 0.283 0.144 0.669 0.104 0.918-0.092 0.144-0.114 0.248-0.247 0.332-0.354 0.069-0.089 0.141-0.181 0.193-0.189 0.044 0 0.144 0.055 0.23 0.104 0.118 0.065 0.266 0.147 0.443 0.197l0.217 0.028c0.258 0 0.506-0.111 0.667-0.299 0.119-0.14 0.195-0.291 0.256-0.412 0.051-0.101 0.104-0.204 0.164-0.224 0.051 0 0.141 0.029 0.229 0.057 0.129 0.042 0.29 0.094 0.527 0.108 0.309 0 0.616-0.178 0.765-0.443 0.089-0.158 0.135-0.319 0.172-0.449 0.03-0.107 0.062-0.218 0.17-0.253 0.06 0 0.12 0.008 0.182 0.015 0.099 0.011 0.198 0.021 0.299 0.021 0.061 0 0.122-0.003 0.183-0.012 0.319-0.042 0.615-0.287 0.719-0.596 0.058-0.171 0.072-0.337 0.084-0.471 0.009-0.109 0.019-0.223 0.048-0.251 0.028-0.028 0.141-0.039 0.249-0.048 0.134-0.012 0.3-0.026 0.474-0.085 0.304-0.105 0.546-0.404 0.588-0.727 0.023-0.179 0.006-0.344-0.009-0.477 -0.011-0.108-0.022-0.22 0-0.254 0.022-0.033 0.131-0.065 0.235-0.095 0.129-0.038 0.289-0.084 0.447-0.176 0.276-0.16 0.455-0.501 0.434-0.828 -0.012-0.18-0.061-0.339-0.1-0.466 -0.032-0.104-0.066-0.211-0.051-0.248 0.016-0.038 0.115-0.089 0.213-0.14 0.119-0.062 0.267-0.139 0.402-0.259 0.24-0.21 0.35-0.581 0.265-0.9 -0.047-0.173-0.125-0.318-0.188-0.435 -0.052-0.096-0.105-0.194-0.098-0.234 0.008-0.039 0.096-0.11 0.18-0.178 0.104-0.084 0.233-0.189 0.343-0.333C23.018 13.246 23.052 12.86 22.906 12.566zM2.699 13.8c-0.095-0.375-0.354-0.579-0.544-0.729 -0.041-0.032-0.08-0.063-0.114-0.092 0.027-0.036 0.06-0.073 0.093-0.112 0.158-0.185 0.375-0.438 0.391-0.91 -0.016-0.389-0.231-0.642-0.389-0.826 -0.034-0.041-0.068-0.08-0.096-0.117 0.033-0.029 0.072-0.06 0.113-0.091 0.188-0.147 0.441-0.345 0.538-0.707l0.013-0.052c0.001-0.003 0.002-0.007 0.003-0.011H2.706l0.003-0.012c0.077-0.401-0.091-0.7-0.214-0.918C2.469 9.175 2.443 9.129 2.422 9.088c0.039-0.022 0.084-0.045 0.131-0.068 0.213-0.108 0.534-0.27 0.692-0.651C3.403 7.99 3.292 7.651 3.22 7.425 3.202 7.372 3.186 7.319 3.174 7.274c0.044-0.016 0.095-0.03 0.146-0.045C3.562 7.16 3.892 7.067 4.119 6.726c0.225-0.337 0.188-0.674 0.16-0.92C4.273 5.747 4.267 5.691 4.265 5.642c0.048-0.008 0.103-0.012 0.16-0.018C4.672 5.603 5.01 5.573 5.296 5.287c0.285-0.286 0.315-0.623 0.337-0.869 0.006-0.06 0.011-0.117 0.019-0.166 0.056 0.001 0.11 0.008 0.165 0.014 0.345 0.038 0.661 0.007 0.916-0.163 0.335-0.224 0.43-0.549 0.499-0.786 0.017-0.057 0.032-0.112 0.05-0.158C7.33 3.172 7.386 3.189 7.444 3.207c0.24 0.075 0.613 0.15 0.927 0.019C8.743 3.071 8.9 2.771 9.015 2.551 9.041 2.5 9.068 2.449 9.093 2.408c0.046 0.02 0.098 0.048 0.151 0.077 0.22 0.119 0.521 0.274 0.904 0.198 0.395-0.078 0.606-0.341 0.761-0.532 0.038-0.047 0.074-0.092 0.108-0.127 0.041 0.028 0.087 0.066 0.135 0.105 0.188 0.156 0.446 0.369 0.846 0.369 0.398 0 0.657-0.213 0.846-0.369 0.048-0.04 0.095-0.078 0.137-0.107 0.035 0.036 0.072 0.082 0.112 0.13 0.154 0.189 0.365 0.447 0.756 0.525 0.381 0.076 0.681-0.078 0.901-0.197 0.056-0.03 0.108-0.058 0.156-0.079 0.026 0.042 0.054 0.094 0.082 0.147 0.114 0.216 0.271 0.512 0.641 0.665 0.31 0.128 0.681 0.056 0.923-0.017 0.06-0.018 0.117-0.036 0.167-0.046 0.019 0.046 0.035 0.103 0.053 0.161 0.07 0.234 0.167 0.555 0.498 0.776 0.249 0.167 0.567 0.199 0.905 0.164 0.049-0.004 0.097-0.01 0.176-0.01 0.009 0.049 0.015 0.108 0.021 0.169 0.024 0.242 0.058 0.574 0.338 0.855 0.281 0.28 0.613 0.313 0.855 0.337 0.063 0.006 0.125 0.013 0.175 0.022 0 0.05-0.006 0.109-0.012 0.171C19.703 6.038 19.67 6.369 19.891 6.7c0.222 0.332 0.543 0.429 0.777 0.499 0.061 0.018 0.118 0.035 0.166 0.054 -0.011 0.048-0.028 0.104-0.046 0.161 -0.072 0.234-0.171 0.555-0.018 0.923 0.152 0.371 0.45 0.528 0.667 0.643 0.055 0.029 0.107 0.057 0.15 0.084C21.568 9.11 21.54 9.16 21.512 9.213c-0.117 0.216-0.276 0.511-0.199 0.904 0.078 0.392 0.339 0.604 0.528 0.758 0.049 0.04 0.095 0.077 0.131 0.113 -0.028 0.041-0.065 0.085-0.104 0.131 -0.156 0.189-0.37 0.448-0.37 0.848s0.214 0.659 0.37 0.848c0.039 0.048 0.078 0.095 0.107 0.137 -0.036 0.033-0.079 0.069-0.125 0.105 -0.191 0.155-0.453 0.367-0.531 0.76 -0.079 0.394 0.082 0.689 0.199 0.906 0.029 0.055 0.058 0.107 0.078 0.153 -0.041 0.025-0.09 0.051-0.141 0.077 -0.219 0.114-0.52 0.271-0.674 0.644 -0.153 0.371-0.054 0.692 0.019 0.927 0.019 0.059 0.036 0.116 0.047 0.166 -0.045 0.017-0.098 0.032-0.152 0.048 -0.237 0.069-0.562 0.164-0.786 0.5 -0.225 0.334-0.188 0.67-0.163 0.916 0.007 0.061 0.013 0.119 0.014 0.169 -0.047 0.008-0.103 0.013-0.16 0.018 -0.246 0.022-0.583 0.052-0.868 0.336 -0.287 0.287-0.316 0.625-0.338 0.873 -0.005 0.059-0.01 0.115-0.018 0.164 -0.054-0.002-0.106-0.009-0.16-0.015 -0.344-0.038-0.666-0.01-0.921 0.161 -0.34 0.228-0.434 0.558-0.502 0.799 -0.016 0.054-0.03 0.105-0.046 0.15 -0.046-0.012-0.097-0.028-0.149-0.045 -0.245-0.078-0.619-0.157-0.941-0.025 -0.381 0.158-0.536 0.467-0.65 0.693 -0.023 0.048-0.047 0.094-0.07 0.134 -0.042-0.02-0.087-0.045-0.134-0.071 -0.185-0.103-0.414-0.23-0.717-0.23 -0.058 0-0.117 0.004-0.224 0.023 -0.395 0.086-0.604 0.354-0.758 0.55 -0.032 0.041-0.063 0.081-0.094 0.115 -0.036-0.027-0.074-0.06-0.114-0.094 -0.186-0.158-0.439-0.375-0.897-0.386l-0.079 0.004c-0.361 0.032-0.595 0.237-0.768 0.388 -0.038 0.033-0.074 0.064-0.107 0.091 -0.029-0.033-0.059-0.071-0.089-0.11 -0.15-0.191-0.355-0.453-0.735-0.546l-0.246-0.027c-0.31 0-0.542 0.131-0.729 0.236 -0.047 0.026-0.093 0.052-0.127 0.072 -0.021-0.038-0.042-0.081-0.063-0.124 -0.109-0.217-0.259-0.515-0.61-0.681l-0.117-0.045c-0.307-0.102-0.656-0.02-0.891 0.057 -0.048 0.016-0.095 0.031-0.135 0.042 -0.014-0.041-0.026-0.086-0.039-0.133 -0.064-0.236-0.154-0.558-0.469-0.791l-0.097-0.061c-0.251-0.145-0.561-0.162-0.888-0.122 -0.043 0.005-0.087 0.011-0.144 0.014 -0.005-0.043-0.009-0.091-0.013-0.14C5.634 19.358 5.61 19.027 5.35 18.74l-0.08-0.078c-0.285-0.253-0.612-0.278-0.852-0.297 -0.051-0.004-0.101-0.008-0.145-0.014 0.003-0.043 0.009-0.091 0.015-0.141 0.027-0.234 0.066-0.556-0.119-0.881L4.1 17.222c-0.231-0.308-0.551-0.396-0.784-0.461 -0.048-0.013-0.096-0.026-0.138-0.04 0.012-0.042 0.026-0.085 0.041-0.131 0.073-0.223 0.173-0.528 0.047-0.918l-0.038-0.095c-0.166-0.347-0.461-0.495-0.676-0.604 -0.045-0.023-0.089-0.045-0.127-0.067 0.02-0.039 0.043-0.08 0.066-0.123 0.116-0.207 0.275-0.49 0.225-0.882L2.699 13.8z"/><path d="M11.998 3.248c-4.825 0-8.75 3.925-8.75 8.75s3.925 8.75 8.75 8.75 8.75-3.925 8.75-8.75S16.823 3.248 11.998 3.248zM18.442 7.7l-5.019 2.898c-0.008-0.008-0.017-0.017-0.025-0.025l2.898-5.019C17.144 6.122 17.875 6.852 18.442 7.7zM12.998 11.998c0 0.551-0.448 1-1 1s-1-0.449-1-1 0.448-1 1-1S12.998 11.447 12.998 11.998zM12.498 10.069V4.274c1.047 0.067 2.036 0.342 2.93 0.785l-2.899 5.02C12.519 10.076 12.509 10.072 12.498 10.069zM11.498 10.069c-0.011 0.003-0.021 0.007-0.031 0.01l-2.899-5.02c0.894-0.444 1.883-0.718 2.93-0.785V10.069zM10.069 11.498H4.274c0.067-1.047 0.342-2.036 0.785-2.929l5.02 2.898C10.076 11.478 10.072 11.488 10.069 11.498zM10.069 12.498c0.003 0.01 0.007 0.02 0.01 0.031l-5.02 2.898c-0.443-0.894-0.718-1.883-0.785-2.929H10.069zM11.498 13.927v5.796c-1.047-0.067-2.036-0.342-2.93-0.785l2.899-5.02C11.478 13.92 11.488 13.924 11.498 13.927zM12.498 13.927c0.011-0.003 0.021-0.007 0.031-0.01l2.899 5.02c-0.894 0.444-1.883 0.718-2.93 0.785V13.927zM13.927 12.498h5.796c-0.067 1.047-0.342 2.036-0.785 2.929l-5.02-2.898C13.921 12.519 13.925 12.509 13.927 12.498zM13.927 11.498c-0.003-0.01-0.007-0.02-0.01-0.031l5.02-2.898c0.443 0.894 0.718 1.883 0.785 2.929H13.927zM7.701 5.554l2.898 5.019c-0.008 0.008-0.017 0.017-0.025 0.025L5.554 7.7C6.122 6.852 6.852 6.122 7.701 5.554zM5.554 16.296l5.019-2.898c0.008 0.008 0.017 0.017 0.025 0.025l-2.898 5.019C6.852 17.875 6.122 17.145 5.554 16.296zM16.296 18.443l-2.898-5.019c0.008-0.008 0.017-0.017 0.025-0.025l5.019 2.898C17.875 17.145 17.144 17.875 16.296 18.443z"/></g><g id="_x32_px_border_zone" style="display:none;opacity:0.7"><path d="M22 0H2 0v2 20 2h2 20 2v-2V2 0H22zM22 22H2V2h20V22z" fill="#00F"/></g></svg>