<svg xmlns="http://www.w3.org/2000/svg" viewBox="0 0 24 24" style="enable-background:new 0 0 24 24;version:1"><path d="M19.84 10.9c-0.67-0.43-1.33-1.09-1.47-3.85 -0.04-0.87-0.8-1.55-1.72-1.55h-0.72V3.63c0-0.11-0.01-0.22-0.03-0.33 0-0.01 0-0.02 0-0.04 -0.15-0.86-0.81-1.5-1.61-1.5H9.71c-0.8 0-1.46 0.65-1.61 1.52C8.1 3.28 8.1 3.29 8.1 3.29c-0.02 0.11-0.03 0.22-0.03 0.34V5.49H7.35c-0.92 0-1.68 0.68-1.72 1.55 -0.14 2.77-0.8 3.42-1.47 3.85 -0.41 0.27-0.66 0.76-0.66 1.31v8.39c0 0.91 0.78 1.64 1.73 1.64H18.77c0.95 0 1.73-0.74 1.73-1.64v-8.39C20.5 11.66 20.25 11.17 19.84 10.9zM18.82 17.74l-2.5-2.5H19.5v2.5H18.82zM4.5 17.74v-2.5h3.18l-2.5 2.5H4.5zM4.5 12.21c0-0.08 0.02-0.34 0.2-0.47h6.3v1.24c0 0 0 0.01 0 0.01s0 0.01 0 0.01v1.24H4.5V12.21zM19.3 11.74c0.19 0.13 0.2 0.39 0.2 0.47v2.03h-7.5v-0.75H12.5c0.28 0 0.5-0.22 0.5-0.5s-0.22-0.5-0.5-0.5h-0.5v-0.75H19.3zM8.97 15.36c0.04-0.04 0.06-0.08 0.08-0.12h1.95v1.24c0 0 0 0.01 0 0.01s0 0.01 0 0.01v1.24H6.59L8.97 15.36zM12 16.99H12.5c0.28 0 0.5-0.22 0.5-0.5s-0.22-0.5-0.5-0.5h-0.5v-0.75h2.95c0.02 0.04 0.05 0.09 0.08 0.12l2.38 2.38h-5.41V16.99zM17.37 7.09c0.09 1.83 0.41 2.92 0.9 3.65h-6.27V9.99H12.5c0.28 0 0.5-0.22 0.5-0.5s-0.22-0.5-0.5-0.5h-0.5V8.24h2.28c0.87 0 1.58-0.78 1.63-1.75h0.73C17.03 6.49 17.36 6.76 17.37 7.09zM9.07 4.6c0.2 0.08 0.41 0.14 0.64 0.14h1.29v1.24C11 5.98 11 5.99 11 5.99s0 0.01 0 0.01v1.24H9.71c-0.35 0-0.64-0.4-0.64-0.87V4.6zM12 6.49H12.5c0.28 0 0.5-0.22 0.5-0.5s-0.22-0.5-0.5-0.5h-0.5V4.74h2.28c0.23 0 0.44-0.06 0.64-0.14v1.77c0 0.47-0.29 0.87-0.64 0.87h-2.28V6.49zM9.71 2.76h4.57c0.28 0 0.52 0.26 0.6 0.61C14.8 3.59 14.56 3.74 14.29 3.74H9.71c-0.25 0-0.47-0.13-0.6-0.4C9.21 3.01 9.44 2.76 9.71 2.76zM6.63 7.09C6.64 6.76 6.97 6.49 7.35 6.49h0.73c0.06 0.97 0.76 1.75 1.63 1.75h1.29v1.24C11 9.48 11 9.49 11 9.49s0 0.01 0 0.01v1.24h-5.27C6.22 10.01 6.54 8.92 6.63 7.09zM4.5 20.6V18.74h6.5v1.24c0 0 0 0.01 0 0.01s0 0.01 0 0.01v1.24H5.23C4.83 21.24 4.5 20.95 4.5 20.6zM18.77 21.24h-6.77v-0.75H12.5c0.28 0 0.5-0.22 0.5-0.5s-0.22-0.5-0.5-0.5h-0.5v-0.75H19.5v1.86C19.5 20.95 19.17 21.24 18.77 21.24z"/><g style="display:none;opacity:0.7"><path d="M22 0H2 0v2 20 2h2 20 2v-2V2 0H22zM22 22H2V2h20V22z" fill="#00F"/></g></svg>