<svg xmlns="http://www.w3.org/2000/svg" viewBox="0 0 24 24" style="enable-background:new 0 0 24 24;version:1.1"><path d="M3 7.5C2.17 7.5 1.5 8.17 1.5 9c0 0.64 0.76 1.81 1.09 2.28C2.68 11.42 2.84 11.5 3 11.5s0.32-0.08 0.41-0.22C3.74 10.81 4.5 9.64 4.5 9 4.5 8.17 3.83 7.5 3 7.5zM3 10.07C2.71 9.59 2.5 9.15 2.5 9c0-0.28 0.22-0.5 0.5-0.5s0.5 0.23 0.5 0.5C3.5 9.15 3.29 9.59 3 10.07z"/><path d="M21.41 11.72c-0.19-0.27-0.64-0.27-0.82 0C20.26 12.19 19.5 13.36 19.5 14c0 0.83 0.67 1.5 1.5 1.5s1.5-0.67 1.5-1.5C22.5 13.36 21.74 12.19 21.41 11.72zM21 14.5c-0.28 0-0.5-0.22-0.5-0.5 0-0.15 0.21-0.59 0.5-1.07 0.29 0.49 0.5 0.92 0.5 1.07C21.5 14.28 21.28 14.5 21 14.5z"/><path d="M16 3.48c-0.28 0-0.5 0.22-0.5 0.5v4c0 0.28 0.22 0.5 0.5 0.5s0.5-0.22 0.5-0.5v-4C16.5 3.71 16.28 3.48 16 3.48z"/><path d="M17.5 1.5h-3C13.67 1.5 13 2.17 13 3v5.62c0 0.35 0.12 0.69 0.35 0.96l1.5 1.81c0.18 0.21 0.4 0.36 0.66 0.45v9.65c-0.28 0-0.5 0.22-0.5 0.5s0.22 0.5 0.5 0.5h1c0.28 0 0.5-0.22 0.5-0.5s-0.22-0.5-0.5-0.5v-9.65c0.25-0.09 0.48-0.24 0.66-0.45l1.5-1.81C18.88 9.31 19 8.97 19 8.62V3C19 2.17 18.33 1.5 17.5 1.5zM18 8.62c0 0.12-0.04 0.23-0.11 0.32l-1.5 1.81c-0.13 0.16-0.3 0.18-0.38 0.18s-0.25-0.02-0.38-0.18l-1.5-1.81C14.04 8.85 14 8.74 14 8.62V3c0-0.28 0.22-0.5 0.5-0.5h3C17.78 2.5 18 2.73 18 3V8.62z"/><path d="M8 15.5c-0.28 0-0.5 0.22-0.5 0.5v4c0 0.28 0.22 0.5 0.5 0.5s0.5-0.22 0.5-0.5v-4C8.5 15.72 8.28 15.5 8 15.5z"/><path d="M9.15 12.59c-0.17-0.21-0.4-0.35-0.65-0.43V2.5C8.78 2.5 9 2.28 9 2S8.78 1.5 8.5 1.5h-1C7.22 1.5 7 1.72 7 2s0.22 0.5 0.5 0.5v9.66c-0.25 0.08-0.48 0.22-0.65 0.43l-1.5 1.81C5.12 14.67 5 15.01 5 15.36v5.62c0 0.83 0.67 1.5 1.5 1.5h3c0.83 0 1.5-0.67 1.5-1.5V15.36c0-0.35-0.12-0.69-0.34-0.96L9.15 12.59zM10 20.98c0 0.28-0.22 0.5-0.5 0.5h-3c-0.28 0-0.5-0.22-0.5-0.5V15.36c0-0.12 0.04-0.23 0.12-0.32l1.5-1.81C7.75 13.08 7.91 13.05 8 13.05s0.25 0.02 0.39 0.18l1.5 1.81C9.96 15.13 10 15.24 10 15.36V20.98z"/><g style="display:none;opacity:0.7"><path d="M22 0H2 0v2 20 2h2 20 2v-2V2 0H22zM22 22H2V2h20V22z" fill="#00F"/></g></svg>