<svg viewBox="0 0 24 24" xmlns="http://www.w3.org/2000/svg">
  <title>
    location-pin-fill
  </title>
  <path d="M12.7163739 21.69841c-.4143162.404012-1.0474534.3956589-1.4328086-4e-7C6.42786544 16.7128097 4 12.8105397 4 10c0-4.418278 3.581722-8 8-8s8 3.581722 8 8c0 2.8105454-2.4278754 6.7128257-7.2836261 11.69841zM18 10c0-3.3137085-2.6862915-6-6-6s-6 2.6862915-6 6c0 2.012955 1.96812138 5.2823851 6.0000014 9.5519878C16.0318492 15.2824338 18 12.0129703 18 10zm-6 1.5c-.8284271 0-1.5-.6715729-1.5-1.5 0-.82842712.6715729-1.5 1.5-1.5s1.5.67157288 1.5 1.5c0 .8284271-.6715729 1.5-1.5 1.5z"/>
</svg>
