<svg xmlns="http://www.w3.org/2000/svg" viewBox="0 0 24 24" style="enable-background:new 0 0 24 24;version:1"><path d="M16.5 16.27c0 2.33-1.73 4.22-3.86 4.22 -1.8 0-3.33-1.27-3.8-3.08l-2.19-8.55C6.3 7.51 6.59 6.06 7.42 4.99c0.75-0.96 1.79-1.49 2.94-1.49h2.27c1.96 0 3.56 1.6 3.81 3.67h1C17.18 4.55 15.14 2.5 12.64 2.5h-2.27c-1.45 0-2.81 0.68-3.73 1.88C5.61 5.69 5.25 7.46 5.68 9.11l2.19 8.55c0.58 2.26 2.51 3.84 4.69 3.84h0.08c2.68 0 4.86-2.34 4.86-5.22v-0.11h-1V16.27z" fill="none"/><path d="M17.5 11.17h-1c-0.28 0-0.5 0.22-0.5 0.5s0.22 0.5 0.5 0.5h1c0.28 0 0.5-0.22 0.5-0.5S17.77 11.17 17.5 11.17z"/><path d="M19 9.32V8.17c0-0.37-0.21-0.68-0.51-0.85l-0.01-0.14C18.2 4 15.69 1.5 12.64 1.5h-2.27c-1.76 0-3.41 0.83-4.52 2.26 -1.21 1.56-1.63 3.65-1.13 5.6L6.9 17.91c0.69 2.7 3.02 4.59 5.66 4.59h0.08c3.23 0 5.86-2.79 5.86-6.22l0-0.26C18.79 15.84 19 15.53 19 15.17v-1.15c0.29-0.17 0.5-0.48 0.5-0.84v-3C19.5 9.8 19.29 9.49 19 9.32zM17.5 16.27c0 2.88-2.18 5.23-4.86 5.23h-0.08c-2.18 0-4.11-1.58-4.69-3.84l-2.19-8.55C5.25 7.46 5.61 5.69 6.63 4.38 7.56 3.18 8.92 2.5 10.36 2.5h2.27c2.5 0 4.55 2.05 4.81 4.67h-1C16.19 5.1 14.59 3.5 12.64 3.5h-2.27c-1.15 0-2.2 0.53-2.94 1.49C6.59 6.06 6.3 7.51 6.64 8.87l2.19 8.55c0.47 1.82 2 3.09 3.8 3.09 2.13 0 3.86-1.89 3.86-4.22v-0.11h1V16.27zM18 8.17l0 1h-2v-1H18zM15 14.02v1.15c0 0.37 0.21 0.67 0.5 0.85v0.26c0 1.78-1.28 3.23-2.94 3.23 -1.27 0-2.4-0.96-2.75-2.33L7.61 8.62C7.34 7.56 7.57 6.43 8.21 5.6 8.76 4.89 9.53 4.5 10.36 4.5h2.27c1.41 0 2.58 1.16 2.81 2.68 0.01 0 0.02 0.08 0.02 0.16 -0.28 0.18-0.48 0.48-0.48 0.83v1.15c-0.29 0.18-0.5 0.48-0.5 0.85v3C14.5 13.53 14.71 13.84 15 14.02zM18 15.17h-2v-1h2V15.17C18 15.17 18 15.17 18 15.17M18.5 13.17H18h-2 -0.5v-3h0.5 2 0.5L18.5 13.17z"/><g style="display:none;opacity:0.7"><path d="M22 0H2 0v2 20 2h2 20 2v-2V2 0H22zM22 22H2V2h20V22z" fill="#00F"/></g></svg>