<svg xmlns="http://www.w3.org/2000/svg" viewBox="0 0 24 24" style="enable-background:new 0 0 24 24;version:1"><style>.a{fill:none;}</style><circle cx="7" cy="10.21" r="2.5" class="a"/><circle cx="17" cy="10.21" r="2.5" class="a"/><path d="M10.314 16.544C9.817 16.087 9.5 15.438 9.5 14.71c0-0.072 0.015-0.139 0.021-0.21C8.8 14.009 7.937 13.71 7 13.71c-2.312 0-4.223 1.753-4.472 4H8.67C9.123 17.208 9.678 16.803 10.314 16.544z" class="a"/><path d="M11.886 16.199c0.038 0.003 0.075 0.011 0.114 0.011 0.827 0 1.5-0.673 1.5-1.5 0-0.22-0.05-0.427-0.136-0.616 -0.236-0.52-0.757-0.884-1.364-0.884s-1.129 0.364-1.364 0.884C10.55 14.283 10.5 14.49 10.5 14.71 10.5 15.498 11.113 16.139 11.886 16.199z" class="a"/><path d="M13.801 17.71c-0.357-0.215-0.756-0.367-1.181-0.443C12.418 17.231 12.212 17.21 12 17.21c-0.14 0-0.274 0.022-0.41 0.038 -0.069 0.008-0.141 0.007-0.209 0.019 -0.425 0.076-0.824 0.228-1.181 0.443 -0.42 0.253-0.774 0.599-1.055 1 -0.309 0.439-0.529 0.945-0.609 1.5h6.929c-0.08-0.555-0.3-1.061-0.609-1.5C14.574 18.31 14.221 17.964 13.801 17.71z" class="a"/><path d="M17 13.71c-0.937 0-1.8 0.298-2.521 0.79 0.006 0.07 0.021 0.138 0.021 0.21 0 0.727-0.317 1.377-0.814 1.834 0.636 0.258 1.191 0.664 1.644 1.166h6.143C21.223 15.463 19.312 13.71 17 13.71z" class="a"/><path d="M18.985 13.087c0.913-0.632 1.515-1.685 1.515-2.877 0-1.93-1.57-3.5-3.5-3.5s-3.5 1.57-3.5 3.5c0 1.192 0.602 2.244 1.515 2.877 -0.293 0.114-0.574 0.253-0.84 0.414 -0.428-0.766-1.237-1.29-2.174-1.29s-1.746 0.525-2.174 1.29c-0.267-0.161-0.547-0.299-0.84-0.414 0.913-0.632 1.515-1.685 1.515-2.877 0-1.93-1.57-3.5-3.5-3.5s-3.5 1.57-3.5 3.5c0 1.192 0.602 2.244 1.515 2.877C2.961 13.886 1.5 15.879 1.5 18.21c0 0.276 0.224 0.5 0.5 0.5h5.99c-0.303 0.605-0.49 1.278-0.49 2 0 0.276 0.224 0.5 0.5 0.5h8c0.276 0 0.5-0.224 0.5-0.5 0-0.722-0.187-1.395-0.49-2H22c0.276 0 0.5-0.224 0.5-0.5C22.5 15.879 21.039 13.886 18.985 13.087zM14.5 10.21c0-1.378 1.122-2.5 2.5-2.5s2.5 1.122 2.5 2.5 -1.122 2.5-2.5 2.5S14.5 11.589 14.5 10.21zM10.636 14.094c0.236-0.52 0.757-0.884 1.364-0.884s1.129 0.364 1.364 0.884C13.45 14.283 13.5 14.49 13.5 14.71c0 0.827-0.673 1.5-1.5 1.5 -0.039 0-0.076-0.009-0.114-0.011 -0.773-0.059-1.386-0.7-1.386-1.489C10.5 14.49 10.55 14.283 10.636 14.094zM4.5 10.21c0-1.378 1.122-2.5 2.5-2.5s2.5 1.122 2.5 2.5 -1.122 2.5-2.5 2.5S4.5 11.589 4.5 10.21zM2.528 17.71c0.25-2.247 2.16-4 4.472-4 0.937 0 1.8 0.298 2.521 0.79C9.515 14.571 9.5 14.638 9.5 14.71c0 0.727 0.317 1.377 0.814 1.834 -0.636 0.258-1.191 0.664-1.644 1.166H2.528zM8.536 20.21c0.08-0.555 0.3-1.061 0.609-1.5 0.281-0.401 0.635-0.747 1.055-1 0.357-0.215 0.756-0.367 1.181-0.443 0.068-0.012 0.14-0.011 0.209-0.019 0.136-0.016 0.27-0.038 0.41-0.038 0.212 0 0.418 0.021 0.619 0.057 0.425 0.076 0.824 0.228 1.181 0.443 0.42 0.253 0.774 0.599 1.055 1 0.309 0.439 0.529 0.945 0.609 1.5H8.536zM15.33 17.71c-0.453-0.502-1.008-0.907-1.644-1.166 0.497-0.457 0.814-1.107 0.814-1.834 0-0.072-0.015-0.139-0.021-0.21 0.721-0.492 1.584-0.79 2.521-0.79 2.312 0 4.223 1.753 4.472 4H15.33z"/><path d="M11.646 6.998C11.744 7.096 11.872 7.145 12 7.145s0.256-0.049 0.354-0.146l1.727-1.727c0.564-0.564 0.557-1.489-0.015-2.061 -0.555-0.555-1.516-0.562-2.062-0.015L12 3.199l-0.004-0.004C11.45 2.649 10.49 2.656 9.935 3.21 9.362 3.783 9.355 4.707 9.919 5.271L11.646 6.998zM10.642 3.917c0.091-0.091 0.211-0.142 0.337-0.142 0.118 0 0.229 0.045 0.31 0.126l0.357 0.357c0.195 0.195 0.512 0.195 0.707 0l0.357-0.357c0.168-0.169 0.47-0.163 0.647 0.015 0.183 0.183 0.189 0.473 0.015 0.647L12 5.938l-1.374-1.374C10.452 4.39 10.459 4.1 10.642 3.917z"/><g style="display:none;opacity:0.7"><path d="M22 0H2 0v2 20 2h2 20 2v-2V2 0H22zM22 22H2V2h20V22z" fill="#00F"/></g></svg>