<svg xmlns="http://www.w3.org/2000/svg" viewBox="0 0 24 24" style="enable-background:new 0 0 24 24;version:1"><path d="M20.24 12c0-2.14-0.83-4.15-2.34-5.66 -0.53-0.53-1.13-0.98-1.77-1.33l-1.2-2.34c-0.26-0.5-0.77-0.81-1.33-0.81l-2.71 0c0 0 0 0 0 0 -0.56 0-1.06 0.31-1.32 0.8L8.29 5.03C8.29 5.04 8.29 5.04 8.28 5.05c-2.28 1.3-3.86 3.69-4.03 6.45H3.73v-0.5c0-0.28-0.22-0.5-0.5-0.5s-0.5 0.22-0.5 0.5v2c0 0.28 0.22 0.5 0.5 0.5s0.5-0.22 0.5-0.5v-0.5h0.53c0.17 2.77 1.75 5.16 4.03 6.46 0 0 0 0 0 0.01l1.27 2.38c0.26 0.49 0.77 0.8 1.33 0.8l2.71 0c0.56 0 1.08-0.31 1.33-0.81l1.21-2.35C18.58 17.61 20.24 15 20.24 12zM10.44 3.12c0.09-0.16 0.26-0.26 0.44-0.26h0l2.71 0c0.19 0 0.36 0.1 0.44 0.27l0.64 1.25c-0.78-0.25-1.6-0.38-2.44-0.38 -0.86 0-1.69 0.14-2.47 0.4L10.44 3.12zM14.03 20.87c-0.09 0.17-0.26 0.27-0.44 0.27l-2.71 0c-0.19 0-0.35-0.1-0.44-0.27l-0.67-1.26c0.77 0.25 1.6 0.39 2.46 0.39 0 0 0.02 0 0.02 0 0.85 0 1.67-0.14 2.44-0.39L14.03 20.87zM12.22 19.01c-3.85 0-6.99-3.14-6.99-7s3.14-7 7.01-7c1.87 0 3.63 0.73 4.95 2.05 1.32 1.32 2.05 3.08 2.05 4.95 0 3.86-3.14 7-7.01 7.01H12.22z"/><path d="M12.24 5.74c-3.45 0-6.26 2.81-6.26 6.26s2.81 6.26 6.26 6.26 6.26-2.81 6.26-6.26S15.69 5.74 12.24 5.74zM12.24 6.74c2.77 0 5.02 2.16 5.22 4.88l-2.24 0 -0.91-1.97c-0.08-0.18-0.26-0.29-0.45-0.29 0 0 0 0 0 0 -0.2 0-0.37 0.12-0.45 0.3l-1.45 3.31 -1.3-2.62c-0.08-0.17-0.25-0.28-0.44-0.28C10 10.06 9.84 10.17 9.75 10.34l-0.67 1.28H7.02C7.22 8.9 9.47 6.74 12.24 6.74zM12.24 17.26c-2.69 0-4.88-2.03-5.19-4.64h2.35c0.19 0 0.36-0.1 0.44-0.27l0.35-0.68 1.34 2.7c0.09 0.17 0.26 0.28 0.45 0.28 0 0 0.01 0 0.01 0 0.19 0 0.37-0.12 0.45-0.3l1.43-3.27 0.58 1.25c0.08 0.18 0.26 0.29 0.45 0.29l2.54 0.01C17.12 15.23 14.92 17.26 12.24 17.26z"/><g style="display:none;opacity:0.7"><path d="M22 0H2 0v2 20 2h2 20 2v-2V2 0H22zM22 22H2V2h20V22z" fill="#00F"/></g></svg>