<svg xmlns="http://www.w3.org/2000/svg" viewBox="0 0 24 24" style="enable-background:new 0 0 24 24;version:1"><path d="M14.65 5.35C14.74 5.45 14.87 5.5 15 5.5s0.26-0.05 0.35-0.15c0.2-0.19 0.2-0.51 0-0.71l-3-3c-0.05-0.05-0.1-0.08-0.16-0.11 -0.12-0.05-0.26-0.05-0.38 0 -0.06 0.03-0.12 0.06-0.16 0.11L8.65 4.65c-0.19 0.2-0.19 0.51 0 0.71C8.74 5.45 8.87 5.5 9 5.5s0.26-0.05 0.35-0.15L11.5 3.21v2.59L8.65 8.65c-0.19 0.2-0.19 0.51 0 0.71C8.74 9.45 8.87 9.5 9 9.5s0.26-0.05 0.35-0.15L11.5 7.21v2.59l-2.85 2.85c-0.19 0.2-0.19 0.51 0 0.71C8.74 13.45 8.87 13.5 9 13.5s0.26-0.05 0.35-0.15l2.15-2.15v2.59l-2.85 2.85c-0.19 0.2-0.19 0.51 0 0.71C8.74 17.45 8.87 17.5 9 17.5s0.26-0.05 0.35-0.15l2.15-2.15V22c0 0.28 0.22 0.5 0.5 0.5s0.5-0.22 0.5-0.5v-6.79l2.15 2.15C14.74 17.45 14.87 17.5 15 17.5s0.26-0.05 0.35-0.15c0.2-0.19 0.2-0.51 0-0.71L12.5 13.79v-2.59l2.15 2.15C14.74 13.45 14.87 13.5 15 13.5s0.26-0.05 0.35-0.15c0.2-0.19 0.2-0.51 0-0.71L12.5 9.79V7.21l2.15 2.15C14.74 9.45 14.87 9.5 15 9.5s0.26-0.05 0.35-0.15c0.2-0.19 0.2-0.51 0-0.71L12.5 5.79V3.21L14.65 5.35z"/><path d="M6.65 7.35C6.74 7.45 6.87 7.5 7 7.5s0.26-0.05 0.35-0.15c0.2-0.19 0.2-0.51 0-0.71L5.35 4.65C5.31 4.6 5.25 4.56 5.19 4.54c-0.12-0.05-0.26-0.05-0.38 0C4.75 4.56 4.69 4.6 4.65 4.65L2.65 6.65c-0.19 0.2-0.19 0.51 0 0.71C2.74 7.45 2.87 7.5 3 7.5s0.26-0.05 0.35-0.15L4.5 6.21v1.59L2.65 9.65c-0.19 0.2-0.19 0.51 0 0.71C2.74 10.45 2.87 10.5 3 10.5s0.26-0.05 0.35-0.15L4.5 9.21v1.59l-1.85 1.85c-0.19 0.2-0.19 0.51 0 0.71C2.74 13.45 2.87 13.5 3 13.5s0.26-0.05 0.35-0.15L4.5 12.21V19c0 0.28 0.22 0.5 0.5 0.5s0.5-0.22 0.5-0.5v-6.79l1.15 1.15C6.74 13.45 6.87 13.5 7 13.5s0.26-0.05 0.35-0.15c0.2-0.19 0.2-0.51 0-0.71L5.5 10.79V9.21l1.15 1.15C6.74 10.45 6.87 10.5 7 10.5s0.26-0.05 0.35-0.15c0.2-0.19 0.2-0.51 0-0.71L5.5 7.79V6.21L6.65 7.35z"/><path d="M20.65 10.35C20.74 10.45 20.87 10.5 21 10.5s0.26-0.05 0.35-0.15c0.2-0.19 0.2-0.51 0-0.71L19.5 7.79V6.21l1.15 1.15C20.74 7.45 20.87 7.5 21 7.5s0.26-0.05 0.35-0.15c0.2-0.19 0.2-0.51 0-0.71l-2-2c-0.05-0.05-0.1-0.08-0.16-0.11 -0.12-0.05-0.26-0.05-0.38 0 -0.06 0.03-0.12 0.06-0.16 0.11l-2 2c-0.19 0.2-0.19 0.51 0 0.71C16.74 7.45 16.87 7.5 17 7.5s0.26-0.05 0.35-0.15L18.5 6.21v1.59l-1.85 1.85c-0.19 0.2-0.19 0.51 0 0.71C16.74 10.45 16.87 10.5 17 10.5s0.26-0.05 0.35-0.15L18.5 9.21v1.59l-1.85 1.85c-0.19 0.2-0.19 0.51 0 0.71C16.74 13.45 16.87 13.5 17 13.5s0.26-0.05 0.35-0.15l1.15-1.15V19c0 0.28 0.22 0.5 0.5 0.5s0.5-0.22 0.5-0.5v-6.79l1.15 1.15C20.74 13.45 20.87 13.5 21 13.5s0.26-0.05 0.35-0.15c0.2-0.19 0.2-0.51 0-0.71L19.5 10.79V9.21L20.65 10.35z"/><g style="display:none;opacity:0.7"><path d="M22 0H2 0v2 20 2h2 20 2v-2V2 0H22zM22 22H2V2h20V22z" fill="#00F"/></g></svg>