<svg xmlns="http://www.w3.org/2000/svg" viewBox="0 0 24 24" style="enable-background:new 0 0 24 24;version:1"><path d="M20.91 16.57l-3.28-1.9 2.7-0.72c0.27-0.07 0.43-0.35 0.35-0.61s-0.34-0.42-0.61-0.35l-3.66 0.98L13 12l3.4-1.96 3.66 0.98c0.27 0.07 0.54-0.09 0.61-0.35 0.07-0.27-0.09-0.54-0.35-0.61l-2.7-0.72 3.29-1.9c0.24-0.14 0.32-0.44 0.18-0.68 -0.14-0.24-0.45-0.32-0.68-0.18L19.55 7.07c0 0 0 0-0.01 0.01l-2.42 1.4 0.72-2.7c0.07-0.27-0.09-0.54-0.35-0.61 -0.26-0.06-0.54 0.09-0.61 0.35l-0.98 3.67 -3.4 1.96V7.23l2.68-2.68c0.2-0.19 0.2-0.51 0-0.71s-0.51-0.19-0.71 0l-1.97 1.98V2c0-0.28-0.22-0.5-0.5-0.5s-0.5 0.22-0.5 0.5v3.81L9.53 3.84c-0.19-0.19-0.51-0.19-0.71 0s-0.19 0.51 0 0.71l2.68 2.68v3.91L8.12 9.18 7.14 5.52C7.07 5.25 6.79 5.1 6.53 5.16 6.26 5.24 6.1 5.51 6.17 5.78l0.72 2.7L4.46 7.07C4.46 7.07 4.45 7.06 4.45 7.06L3.59 6.57C3.35 6.43 3.05 6.51 2.91 6.75S2.85 7.3 3.09 7.43L6.4 9.34l-2.7 0.72c-0.27 0.07-0.42 0.35-0.35 0.61 0.07 0.27 0.35 0.42 0.61 0.35l3.66-0.98L11 12l-3.39 1.96 -3.66-0.98c-0.27-0.06-0.54 0.09-0.61 0.35 -0.07 0.27 0.09 0.54 0.35 0.61l2.7 0.72L3.09 16.57c-0.24 0.14-0.32 0.44-0.18 0.68 0.14 0.24 0.44 0.32 0.68 0.18l0.86-0.49c0 0 0.01 0 0.01 0l2.44-1.41 -0.72 2.7c-0.07 0.27 0.09 0.54 0.35 0.61 0.04 0.01 0.09 0.02 0.13 0.02 0.22 0 0.42-0.15 0.48-0.37l0.98-3.66 3.39-1.96v3.93L8.82 19.48c-0.19 0.2-0.19 0.51 0 0.71s0.51 0.2 0.71 0l1.98-1.97V22c0 0.28 0.22 0.5 0.5 0.5s0.5-0.22 0.5-0.5v-3.79l1.98 1.98c0.2 0.2 0.51 0.2 0.71 0s0.2-0.51 0-0.71l-2.68-2.68v-3.93l3.4 1.96 0.98 3.66c0.06 0.22 0.26 0.37 0.48 0.37 0.04 0 0.09-0.01 0.13-0.02 0.27-0.07 0.43-0.35 0.35-0.61l-0.72-2.7 2.42 1.4c0 0 0.01 0 0.01 0.01l0.86 0.5c0.24 0.14 0.54 0.06 0.68-0.18C21.23 17.01 21.15 16.7 20.91 16.57z"/><g style="display:none;opacity:0.7"><path d="M22 0H2 0v2 20 2h2 20 2v-2V2 0H22zM22 22H2V2h20V22z" fill="#00F"/></g></svg>