<svg xmlns="http://www.w3.org/2000/svg" viewBox="0 0 24 24" style="enable-background:new 0 0 24 24;version:1"><path d="M12.55 21.24c0.02 0.01 0.06 0.06 0.09 0.09 0.13 0.15 0.37 0.44 0.82 0.44s0.69-0.28 0.82-0.44c0.02-0.02 0.05-0.06 0.05-0.08 0.02 0.02 0.05 0.06 0.07 0.08 0.13 0.15 0.37 0.44 0.82 0.44 0.45 0 0.69-0.28 0.82-0.44 0.02-0.03 0.05-0.06 0.05-0.08 0.02 0.02 0.05 0.05 0.07 0.08 0.13 0.15 0.37 0.44 0.82 0.44s0.69-0.28 0.82-0.44c0.02-0.02 0.05-0.06 0.05-0.08 0.02 0.02 0.05 0.05 0.07 0.08 0.13 0.15 0.37 0.44 0.82 0.44s0.69-0.28 0.82-0.44c0.02-0.03 0.06-0.06 0.05-0.08 0.02 0.02 0.05 0.06 0.08 0.08 0.13 0.15 0.37 0.44 0.82 0.44 0.33 0 0.55-0.15 0.71-0.31 0.17-0.08 0.29-0.25 0.29-0.45v-2.01 -2.08c0-1.32-1.01-2.4-2.35-2.49 -4.47-0.33-7.98-1.89-8.13-3.59 0.3-0.28 0.49-0.68 0.49-1.15 0-0.81-0.65-1.46-1.45-1.46H9.81C9.86 8.07 9.9 7.91 9.9 7.73c0-0.39-0.15-0.73-0.39-1 0.24-0.27 0.39-0.61 0.39-1s-0.15-0.73-0.39-1c0.24-0.27 0.39-0.61 0.39-1 0-0.83-0.67-1.5-1.5-1.5h-4c-0.83 0-1.5 0.67-1.5 1.5 0 0.39 0.15 0.73 0.39 1 -0.24 0.27-0.39 0.61-0.39 1s0.15 0.73 0.39 1c-0.24 0.27-0.39 0.61-0.39 1 0 0.28 0.08 0.54 0.22 0.77C2.75 8.76 2.5 9.19 2.5 9.68l0 1.04c0 0 0 0 0 0.01s0 0 0 0.01l0.01 8.23C2.51 18.98 2.5 18.99 2.5 19c0 0.01 0.01 0.03 0.01 0.04L2.51 20.85c0.05 0.23 0.22 0.5 0.23 0.5 0.18 0.27 0.46 0.41 0.79 0.41 0.45 0 0.69-0.28 0.82-0.44 0.02-0.02 0.05-0.06 0.05-0.08 0.02 0.02 0.05 0.05 0.07 0.08 0.13 0.15 0.37 0.44 0.82 0.44s0.69-0.28 0.82-0.44c0.02-0.03 0.05-0.06 0.05-0.08 0.02 0.02 0.05 0.05 0.07 0.08 0.13 0.15 0.37 0.44 0.82 0.44s0.69-0.28 0.82-0.44c0.02-0.02 0.05-0.06 0.05-0.08 0.02 0.02 0.05 0.05 0.07 0.08 0.13 0.15 0.37 0.44 0.82 0.44s0.69-0.28 0.82-0.44c0.03-0.03 0.07-0.08 0.06-0.08L12.55 21.24zM11 12.76l-1.04 1.05c-0.19 0.2-0.19 0.51 0 0.71 0.1 0.1 0.23 0.15 0.35 0.15s0.26-0.05 0.35-0.15l1.13-1.13c0.27 0.18 0.57 0.35 0.9 0.52l-0.92 0.92c-0.19 0.2-0.19 0.51 0 0.71 0.1 0.1 0.23 0.15 0.35 0.15s0.26-0.05 0.35-0.15l1.2-1.2c0.32 0.12 0.66 0.24 1.02 0.34l-0.83 0.83c-0.19 0.2-0.19 0.51 0 0.71 0.1 0.1 0.23 0.15 0.35 0.15s0.26-0.05 0.35-0.15l1.25-1.25c0.99 0.22 2.08 0.39 3.25 0.47 0.81 0.06 1.43 0.7 1.43 1.5v1.58h-17v-7.27h6.55c0 0 0.01 0 0.01 0C10.18 11.77 10.51 12.29 11 12.76zM10.5 9.77c0 0.26-0.2 0.46-0.45 0.46H3.5V9.68c0-0.25 0.2-0.45 0.45-0.45H4.4h1.75H8.4h1.65C10.3 9.23 10.5 9.44 10.5 9.77zM4.4 3.23h4c0.28 0 0.5 0.22 0.5 0.5s-0.22 0.5-0.5 0.5c-0.28 0-0.5 0.22-0.5 0.5s0.22 0.5 0.5 0.5c0.28 0 0.5 0.22 0.5 0.5s-0.22 0.5-0.5 0.5H6.38c-0.28 0-0.5 0.22-0.5 0.5s0.22 0.5 0.5 0.5H8.4c0.28 0 0.5 0.22 0.5 0.5s-0.22 0.5-0.5 0.5H6.15 4.4c-0.28 0-0.5-0.22-0.5-0.5s0.23-0.5 0.5-0.5c0.28 0 0.5-0.22 0.5-0.5s-0.22-0.5-0.5-0.5c-0.28 0-0.5-0.22-0.5-0.5s0.23-0.5 0.5-0.5h1.96c0.28 0 0.5-0.22 0.5-0.5s-0.22-0.5-0.5-0.5H4.4c-0.28 0-0.5-0.22-0.5-0.5S4.13 3.23 4.4 3.23zM9.68 20.24c-0.45 0-0.69 0.28-0.82 0.44 -0.02 0.03-0.05 0.06-0.05 0.08 -0.02-0.02-0.05-0.05-0.07-0.08 -0.13-0.15-0.37-0.44-0.82-0.44 -0.45 0-0.69 0.28-0.82 0.44 -0.02 0.02-0.05 0.06-0.04 0.08 -0.02-0.02-0.05-0.05-0.07-0.08 -0.13-0.15-0.37-0.44-0.82-0.44s-0.69 0.28-0.82 0.44c-0.02 0.02-0.05 0.06-0.04 0.08 -0.02-0.02-0.05-0.05-0.07-0.08 -0.13-0.15-0.37-0.44-0.82-0.44s-0.69 0.28-0.82 0.44c-0.02 0.02-0.04 0.05-0.04 0.07 -0.02-0.03-0.03-0.06-0.04-0.08v-1.17h17v1.25c-0.02-0.02-0.04-0.04-0.06-0.06 -0.13-0.15-0.37-0.44-0.82-0.44s-0.69 0.28-0.82 0.44c-0.02 0.03-0.05 0.06-0.05 0.08 -0.02-0.02-0.05-0.06-0.07-0.08 -0.13-0.15-0.37-0.44-0.82-0.44 -0.45 0-0.69 0.28-0.82 0.44 -0.02 0.03-0.05 0.06-0.05 0.08 -0.02-0.02-0.05-0.05-0.07-0.08 -0.13-0.15-0.37-0.44-0.82-0.44s-0.69 0.28-0.82 0.44c-0.02 0.03-0.05 0.06-0.05 0.08 -0.02-0.02-0.05-0.05-0.07-0.08 -0.13-0.15-0.37-0.44-0.82-0.44 -0.45 0-0.69 0.28-0.82 0.44 -0.02 0.03-0.05 0.06-0.05 0.08 -0.02-0.02-0.05-0.05-0.07-0.08 -0.13-0.15-0.37-0.44-0.82-0.44L9.68 20.24z"/><g style="display:none;opacity:0.7"><path d="M22 0H2 0v2 20 2h2 20 2v-2V2 0H22zM22 22H2V2h20V22z" fill="#00F"/></g></svg>