<?xml version="1.0" encoding="utf-8"?><svg xmlns="http://www.w3.org/2000/svg" xmlns:xlink="http://www.w3.org/1999/xlink"><symbol viewBox="0 0 24 24" id="cdr-account" xmlns="http://www.w3.org/2000/svg"><path d="M12 12c1.93 0 3.5-1.57 3.5-3.5S13.93 5 12 5 8.5 6.57 8.5 8.5 10.07 12 12 12zm6.76 7c-.88-2.9-3.58-5-6.76-5-3.18 0-5.88 2.1-6.76 5h13.52zM4 21c-.55 0-1-.45-1-1v-.16c.45-3.22 2.57-5.9 5.47-7.13-1.2-1-1.97-2.5-1.97-4.2C6.5 5.46 8.96 3 12 3s5.5 2.46 5.5 5.5c0 1.7-.76 3.2-1.97 4.2a9.122 9.122 0 0 1 5.46 7.14V20c0 .55-.45 1-1 1H4z"/></symbol><symbol viewBox="0 0 24 24" id="cdr-arrow-down" xmlns="http://www.w3.org/2000/svg"><path d="M11 16.6l-3.3-3.3c-.4-.4-1.02-.4-1.4 0-.4.38-.4 1.02 0 1.4l4.97 5c.2.18.44.3.73.3.27 0 .52-.1.7-.3l5-5c.4-.38.4-1.02 0-1.4a.967.967 0 0 0-1.4 0L13 16.6V5c0-.55-.45-1-1-1s-1 .45-1 1v11.6z"/></symbol><symbol viewBox="0 0 24 24" id="cdr-arrow-left" xmlns="http://www.w3.org/2000/svg"><path d="M7.4 11l3.3-3.3c.4-.4.4-1.02 0-1.4a.967.967 0 0 0-1.4 0l-5 4.97c-.18.2-.3.44-.3.73 0 .27.1.52.3.7l5 5c.38.4 1.02.4 1.4 0 .4-.38.4-1.02 0-1.4L7.4 13H19c.55 0 1-.45 1-1s-.45-1-1-1H7.4z"/></symbol><symbol viewBox="0 0 24 24" id="cdr-arrow-right" xmlns="http://www.w3.org/2000/svg"><path d="M16.6 13l-3.3 3.3c-.4.4-.4 1.02 0 1.4.38.4 1.02.4 1.4 0l5-4.97c.18-.2.3-.44.3-.73 0-.27-.1-.52-.3-.7l-5-5a.967.967 0 0 0-1.4 0c-.4.38-.4 1.02 0 1.4l3.3 3.3H5c-.55 0-1 .45-1 1s.45 1 1 1h11.6z"/></symbol><symbol viewBox="0 0 24 24" id="cdr-arrow-up" xmlns="http://www.w3.org/2000/svg"><path d="M13 7.4l3.3 3.3c.4.4 1.02.4 1.4 0 .4-.38.4-1.02 0-1.4l-4.97-5c-.2-.18-.44-.3-.73-.3-.27 0-.52.1-.7.3l-5 5c-.4.38-.4 1.02 0 1.4.38.4 1.02.4 1.4 0L11 7.4V19c0 .55.45 1 1 1s1-.45 1-1V7.4z"/></symbol><symbol viewBox="0 0 24 24" id="cdr-bike" xmlns="http://www.w3.org/2000/svg"><path d="M13.52 12.18l7.2 7.2c.37.38.37.97 0 1.34-.37.37-.96.37-1.33 0l-7.22-7.2c-.66-.04-1.18-.6-1.18-1.26 0-.7.56-1.26 1.26-1.26.67 0 1.22.52 1.26 1.18zm5.37 2.75c.37-.9.58-1.9.58-2.93 0-4.14-3.36-7.5-7.5-7.5-4.14 0-7.5 3.36-7.5 7.5 0 4.15 3.36 7.5 7.5 7.5 1.04 0 2.03-.2 2.93-.6l1.6 1.6-.07-.03c-.6-.23-1.3.06-1.57.65l-.13.27a1.064 1.064 0 0 1-1.67.32l-.2-.2c-.5-.44-1.23-.44-1.7 0l-.22.2c-.43.4-1.1.37-1.5-.06a.948.948 0 0 1-.17-.27l-.13-.28c-.27-.6-.96-.88-1.57-.65l-.27.1c-.55.2-1.15-.07-1.35-.62-.04-.1-.06-.2-.07-.32v-.3c-.04-.65-.56-1.17-1.2-1.2h-.3a1.06 1.06 0 0 1-1.02-1.1c0-.1.03-.22.07-.32l.1-.27c.23-.62-.06-1.3-.65-1.57l-.27-.12c-.52-.25-.75-.87-.5-1.4.04-.1.1-.2.18-.27l.2-.22c.45-.48.45-1.22 0-1.7l-.2-.22c-.4-.42-.37-1.1.06-1.48.08-.08.17-.14.27-.2l.28-.1c.6-.28.88-.96.65-1.58l-.1-.28c-.2-.55.07-1.15.62-1.36.1-.03.2-.06.33-.06h.3a1.29 1.29 0 0 0 1.2-1.2v-.3a1.043 1.043 0 0 1 1.42-.95l.27.1c.6.23 1.3-.06 1.57-.65l.13-.27a1.064 1.064 0 0 1 1.67-.32l.2.2c.5.44 1.23.44 1.7 0l.22-.2c.43-.4 1.1-.37 1.5.06.07.08.13.17.17.27l.13.28c.27.6.96.88 1.57.65l.27-.1c.55-.2 1.15.07 1.35.62.04.1.06.2.07.32v.3c.04.65.56 1.17 1.2 1.2h.3c.6.03 1.04.52 1.02 1.1 0 .1-.03.22-.07.32l-.1.27c-.23.62.06 1.3.65 1.57l.27.12c.52.25.75.87.5 1.4-.04.1-.1.2-.18.27l-.2.22a1.24 1.24 0 0 0 0 1.7l.2.22c.4.42.37 1.1-.06 1.48-.08.08-.17.14-.27.2l-.28.1c-.6.28-.88.96-.65 1.58l.05.14-1.63-1.64z"/></symbol><symbol viewBox="0 0 24 24" id="cdr-bookmark-fill" xmlns="http://www.w3.org/2000/svg"><path d="M5 2h14c.55 0 1 .45 1 1v18a1.003 1.003 0 0 1-1.6.8L12 17l-6.4 4.8A1.003 1.003 0 0 1 4 21V3c0-.55.45-1 1-1z"/></symbol><symbol viewBox="0 0 24 24" id="cdr-bookmark-stroke" xmlns="http://www.w3.org/2000/svg"><path d="M5 2h14c.55 0 1 .45 1 1v18a1.003 1.003 0 0 1-1.6.8L12 17l-6.4 4.8A1.003 1.003 0 0 1 4 21V3c0-.55.45-1 1-1zm1 2v15l5.4-4.05a.99.99 0 0 1 1.2 0L18 19V4H6z"/></symbol><symbol viewBox="0 0 24 24" id="cdr-calendar" xmlns="http://www.w3.org/2000/svg"><path d="M18 5h2c.55 0 1 .45 1 1v14c0 .55-.45 1-1 1H4c-.55 0-1-.45-1-1V6c0-.55.45-1 1-1h2v1c0 1.1.9 2 2 2s2-.9 2-2V5h4v1c0 1.1.9 2 2 2s2-.9 2-2V5zM4.5 9v10.5h15V9h-15zM7 11.5h2v2H7v-2zm0 4h2v2H7v-2zm4-4h2v2h-2v-2zm0 4h2v2h-2v-2zm4-4h2v2h-2v-2zm0 4h2v2h-2v-2zM8 3c.55 0 1 .45 1 1v2c0 .55-.45 1-1 1s-1-.45-1-1V4c0-.55.45-1 1-1zm8 0c.55 0 1 .45 1 1v2c0 .55-.45 1-1 1s-1-.45-1-1V4c0-.55.45-1 1-1z"/></symbol><symbol viewBox="0 0 24 24" id="cdr-camera" xmlns="http://www.w3.org/2000/svg"><path d="M3 7h3l1.7-2.55c.2-.28.5-.45.84-.45h6.93c.33 0 .65.17.83.45L18 7h3c.55 0 1 .45 1 1v11c0 .55-.45 1-1 1H3c-.55 0-1-.45-1-1V8c0-.55.45-1 1-1zm1 11h16V9h-2.53c-.34 0-.65-.17-.84-.45L14.93 6H9.07l-1.7 2.55c-.2.28-.5.45-.83.45H4v9zm8 0c-2.76 0-5-2.24-5-5s2.24-5 5-5 5 2.24 5 5-2.24 5-5 5zm0-2c1.66 0 3-1.34 3-3s-1.34-3-3-3-3 1.34-3 3 1.34 3 3 3z"/></symbol><symbol viewBox="0 0 24 24" id="cdr-caret-down" xmlns="http://www.w3.org/2000/svg"><path d="M12 16c.27 0 .52-.1.7-.3l5-5c.4-.38.4-1.02 0-1.4a.967.967 0 0 0-1.4 0L12 13.6 7.7 9.3c-.4-.4-1.02-.4-1.4 0-.4.38-.4 1.02 0 1.4l4.97 5c.2.18.44.3.73.3z"/></symbol><symbol viewBox="0 0 24 24" id="cdr-caret-left" xmlns="http://www.w3.org/2000/svg"><path d="M8 12c0 .27.1.52.3.7l5 5c.38.4 1.02.4 1.4 0 .4-.38.4-1.02 0-1.4L10.4 12l4.3-4.3c.4-.4.4-1.02 0-1.4a.967.967 0 0 0-1.4 0l-5 4.97c-.18.2-.3.44-.3.73z"/></symbol><symbol viewBox="0 0 24 24" id="cdr-caret-right" xmlns="http://www.w3.org/2000/svg"><path d="M16 12c0-.27-.1-.52-.3-.7l-5-5a.967.967 0 0 0-1.4 0c-.4.38-.4 1.02 0 1.4l4.3 4.3-4.3 4.3c-.4.4-.4 1.02 0 1.4.38.4 1.02.4 1.4 0l5-4.97c.18-.2.3-.44.3-.73z"/></symbol><symbol viewBox="0 0 24 24" id="cdr-caret-up" xmlns="http://www.w3.org/2000/svg"><path d="M12 8c-.27 0-.52.1-.7.3l-5 5c-.4.38-.4 1.02 0 1.4.38.4 1.02.4 1.4 0l4.3-4.3 4.3 4.3c.4.4 1.02.4 1.4 0 .4-.38.4-1.02 0-1.4l-4.97-5c-.2-.18-.44-.3-.73-.3z"/></symbol><symbol viewBox="0 0 24 24" id="cdr-cart" xmlns="http://www.w3.org/2000/svg"><path d="M7.37 12.97L5.24 5H4c-.55 0-1-.45-1-1s.45-1 1-1h2c.32 0 .6.15.78.38.1.1.15.23.2.37L7.57 6H20a1.001 1.001 0 0 1 .97 1.25l-1.6 6c-.14.5-.58.8-1.06.75H9.18l-.4 1.5H18c.55 0 1 .45 1 1s-.45 1-1 1H7.47c-.37 0-.7-.2-.86-.5-.13-.22-.17-.5-.1-.77l.87-3.26zm1.8-.97h8.46l1.07-4H8.1l1.08 4zm.08 9a1.25 1.25 0 1 1 0-2.5 1.25 1.25 0 0 1 0 2.5zm7.5 0a1.25 1.25 0 1 1 0-2.5 1.25 1.25 0 0 1 0 2.5z"/></symbol><symbol viewBox="0 0 24 24" id="cdr-chainlink" xmlns="http://www.w3.org/2000/svg"><path d="M15.7 8.3c.4.38.4 1.02 0 1.4l-6 6c-.38.4-1.02.4-1.4 0-.4-.4-.4-1.02 0-1.4l6-6c.38-.4 1-.4 1.4 0zm-1.15 3.98l3.87-3.87c.78-.77.78-2.03 0-2.8-.78-.8-2.05-.8-2.83 0l-3.87 3.85a3.97 3.97 0 0 1 1.03-3.86l1.42-1.43c1.56-1.56 4.1-1.56 5.65 0a4.008 4.008 0 0 1 0 5.66l-1.4 1.4a4.023 4.023 0 0 1-3.88 1.05zm-5.1-.55L5.6 15.6c-.8.77-.8 2.04 0 2.82.77.78 2.03.78 2.8 0l3.88-3.87c.35 1.34 0 2.82-1.04 3.87l-1.4 1.4a4.002 4.002 0 0 1-5.67 0 3.983 3.983 0 0 1 0-5.64l1.42-1.42a3.924 3.924 0 0 1 3.85-1.03z"/></symbol><symbol viewBox="0 0 24 24" id="cdr-chat" xmlns="http://www.w3.org/2000/svg"><path d="M19 17v2a1.003 1.003 0 0 1-1.64.77L14 17H3c-.55 0-1-.45-1-1V5c0-.55.45-1 1-1h18c.55 0 1 .45 1 1v11c0 .55-.45 1-1 1h-2zM4 6v9h10.72L17 16.88V15h3V6H4zm8 5.75c-.7 0-1.25-.56-1.25-1.25A1.25 1.25 0 1 1 12 11.75zm-4.25 0c-.7 0-1.25-.56-1.25-1.25 0-.7.56-1.25 1.25-1.25S9 9.8 9 10.5s-.56 1.25-1.25 1.25zm8.5 0c-.7 0-1.25-.56-1.25-1.25a1.25 1.25 0 1 1 1.25 1.25z"/></symbol><symbol viewBox="0 0 24 24" id="cdr-check-circ-fill" xmlns="http://www.w3.org/2000/svg"><path d="M12 22C6.48 22 2 17.52 2 12S6.48 2 12 2s10 4.48 10 10-4.48 10-10 10zm4.77-13.36c.35-.42.3-1.05-.12-1.4a.986.986 0 0 0-1.4.12l-5.96 7.08-1.53-1.82c-.36-.42-1-.48-1.4-.12-.44.35-.5 1-.14 1.4l2.23 2.67c.18.26.48.43.82.43.3 0 .56-.13.75-.33l6.74-8.03z"/></symbol><symbol viewBox="0 0 24 24" id="cdr-check-circ-stroke" xmlns="http://www.w3.org/2000/svg"><path d="M12 22C6.48 22 2 17.52 2 12S6.48 2 12 2s10 4.48 10 10-4.48 10-10 10zm0-2c4.42 0 8-3.58 8-8s-3.58-8-8-8-8 3.58-8 8 3.58 8 8 8zm4.77-11.36l-6.74 8.03c-.2.2-.45.33-.75.33-.34 0-.64-.17-.82-.43L6.23 13.9c-.35-.4-.3-1.04.13-1.4a.996.996 0 0 1 1.4.12l1.53 1.82 5.94-7.08c.35-.42.98-.48 1.4-.12.43.35.48.98.13 1.4z"/></symbol><symbol viewBox="0 0 24 24" id="cdr-check-lg" xmlns="http://www.w3.org/2000/svg"><path d="M9.67 18.67l10.1-12.03c.35-.42.3-1.05-.13-1.4a.987.987 0 0 0-1.4.12l-9.3 11.08-3.17-3.77c-.36-.43-1-.48-1.4-.13-.44.36-.5 1-.14 1.4l3.88 4.63c.2.26.5.43.83.43.3 0 .56-.13.74-.33z"/></symbol><symbol viewBox="0 0 24 24" id="cdr-check-sm" xmlns="http://www.w3.org/2000/svg"><path d="M16.77 8.64c.35-.42.3-1.05-.12-1.4a.986.986 0 0 0-1.4.12l-5.96 7.08-1.53-1.82c-.36-.42-1-.47-1.4-.12-.44.36-.5 1-.14 1.4l2.23 2.67c.18.26.48.43.82.43.3 0 .56-.13.75-.33l6.74-8.03z"/></symbol><symbol viewBox="0 0 24 24" id="cdr-climb" xmlns="http://www.w3.org/2000/svg"><path d="M19.24 11.3c.54.14.86.68.73 1.22L18.9 16.5c-.14.53-.68.86-1.22.73l-.5-.13c-.2.6-.4 1.24-.6 1.9-.77 1.77-2.53 3-4.58 3-2 0-3.74-1.18-4.54-2.9-2-4.48-3.14-8.22-3.45-11.23V7.5A5.482 5.482 0 0 1 9.5 2c1.2 0 3.04.24 5.5.7 2.3.67 4 2.8 4 5.3 0 .85-.12 1.9-.35 3.16l.6.15zM17 8c0-1.55-1-2.9-2.46-3.34-2.3-.44-4-.66-5.04-.66C7.57 4 6 5.57 6 7.5v.22c.3 2.76 1.4 6.3 3.28 10.54C9.78 19.3 10.82 20 12 20c1.17 0 2.22-.68 2.7-1.72.2-.57.37-1.13.53-1.67l-.46-.1a.994.994 0 0 1-.73-1.2l1.08-4a.99.99 0 0 1 1.2-.72l.4.1C16.9 9.6 17 8.7 17 8zm-.76 6.8l.97.25.56-2.05-.97-.24-.56 2.05z"/></symbol><symbol viewBox="0 0 24 24" id="cdr-coupon" xmlns="http://www.w3.org/2000/svg"><path d="M12.4 3H20c.55 0 1 .45 1 1v7.6c0 .25-.12.5-.3.7l-8.4 8.4c-.4.4-1.03.4-1.42 0L3.3 13.2c-.4-.4-.4-1.02 0-1.4l8.4-8.5c.18-.2.44-.3.7-.3zm.42 2l-7.4 7.48 6.16 6.1 7.4-7.4L19 5h-6.18zm3.93 3.5a1.25 1.25 0 1 1 0-2.5 1.25 1.25 0 0 1 0 2.5z"/></symbol><symbol viewBox="0 0 24 24" id="cdr-coupon-fill" xmlns="http://www.w3.org/2000/svg"><path d="M12.4 3H20c.55 0 1 .45 1 1v7.6c0 .25-.12.5-.3.7l-8.4 8.4c-.4.4-1.03.4-1.42 0L3.3 13.2c-.4-.4-.4-1.02 0-1.4l8.4-8.5c.18-.2.44-.3.7-.3zm4.35 5.5a1.25 1.25 0 1 0 0-2.5 1.25 1.25 0 0 0 0 2.5z"/></symbol><symbol viewBox="0 0 24 24" id="cdr-creditcard" xmlns="http://www.w3.org/2000/svg"><path d="M3 5h18c.55 0 1 .45 1 1v12c0 .55-.45 1-1 1H3c-.55 0-1-.45-1-1V6c0-.55.45-1 1-1zm17 4V7H4v2h16zm0 3H4v5h16v-5zm-4 2h3v2h-3v-2zm-3 0h2v2h-2v-2z"/></symbol><symbol viewBox="0 0 24 24" id="cdr-download" xmlns="http://www.w3.org/2000/svg"><path d="M11 14.6V3c0-.55.45-1 1-1s1 .45 1 1v11.6l3.3-3.3c.38-.4 1.02-.4 1.4 0 .4.38.4 1.02 0 1.4l-5 5c-.18.2-.43.3-.7.3-.3 0-.54-.12-.73-.3-3.3-3.33-4.97-5-4.98-5a.967.967 0 0 1 0-1.4c.38-.4 1-.4 1.4 0l3.3 3.3zM6 20h12v-2c0-.55.45-1 1-1s1 .45 1 1v3c0 .28-.1.53-.3.7-.17.2-.42.3-.7.3H5c-.28 0-.53-.1-.7-.3-.2-.17-.3-.42-.3-.7v-3c0-.55.45-1 1-1s1 .45 1 1v2z"/></symbol><symbol viewBox="0 0 24 24" id="cdr-expand" xmlns="http://www.w3.org/2000/svg"><path d="M19 6.42l-4.3 4.3c-.38.38-1.02.38-1.4 0-.4-.4-.4-1.04 0-1.43L17.57 5H15c-.55 0-1-.45-1-1s.45-1 1-1h5c.26 0 .52.1.7.3.2.2.3.46.3.73V9c0 .55-.45 1-1 1s-1-.45-1-1V6.42zM5 17.58l4.3-4.3c.4-.38 1.02-.38 1.4 0 .4.4.4 1.04 0 1.43L6.43 19H9c.55 0 1 .45 1 1s-.45 1-1 1H4c-.26 0-.5-.1-.7-.3-.2-.2-.3-.46-.3-.73V15c0-.55.45-1 1-1s1 .45 1 1v2.58z"/></symbol><symbol viewBox="0 0 24 24" id="cdr-external" xmlns="http://www.w3.org/2000/svg"><path d="M19 6.42l-8.3 8.3c-.4.38-1.02.38-1.4 0-.4-.4-.4-1.04 0-1.43L17.57 5H15c-.55 0-1-.45-1-1s.45-1 1-1h5c.26 0 .5.1.7.3.2.2.3.46.3.73V9c0 .55-.45 1-1 1s-1-.45-1-1V6.42zM3.3 7.3c.17-.2.42-.3.7-.3h6c.55 0 1 .45 1 1s-.45 1-1 1H5v10h10v-5c0-.55.45-1 1-1s1 .45 1 1v6c0 .28-.1.53-.3.7-.17.2-.42.3-.7.3H4c-.28 0-.53-.1-.7-.3-.2-.17-.3-.42-.3-.7V8c0-.28.1-.53.3-.7z"/></symbol><symbol viewBox="0 0 24 24" id="cdr-facebook" xmlns="http://www.w3.org/2000/svg"><path d="M9.68 20.9v-8.25H7V9.7h2.68V7.5S9.48 3 13.38 3H17v3.02h-2.4s-1.46-.08-1.48 1.42V9.7h3.34L16 12.64h-2.9V21H9.67v-.1z"/></symbol><symbol viewBox="0 0 24 24" id="cdr-heart-fill" xmlns="http://www.w3.org/2000/svg"><path d="M12.7 20.7c-.18.2-.43.3-.7.3-.3 0-.54-.12-.73-.3-5.05-5-7.76-7.72-8.13-8.2C2.57 11.83 2 10.3 2 9c0-3.3 2.7-6 6-6 1.54 0 2.94.58 4 1.53A5.97 5.97 0 0 1 16 3c3.3 0 6 2.7 6 6 0 1.4-.5 2.7-1.3 3.73-.54.68-3.2 3.34-8 7.98z"/></symbol><symbol viewBox="0 0 24 24" id="cdr-heart-stroke" xmlns="http://www.w3.org/2000/svg"><path d="M12.7 20.7c-.18.2-.43.3-.7.3-.3 0-.54-.12-.73-.3-5.05-5-7.76-7.72-8.13-8.2C2.57 11.83 2 10.3 2 9c0-3.3 2.7-6 6-6 1.54 0 2.94.58 4 1.53A5.97 5.97 0 0 1 16 3c3.3 0 6 2.7 6 6 0 1.4-.5 2.7-1.3 3.73-.54.68-3.2 3.34-8 7.98zM11.2 6.6C10.45 5.62 9.3 5 8 5 5.8 5 4 6.8 4 9c0 .87.28 1.68.76 2.34.32.44 2.73 2.86 7.24 7.25 4.37-4.17 6.8-6.58 7.24-7.26.68-1 .76-1.46.76-2.34 0-2.2-1.8-4-4-4-1.3 0-2.46.62-3.2 1.58l-.02.04c-.18.23-.46.38-.78.38-.3 0-.58-.14-.76-.35l-.05-.07z"/></symbol><symbol viewBox="0 0 24 24" id="cdr-help-circ-fill" xmlns="http://www.w3.org/2000/svg"><path d="M12 22C6.48 22 2 17.52 2 12S6.48 2 12 2s10 4.48 10 10-4.48 10-10 10zm0-4c.7 0 1.25-.56 1.25-1.25S12.7 15.5 12 15.5s-1.25.56-1.25 1.25S11.3 18 12 18zm1.5-8.5c0 .82-.88 1.12-1.5 1.75-.62.63-1 1.3-1 2.26 0 .56.45 1 1 1s1-.44 1-1c0-.25.06-.5.17-.7.13-.23.3-.43.53-.57.23-.14 1.8-.93 1.8-2.73C15.5 7.57 13.93 6 12 6S8.5 7.57 8.5 9.5c0 .55.45 1 1 1s1-.45 1-1c0-.83.67-1.5 1.5-1.5s1.5.67 1.5 1.5z"/></symbol><symbol viewBox="0 0 24 24" id="cdr-help-circ-stroke" xmlns="http://www.w3.org/2000/svg"><path d="M12 22C6.48 22 2 17.52 2 12S6.48 2 12 2s10 4.48 10 10-4.48 10-10 10zm0-2c4.42 0 8-3.58 8-8s-3.58-8-8-8-8 3.58-8 8 3.58 8 8 8zm0-2c-.7 0-1.25-.56-1.25-1.25S11.3 15.5 12 15.5s1.25.56 1.25 1.25S12.7 18 12 18zm1.5-8.5c0-.83-.67-1.5-1.5-1.5s-1.5.67-1.5 1.5c0 .55-.45 1-1 1s-1-.45-1-1C8.5 7.57 10.07 6 12 6s3.5 1.57 3.5 3.5c0 1.8-1.57 2.6-1.8 2.73-.22.14-.4.34-.53.57-.1.2-.17.45-.17.7 0 .56-.45 1-1 1s-1-.44-1-1c0-.95.38-1.62 1-2.25.62-.63 1.5-.93 1.5-1.75z"/></symbol><symbol viewBox="0 0 24 24" id="cdr-image" xmlns="http://www.w3.org/2000/svg"><path d="M4 3h16c.55 0 1 .45 1 1v16c0 .55-.45 1-1 1H4c-.55 0-1-.45-1-1V4c0-.55.45-1 1-1zm15 9.15V5H5v11.04l6.5-3.75c.3-.2.7-.2 1 0l1.13.64 2.87-1.65c.3-.2.7-.2 1 0l1.5.85zm0 2.3l-2-1.14-2.87 1.66c-.3.18-.7.18-1 0L12 14.3l-7 4.05V19h14v-4.54zM8.25 9.5a1.25 1.25 0 1 1 0-2.5 1.25 1.25 0 0 1 0 2.5z"/></symbol><symbol viewBox="0 0 24 24" id="cdr-info-circ-fill" xmlns="http://www.w3.org/2000/svg"><path d="M11 16v-4c-.55 0-1-.45-1-1s.45-1 1-1h1c.28 0 .53.1.7.3.2.17.3.42.3.7v5c.55 0 1 .45 1 1s-.45 1-1 1h-2c-.55 0-1-.45-1-1s.45-1 1-1zm1 6C6.48 22 2 17.52 2 12S6.48 2 12 2s10 4.48 10 10-4.48 10-10 10zm0-13.5c-.7 0-1.25-.56-1.25-1.25S11.3 6 12 6s1.25.56 1.25 1.25S12.7 8.5 12 8.5z"/></symbol><symbol viewBox="0 0 24 24" id="cdr-info-circ-stroke" xmlns="http://www.w3.org/2000/svg"><path d="M12 22C6.48 22 2 17.52 2 12S6.48 2 12 2s10 4.48 10 10-4.48 10-10 10zm0-2c4.42 0 8-3.58 8-8s-3.58-8-8-8-8 3.58-8 8 3.58 8 8 8zm-1-8c-.55 0-1-.45-1-1s.45-1 1-1h1c.28 0 .53.1.7.3.2.17.3.42.3.7v5c.55 0 1 .45 1 1s-.45 1-1 1h-2c-.55 0-1-.45-1-1s.45-1 1-1v-4zm1.03-3.44c-.7 0-1.28-.57-1.28-1.28 0-.7.57-1.28 1.28-1.28.7 0 1.28.57 1.28 1.28s-.56 1.28-1.27 1.28z"/></symbol><symbol viewBox="0 0 24 24" id="cdr-instagram" xmlns="http://www.w3.org/2000/svg"><path d="M8 3h8c2.76 0 5 2.24 5 5v8c0 2.76-2.24 5-5 5H8c-2.76 0-5-2.24-5-5V8c0-2.76 2.24-5 5-5zm0 2C6.34 5 5 6.34 5 8v8c0 1.66 1.34 3 3 3h8c1.66 0 3-1.34 3-3V8c0-1.66-1.34-3-3-3H8zm4 12c-2.76 0-5-2.24-5-5s2.24-5 5-5 5 2.24 5 5-2.24 5-5 5zm0-2c1.66 0 3-1.34 3-3s-1.34-3-3-3-3 1.34-3 3 1.34 3 3 3zm4.75-6.75c-.55 0-1-.45-1-1s.45-1 1-1 1 .45 1 1-.45 1-1 1z"/></symbol><symbol viewBox="0 0 24 24" id="cdr-loc-pin" xmlns="http://www.w3.org/2000/svg"><path d="M12.72 21.7c-.42.4-1.05.4-1.44 0C6.43 16.7 4 12.8 4 10c0-4.42 3.58-8 8-8s8 3.58 8 8c0 2.8-2.43 6.7-7.28 11.7zM18 10c0-3.3-2.7-6-6-6s-6 2.7-6 6c0 2 1.97 5.28 6 9.55 4.03-4.27 6-7.54 6-9.55zm-6 1.5c-.83 0-1.5-.67-1.5-1.5s.67-1.5 1.5-1.5 1.5.67 1.5 1.5-.67 1.5-1.5 1.5z"/></symbol><symbol viewBox="0 0 24 24" id="cdr-loc-pin-fill" xmlns="http://www.w3.org/2000/svg"><path d="M12.72 21.7c-.42.4-1.05.4-1.44 0C6.43 16.7 4 12.8 4 10c0-4.42 3.58-8 8-8s8 3.58 8 8c0 2.8-2.43 6.7-7.28 11.7zM12 11.5c.83 0 1.5-.67 1.5-1.5s-.67-1.5-1.5-1.5-1.5.67-1.5 1.5.67 1.5 1.5 1.5z"/></symbol><symbol viewBox="0 0 24 24" id="cdr-locate" xmlns="http://www.w3.org/2000/svg"><path d="M4.06 11H5c.55 0 1 .45 1 1s-.45 1-1 1h-.94c.45 3.62 3.32 6.5 6.94 6.94V19c0-.55.45-1 1-1s1 .45 1 1v.94c3.62-.45 6.5-3.32 6.94-6.94H19c-.55 0-1-.45-1-1s.45-1 1-1h.94A7.983 7.983 0 0 0 13 4.06V5c0 .55-.45 1-1 1s-1-.45-1-1v-.94C7.38 4.5 4.5 7.38 4.06 11zM12 22C6.48 22 2 17.52 2 12S6.48 2 12 2s10 4.48 10 10-4.48 10-10 10zm0-8.75a1.25 1.25 0 1 1 0-2.5 1.25 1.25 0 0 1 0 2.5z"/></symbol><symbol viewBox="0 0 24 24" id="cdr-mail" xmlns="http://www.w3.org/2000/svg"><path d="M5.34 7L12 10.85 18.66 7H5.34zM20 8.54l-7.48 4.32-.1.05c-.15.07-.3.1-.44.1-.15 0-.32-.04-.48-.13L4 8.54V17h16V8.54zM3 5h18c.55 0 1 .45 1 1v12c0 .55-.45 1-1 1H3c-.55 0-1-.45-1-1V6c0-.55.45-1 1-1z"/></symbol><symbol viewBox="0 0 24 24" id="cdr-minus-circ-fill" xmlns="http://www.w3.org/2000/svg"><path d="M12 22C6.48 22 2 17.52 2 12S6.48 2 12 2s10 4.48 10 10-4.48 10-10 10zM8 11c-.55 0-1 .45-1 1s.45 1 1 1h8c.55 0 1-.45 1-1s-.45-1-1-1H8z"/></symbol><symbol viewBox="0 0 24 24" id="cdr-minus-circ-stroke" xmlns="http://www.w3.org/2000/svg"><path d="M12 22C6.48 22 2 17.52 2 12S6.48 2 12 2s10 4.48 10 10-4.48 10-10 10zm0-2c4.42 0 8-3.58 8-8s-3.58-8-8-8-8 3.58-8 8 3.58 8 8 8zm-4-9h8c.55 0 1 .45 1 1s-.45 1-1 1H8c-.55 0-1-.45-1-1s.45-1 1-1z"/></symbol><symbol viewBox="0 0 24 24" id="cdr-minus-lg" xmlns="http://www.w3.org/2000/svg"><rect x="5" y="11" width="14" height="2" rx="1"/></symbol><symbol viewBox="0 0 24 24" id="cdr-minus-sm" xmlns="http://www.w3.org/2000/svg"><rect x="7" y="11" width="10" height="2" rx="1"/></symbol><symbol viewBox="0 0 24 24" id="cdr-more" xmlns="http://www.w3.org/2000/svg"><path d="M12 7c-.83 0-1.5-.67-1.5-1.5S11.17 4 12 4s1.5.67 1.5 1.5S12.83 7 12 7zm0 6.5c-.83 0-1.5-.67-1.5-1.5s.67-1.5 1.5-1.5 1.5.67 1.5 1.5-.67 1.5-1.5 1.5zm0 6.5c-.83 0-1.5-.67-1.5-1.5S11.17 17 12 17s1.5.67 1.5 1.5S12.83 20 12 20z"/></symbol><symbol viewBox="0 0 24 24" id="cdr-nav" xmlns="http://www.w3.org/2000/svg"><path d="M4 5h16c.55 0 1 .45 1 1s-.45 1-1 1H4c-.55 0-1-.45-1-1s.45-1 1-1zm0 6h16c.55 0 1 .45 1 1s-.45 1-1 1H4c-.55 0-1-.45-1-1s.45-1 1-1zm0 6h16c.55 0 1 .45 1 1s-.45 1-1 1H4c-.55 0-1-.45-1-1s.45-1 1-1z"/></symbol><symbol viewBox="0 0 24 24" id="cdr-nav-alt" xmlns="http://www.w3.org/2000/svg"><path d="M4 5h16c.55 0 1 .45 1 1s-.45 1-1 1H4c-.55 0-1-.45-1-1s.45-1 1-1zm0 6h10c.55 0 1 .45 1 1s-.45 1-1 1H4c-.55 0-1-.45-1-1s.45-1 1-1zm0 6h14c.55 0 1 .45 1 1s-.45 1-1 1H4c-.55 0-1-.45-1-1s.45-1 1-1z"/></symbol><symbol viewBox="0 0 24 24" id="cdr-phone" xmlns="http://www.w3.org/2000/svg"><path d="M4.36 5.783l1.848-1.548a1.015 1.015 0 0 1 1.663.726l.008.116c.065.738.196 1.458.386 2.153.055.197.14.462.255.795.09.26.07.542-.052.786l-.965 1.932a14.275 14.275 0 0 0 5.756 5.757l1.93-.967a1.01 1.01 0 0 1 .785-.05c.33.114.595.2.792.253.7.192 1.423.323 2.166.388l.107.007c.22.013.43.096.6.24.428.36.482 1 .12 1.428l-1.557 1.846a.998.998 0 0 1-.936.34c-.57-.1-1.012-.192-1.327-.273A16.24 16.24 0 0 1 4.289 8.068a17.791 17.791 0 0 1-.275-1.336 1.01 1.01 0 0 1 .344-.947z"/></symbol><symbol viewBox="0 0 24 24" id="cdr-pinterest" xmlns="http://www.w3.org/2000/svg"><path d="M7.677 17.192l1.246-5.156s.126-.623-.196-1.178c0 0-.718-1.77.7-3.273 0 0 1.16-1.298 2.647-.32 0 0 .848.66.506 1.907l-1.01 3.113s-.615 2.367 1.666 2.57c0 0 2.408.32 3.57-2.9 1.16-3.222-.19-5.274-.19-5.274s-1.737-3.01-5.66-2.377c-3.925.634-4.42 4.33-4.42 4.33s-.296 2.278.935 3.938l-.588 1.987S3.878 12.66 4.004 9.25c0 0 .126-5.683 6.013-7.053 0 0 5.33-1.326 8.487 2.904 1.766 2.367 1.64 4.943 1.262 6.854-.38 1.91-1.808 3.133-1.808 3.133s-3.864 4.048-7.226.476l-.715 2.723S9.177 21.236 8.04 22l-.523-.132s-.26-3.287.16-4.676z"/></symbol><symbol viewBox="0 0 24 24" id="cdr-play-circ-fill" xmlns="http://www.w3.org/2000/svg"><path d="M12 22C6.48 22 2 17.52 2 12S6.48 2 12 2s10 4.48 10 10-4.48 10-10 10zm4.73-9.56c.1-.05.16-.12.2-.2.13-.25.04-.55-.2-.68l-7-3.75a.852.852 0 0 0-.23-.04c-.28 0-.5.22-.5.5v7.5c0 .08.02.16.06.23.13.23.43.33.68.2l7-3.76z"/></symbol><symbol viewBox="0 0 24 24" id="cdr-play-circ-stroke" xmlns="http://www.w3.org/2000/svg"><path d="M12 22C6.48 22 2 17.52 2 12S6.48 2 12 2s10 4.48 10 10-4.48 10-10 10zm0-2c4.42 0 8-3.58 8-8s-3.58-8-8-8-8 3.58-8 8 3.58 8 8 8zm4.73-7.56l-7 3.75c-.24.13-.54.03-.67-.2a.542.542 0 0 1-.06-.25v-7.5c0-.27.22-.5.5-.5.08 0 .16.03.24.06l7 3.76c.23.13.32.43.2.68-.05.08-.12.15-.2.2z"/></symbol><symbol viewBox="0 0 24 24" id="cdr-plus-circ-fill" xmlns="http://www.w3.org/2000/svg"><path d="M11 11H8c-.55 0-1 .45-1 1s.45 1 1 1h3v3c0 .55.45 1 1 1s1-.45 1-1v-3h3c.55 0 1-.45 1-1s-.45-1-1-1h-3V8c0-.55-.45-1-1-1s-1 .45-1 1v3zm1 11C6.48 22 2 17.52 2 12S6.48 2 12 2s10 4.48 10 10-4.48 10-10 10z"/></symbol><symbol viewBox="0 0 24 24" id="cdr-plus-circ-stroke" xmlns="http://www.w3.org/2000/svg"><path d="M11 11V8c0-.55.45-1 1-1s1 .45 1 1v3h3c.55 0 1 .45 1 1s-.45 1-1 1h-3v3c0 .55-.45 1-1 1s-1-.45-1-1v-3H8c-.55 0-1-.45-1-1s.45-1 1-1h3zm1 11C6.48 22 2 17.52 2 12S6.48 2 12 2s10 4.48 10 10-4.48 10-10 10zm0-2c4.42 0 8-3.58 8-8s-3.58-8-8-8-8 3.58-8 8 3.58 8 8 8z"/></symbol><symbol viewBox="0 0 24 24" id="cdr-plus-lg" xmlns="http://www.w3.org/2000/svg"><path d="M11 11H6c-.55 0-1 .45-1 1s.45 1 1 1h5v5c0 .55.45 1 1 1s1-.45 1-1v-5h5c.55 0 1-.45 1-1s-.45-1-1-1h-5V6c0-.55-.45-1-1-1s-1 .45-1 1v5z"/></symbol><symbol viewBox="0 0 24 24" id="cdr-plus-sm" xmlns="http://www.w3.org/2000/svg"><path d="M11 11H8c-.55 0-1 .45-1 1s.45 1 1 1h3v3c0 .55.45 1 1 1s1-.45 1-1v-3h3c.55 0 1-.45 1-1s-.45-1-1-1h-3V8c0-.55-.45-1-1-1s-1 .45-1 1v3z"/></symbol><symbol viewBox="0 0 24 24" id="cdr-print" xmlns="http://www.w3.org/2000/svg"><path d="M3 17c-.55 0-1-.45-1-1V9c0-.55.45-1 1-1h4V5c0-.55.45-1 1-1h8c.55 0 1 .45 1 1v3h4c.55 0 1 .45 1 1v7c0 .55-.45 1-1 1h-3l.56 1.68a.99.99 0 0 1-.95 1.32H6.4c-.56 0-1-.45-1-1 0-.1 0-.2.04-.32L6 17H3zm14.33-2H20v-5H4v5h2.67l.1-.32c.14-.4.52-.68.95-.68h8.56c.43 0 .8.28.95.68l.1.32zM8.5 8h7V5.5h-7V8zM7.27 18.5h9.46l-.67-3H7.94l-.67 3zm10.48-5a1.25 1.25 0 1 1 0-2.5 1.25 1.25 0 0 1 0 2.5z"/></symbol><symbol viewBox="0 0 24 24" id="cdr-recent" xmlns="http://www.w3.org/2000/svg"><path d="M12 22C6.48 22 2 17.52 2 12S6.48 2 12 2s10 4.48 10 10-4.48 10-10 10zm0-2c4.42 0 8-3.58 8-8s-3.58-8-8-8-8 3.58-8 8 3.58 8 8 8zm.5-8.15l2.78 2.77c.3.3.3.8 0 1.1-.3.3-.8.3-1.1 0l-2.88-2.87c-.2-.15-.3-.36-.3-.6v-5.5c0-.4.34-.75.75-.75s.75.34.75.75v5.1z"/></symbol><symbol viewBox="0 0 24 24" id="cdr-refresh" xmlns="http://www.w3.org/2000/svg"><path d="M21 12c0 .55-.45 1-1 1s-1-.45-1-1A6.995 6.995 0 0 0 8.4 6H9c.55 0 1 .45 1 1s-.45 1-1 1H6c-.26 0-.5-.1-.7-.3-.2-.2-.3-.46-.3-.73V4c0-.55.45-1 1-1s1 .45 1 1v.52A8.94 8.94 0 0 1 12 3a9 9 0 0 1 9 9zm-5.4 6H15c-.55 0-1-.45-1-1s.45-1 1-1h3c.26 0 .5.1.7.3.2.2.3.46.3.73V20c0 .55-.45 1-1 1s-1-.45-1-1v-.52A8.94 8.94 0 0 1 12 21a9 9 0 0 1-9-9c0-.55.45-1 1-1s1 .45 1 1a6.995 6.995 0 0 0 10.6 6z"/></symbol><symbol viewBox="0 0 24 24" id="cdr-reload" xmlns="http://www.w3.org/2000/svg"><path d="M8.4 6A6.995 6.995 0 0 1 19 12c0 3.87-3.13 7-7 7s-7-3.13-7-7c0-.55-.45-1-1-1s-1 .45-1 1a9 9 0 1 0 9-9c-1.85 0-3.57.56-5 1.52V4c0-.55-.45-1-1-1s-1 .45-1 1v2.97c0 .27.1.53.3.74.2.2.44.3.7.3h3c.55 0 1-.45 1-1s-.45-1-1-1h-.6z"/></symbol><symbol viewBox="0 0 24 24" id="cdr-service" xmlns="http://www.w3.org/2000/svg"><path d="M12.458 10.19l-1.985-1.988c.156-.42.24-.872.24-1.345A3.855 3.855 0 0 0 6.858 3a.552.552 0 0 0-.392.943l1.69 1.69-.498 1.862-1.864.5L4.17 6.37A.687.687 0 0 0 3 6.855a3.857 3.857 0 0 0 5.202 3.617l1.988 1.984-.787.788-.33-.01a1.288 1.288 0 0 0-.948.377l-4.75 4.756c-.5.502-.5 1.316.002 1.817l.433.434a1.284 1.284 0 0 0 1.817.002l4.758-4.75c.25-.25.387-.594.376-.948l-.007-.3.803-.803 6.813 6.802c.5.5 1.314.5 1.816 0l.433-.435c.5-.5.502-1.315 0-1.818l-6.8-6.814 3.69-3.69L19 7.62a1.29 1.29 0 0 0 .983-.792l.895-2.236a.504.504 0 0 0-.11-.54l-.82-.82a.504.504 0 0 0-.54-.11l-2.236.895c-.417.167-.717.54-.79.982l-.255 1.52-3.67 3.67z"/></symbol><symbol viewBox="0 0 24 24" id="cdr-share" xmlns="http://www.w3.org/2000/svg"><path d="M13 5.4V16c0 .55-.45 1-1 1s-1-.45-1-1V5.4L8.7 7.7c-.38.4-1.02.4-1.4 0a.967.967 0 0 1 0-1.4l4-4c.18-.2.43-.3.7-.3.3 0 .54.12.73.3l3.98 4c.4.38.4 1.02 0 1.4-.38.4-1 .4-1.4 0L13 5.4zM6 20h12v-8h-2.5c-.55 0-1-.45-1-1s.45-1 1-1H19c.55 0 1 .45 1 1v10c0 .28-.1.53-.3.7-.17.2-.42.3-.7.3H5c-.28 0-.53-.1-.7-.3-.2-.17-.3-.42-.3-.7V11c0-.55.45-1 1-1h3.5c.55 0 1 .45 1 1 0 .56-.45 1-1 1H6v8z"/></symbol><symbol viewBox="0 0 24 24" id="cdr-ship" xmlns="http://www.w3.org/2000/svg"><path d="M3.6 6.73l8-3.64a.87.87 0 0 1 .8 0l8 3.63c.37.16.6.52.6.9v8.7c0 .4-.23.77-.6.93l-8 3.65c-.25.12-.55.12-.8 0l-8-3.64a.995.995 0 0 1-.6-.92v-8.7c0-.4.23-.75.6-.9zM5 9.2v6.5l6 2.68v-6.53L5 9.2zm8 9.18l6-2.65V9.2l-6 2.68v6.5zM6.47 7.65l2.05.92 5.5-2.47L12 5.18 6.47 7.65zm3.5 1.55l2.03.92 5.5-2.47-2.02-.92L9.96 9.2zM6 13l2 .86v2L6 15v-2z"/></symbol><symbol viewBox="0 0 24 24" id="cdr-shopping-bag" xmlns="http://www.w3.org/2000/svg"><path d="M7 8c0-2.76 2.24-5 5-5s5 2.24 5 5h2.07c.52 0 .96.4 1 .92l.93 11c.04.55-.36 1.03-.9 1.08H4c-.55 0-1-.45-1-1v-.08l.92-11c.04-.52.47-.92 1-.92H7zm-1.17 2l-.74 9h13.8l-.74-9H17v1c0 .55-.45 1-1 1s-1-.45-1-1v-1H9v1c0 .55-.45 1-1 1s-1-.45-1-1v-1H5.83zM12 5c-1.66 0-3 1.34-3 3h6c0-1.66-1.34-3-3-3z"/></symbol><symbol viewBox="0 0 24 24" id="cdr-shrink" xmlns="http://www.w3.org/2000/svg"><path d="M9 16.42l-4.3 4.3c-.38.38-1.02.38-1.4 0-.4-.4-.4-1.04 0-1.43L7.57 15H5c-.55 0-1-.45-1-1s.45-1 1-1h5c.26 0 .52.1.7.3.2.2.3.46.3.73V19c0 .55-.45 1-1 1s-1-.45-1-1v-2.58zm6-8.84l4.3-4.3c.4-.38 1.02-.38 1.4 0 .4.4.4 1.04 0 1.43L16.43 9H19c.55 0 1 .45 1 1s-.45 1-1 1h-5c-.26 0-.5-.1-.7-.3-.2-.2-.3-.46-.3-.73V5c0-.55.45-1 1-1s1 .45 1 1v2.58z"/></symbol><symbol viewBox="0 0 24 24" id="cdr-sizechart" xmlns="http://www.w3.org/2000/svg"><path d="M14.828 18.364l.927.926 3.535-3.535L8.245 4.71 4.71 8.245l.926.927 1.237-1.238a.749.749 0 1 1 1.06 1.06l-1.236 1.238 1.06 1.06.53-.53a.75.75 0 0 1 1.06 0 .747.747 0 0 1 0 1.06l-.53.532.885.883L10.94 12A.749.749 0 1 1 12 13.06l-1.237 1.24.883.884.53-.53a.749.749 0 1 1 1.06 1.06l-.53.53 1.062 1.06 1.237-1.236a.749.749 0 1 1 1.06 1.06l-1.237 1.238zM8.962 3.296l11.752 11.752a1 1 0 0 1 0 1.414l-4.252 4.243a1 1 0 0 1-1.414 0L3.296 8.952a1 1 0 0 1 0-1.414l4.242-4.242c.39-.39 1.033-.39 1.424 0z"/></symbol><symbol viewBox="0 0 24 24" id="cdr-snow" xmlns="http://www.w3.org/2000/svg"><path d="M13.31 12.75h3.28l1.856 1.857a.749.749 0 1 0 1.06-1.06l-.795-.797h2.54a.75.75 0 0 0 0-1.5h-2.5l.76-.76a.75.75 0 0 0-1.062-1.06l-1.82 1.82h-3.297l1.64-2.837 2.485-.666a.751.751 0 0 0-.388-1.45l-1.037.28 1.26-2.185a.75.75 0 1 0-1.299-.75l-1.28 2.218-.292-1.09a.75.75 0 1 0-1.448.39l.68 2.536-1.63 2.822-1.66-2.874.666-2.486a.75.75 0 0 0-1.45-.388l-.277 1.037-1.26-2.184a.75.75 0 0 0-1.299.749L8.02 6.59 6.935 6.3a.75.75 0 0 0-.388 1.448l2.536.68 1.63 2.822h-3.32l-1.82-1.82a.749.749 0 1 0-1.06 1.06l.76.76H2.75a.75.75 0 0 0 0 1.5h2.56l-.796.796a.749.749 0 1 0 1.06 1.06L7.43 12.75h3.303l-1.66 2.877-2.538.68a.75.75 0 1 0 .39 1.448l1.086-.29-1.27 2.198a.751.751 0 0 0 1.3.75l1.25-2.165.278 1.037a.751.751 0 0 0 1.45-.388l-.667-2.486 1.67-2.892 1.64 2.84-.68 2.537c-.106.4.132.81.532.92.4.106.81-.132.918-.532l.292-1.087 1.27 2.2a.75.75 0 0 0 1.298-.752l-1.25-2.165 1.038.278a.75.75 0 0 0 .388-1.45l-2.486-.665-1.67-2.893z"/></symbol><symbol viewBox="0 0 24 24" id="cdr-spyglass" xmlns="http://www.w3.org/2000/svg"><path d="M20.7 19.3c.4.38.4 1.02 0 1.4-.38.4-1.02.4-1.4 0l-4.25-4.24A7.432 7.432 0 0 1 10.5 18C6.36 18 3 14.64 3 10.5 3 6.36 6.36 3 10.5 3c4.14 0 7.5 3.36 7.5 7.5 0 1.7-.57 3.3-1.54 4.55l4.25 4.24zM10.5 16c3.04 0 5.5-2.46 5.5-5.5S13.54 5 10.5 5 5 7.46 5 10.5 7.46 16 10.5 16z"/></symbol><symbol viewBox="0 0 24 24" id="cdr-star-100" xmlns="http://www.w3.org/2000/svg"><path d="M12 17.13l-5.26 3.8c-.15.12-.37.1-.5-.07a.4.4 0 0 1-.04-.3l2.02-6.32-5.08-3.77c-.15-.12-.2-.34-.07-.5.06-.08.16-.13.27-.13l6.32-.27 2-6.33c.06-.18.26-.28.45-.22.1.03.2.12.23.22l2 6.33 6.33.27c.2 0 .35.17.34.36 0 .1-.06.2-.14.27l-5.08 3.77 2.02 6.3c.05.2-.05.4-.23.45-.1.02-.22 0-.3-.06L12 17.14z"/></symbol><symbol viewBox="0 0 24 24" id="cdr-star-25" xmlns="http://www.w3.org/2000/svg"><path d="M8 20.03l-1.26.9c-.15.12-.37.1-.5-.07a.4.4 0 0 1-.04-.3L8 14.92v5.1zm0-5.95l-4.86-3.6c-.15-.13-.2-.35-.07-.5.06-.1.16-.14.27-.14L8 9.64v4.44z"/></symbol><symbol viewBox="0 0 24 24" id="cdr-star-50" xmlns="http://www.w3.org/2000/svg"><path d="M12 3c-.15 0-.3.1-.33.24l-2 6.33-6.33.27c-.1 0-.2.05-.27.14-.12.15-.08.37.07.5l5.08 3.76-2.02 6.3c-.03.1 0 .23.05.32.12.16.34.2.5.08l5.25-3.8V3z"/></symbol><symbol viewBox="0 0 24 24" id="cdr-star-75" xmlns="http://www.w3.org/2000/svg"><path d="M16 9.64l-1.664-.07-2.002-6.326a.352.352 0 0 0-.668 0L9.664 9.57l-6.328.266a.35.35 0 0 0-.194.63l5.078 3.778-2.015 6.303a.35.35 0 0 0 .538.389L12 17.13l4 2.897v-5.095l-.22-.688.22-.164V9.64z"/></symbol><symbol viewBox="0 0 24 24" id="cdr-star-stroke" xmlns="http://www.w3.org/2000/svg"><path d="M12.293 15.492L15.3 17.67l-1.166-3.65a.498.498 0 0 1 .178-.553L17.36 11.2l-3.787-.16a.496.496 0 0 1-.455-.348L12 7.162l-1.118 3.53a.502.502 0 0 1-.455.35l-3.787.157 3.048 2.267c.172.127.243.35.178.553L8.7 17.67l3.007-2.178a.498.498 0 0 1 .586 0zM12 17.132l-5.257 3.805a.35.35 0 0 1-.538-.391l2.015-6.303-5.078-3.777a.35.35 0 0 1 .194-.63l6.328-.266 2.002-6.326a.352.352 0 0 1 .668 0l2.002 6.327 6.328.266a.35.35 0 0 1 .193.632l-5.078 3.777 2.015 6.303a.35.35 0 0 1-.539.39L12 17.13z"/></symbol><symbol viewBox="0 0 24 24" id="cdr-twitter" xmlns="http://www.w3.org/2000/svg"><path d="M12 9.05s-1.07-2.73 2.1-4.6c0 0 2.6-1.47 5.08.9 0 0 1.12-.04 2.48-1 0 0 .2.88-1.57 2.3 0 0 .97-.07 2.1-.78 0 0-.22 1.22-2.04 2.1 0 0 .55 9.7-9.2 11.8 0 0-5.14 1.13-8.77-1.63 0 0 3.84.4 5.88-1.7 0 0-2.56.24-3.83-2.7 0 0 1.3.22 1.8-.18 0 0-2.7.02-3.3-3.9 0 0 1.1.54 1.83.44 0 0-3.07-1.83-1.22-5.4 0 0 3.42 4.1 8.63 4.35z"/></symbol><symbol viewBox="0 0 24 24" id="cdr-upload" xmlns="http://www.w3.org/2000/svg"><path d="M13 5.4V17c0 .55-.45 1-1 1s-1-.45-1-1V5.4L7.7 8.7c-.38.4-1.02.4-1.4 0a.967.967 0 0 1 0-1.4l5-5c.18-.2.43-.3.7-.3.3 0 .54.12.73.3 3.3 3.33 4.97 5 4.98 5 .4.38.4 1.02 0 1.4-.38.4-1 .4-1.4 0L13 5.4zM6 20h12v-2c0-.55.45-1 1-1s1 .45 1 1v3c0 .28-.1.53-.3.7-.17.2-.42.3-.7.3H5c-.28 0-.53-.1-.7-.3-.2-.17-.3-.42-.3-.7v-3c0-.55.45-1 1-1s1 .45 1 1v2z"/></symbol><symbol viewBox="0 0 24 24" id="cdr-warning-circ-fill" xmlns="http://www.w3.org/2000/svg"><path d="M12 22C6.48 22 2 17.52 2 12S6.48 2 12 2s10 4.48 10 10-4.48 10-10 10zm-.22-16h-.03c-.55.02-1 .48-.97 1.03l.2 6.5c0 .54.45.97 1 .97h.05c.54 0 .98-.43 1-.97l.2-6.5V7c0-.55-.46-1-1-1h-.45zM12 18c.7 0 1.25-.56 1.25-1.25S12.7 15.5 12 15.5s-1.25.56-1.25 1.25S11.3 18 12 18z"/></symbol><symbol viewBox="0 0 24 24" id="cdr-warning-circ-stroke" xmlns="http://www.w3.org/2000/svg"><path d="M12 22C6.48 22 2 17.52 2 12S6.48 2 12 2s10 4.48 10 10-4.48 10-10 10zm0-2c4.42 0 8-3.58 8-8s-3.58-8-8-8-8 3.58-8 8 3.58 8 8 8zm-.22-14h.44c.55 0 1 .45 1 1v.03l-.2 6.5c0 .54-.45.97-1 .97h-.05c-.54 0-.98-.43-1-.97l-.2-6.5c0-.55.43-1 .98-1.03h.03zM12 18c-.7 0-1.25-.56-1.25-1.25S11.3 15.5 12 15.5s1.25.56 1.25 1.25S12.7 18 12 18z"/></symbol><symbol viewBox="0 0 24 24" id="cdr-warning-tri" xmlns="http://www.w3.org/2000/svg"><path d="M12.894 3.558l8.002 15.995A.998.998 0 0 1 20.001 21H3.998a1 1 0 0 1-.894-1.447l8.002-15.995a.998.998 0 0 1 1.788.001zM11.78 7.5h-.03a1 1 0 0 0-.97 1.03l.19 6.5c.017.54.46.97 1 .97h.06c.54 0 .983-.43 1-.97l.19-6.5V8.5a1 1 0 0 0-1-1h-.44zm.22 12a1.25 1.25 0 1 0 0-2.5 1.25 1.25 0 0 0 0 2.5z"/></symbol><symbol viewBox="0 0 24 24" id="cdr-x-circ-fill" xmlns="http://www.w3.org/2000/svg"><path d="M12 22C6.48 22 2 17.52 2 12S6.48 2 12 2s10 4.48 10 10-4.48 10-10 10zm1.4-10l3.3-3.3c.4-.38.4-1 0-1.4-.4-.4-1.02-.4-1.4 0L12 10.6 8.7 7.3a.967.967 0 0 0-1.4 0c-.4.4-.4 1.02 0 1.4l3.28 3.3-3.3 3.3c-.38.38-.38 1.02 0 1.4.4.4 1.04.4 1.43 0l3.3-3.28 3.3 3.3c.38.38 1 .38 1.4 0 .4-.4.4-1.04 0-1.43L13.4 12z"/></symbol><symbol viewBox="0 0 24 24" id="cdr-x-circ-stroke" xmlns="http://www.w3.org/2000/svg"><path d="M12 22C6.48 22 2 17.52 2 12S6.48 2 12 2s10 4.48 10 10-4.48 10-10 10zm0-2c4.42 0 8-3.58 8-8s-3.58-8-8-8-8 3.58-8 8 3.58 8 8 8zm1.4-8l3.3-3.3c.4-.38.4-1.02 0-1.4-.4-.4-1.02-.4-1.4 0L12 10.6 8.7 7.3a.967.967 0 0 0-1.4 0c-.4.38-.4 1.02 0 1.4l3.28 3.3-3.3 3.3c-.38.38-.38 1 0 1.4.4.4 1.04.4 1.43 0l3.3-3.28 3.3 3.28c.38.4 1 .4 1.4 0 .4-.4.4-1.02 0-1.4L13.4 12z"/></symbol><symbol viewBox="0 0 24 24" id="cdr-x-lg" xmlns="http://www.w3.org/2000/svg"><path d="M13.42 12l5.3-5.3c.38-.38.38-1 0-1.4a.99.99 0 0 0-1.42 0L12 10.6 6.7 5.3c-.38-.4-1-.4-1.4 0-.4.4-.4 1.02 0 1.4l5.3 5.3-5.3 5.3c-.4.4-.4 1.02 0 1.4.38.4 1.02.4 1.4 0l5.3-5.28 5.3 5.3c.38.38 1.02.38 1.4 0 .4-.4.4-1.03 0-1.42L13.43 12z"/></symbol><symbol viewBox="0 0 24 24" id="cdr-x-sm" xmlns="http://www.w3.org/2000/svg"><path d="M13.4 12l3.3-3.3c.4-.38.4-1 0-1.4-.4-.4-1.02-.4-1.4 0L12 10.6 8.7 7.3a.967.967 0 0 0-1.4 0c-.4.4-.4 1.02 0 1.4l3.28 3.3-3.3 3.3c-.38.38-.38 1.02 0 1.4.4.4 1.04.4 1.43 0l3.3-3.28 3.3 3.3c.38.38 1 .38 1.4 0 .4-.4.4-1.04 0-1.43L13.4 12z"/></symbol><symbol viewBox="0 0 24 24" id="cdr-youtube" xmlns="http://www.w3.org/2000/svg"><path d="M4.822 5.225S7.267 5 11.985 5c4.717 0 6.956.225 6.956.225s1.717.06 2.388 1.336c0 0 .67.926.67 5.44 0 0 .04 2.794-.277 4.28-.317 1.485-1.02 1.92-1.02 1.92s-.45.433-1.442.55c-.993.12-4.213.25-7.273.25 0 0-5.603-.003-7.49-.313-1.886-.31-2.152-2.06-2.152-2.06s-.772-4.428 0-9.25c0 0 .224-1.926 2.48-2.152zm10.572 6.666l-5.47-2.747v5.495l5.47-2.747z"/></symbol><symbol viewBox="0 0 24 24" id="cdr-zoom-in" xmlns="http://www.w3.org/2000/svg"><path d="M20.7 19.3c.4.38.4 1.02 0 1.4-.38.4-1 .4-1.4 0l-4.25-4.24A7.432 7.432 0 0 1 10.5 18C6.36 18 3 14.64 3 10.5 3 6.36 6.36 3 10.5 3c4.14 0 7.5 3.36 7.5 7.5 0 1.7-.57 3.3-1.54 4.55l4.25 4.24zM10.5 16c3.04 0 5.5-2.46 5.5-5.5S13.54 5 10.5 5 5 7.46 5 10.5 7.46 16 10.5 16zm-.75-6.25v-2.5c0-.4.34-.75.75-.75s.75.34.75.75v2.5h2.5c.4 0 .75.34.75.75s-.34.75-.75.75h-2.5v2.5c0 .4-.34.75-.75.75s-.75-.34-.75-.75v-2.5h-2.5c-.4 0-.75-.34-.75-.75s.34-.75.75-.75h2.5z"/></symbol><symbol viewBox="0 0 24 24" id="cdr-zoom-out" xmlns="http://www.w3.org/2000/svg"><path d="M20.7 19.3c.4.4.4 1.02 0 1.4-.38.4-1.02.4-1.4 0l-4.25-4.24A7.432 7.432 0 0 1 10.5 18C6.36 18 3 14.64 3 10.5 3 6.36 6.36 3 10.5 3c4.14 0 7.5 3.36 7.5 7.5 0 1.7-.57 3.3-1.54 4.55l4.25 4.25zM10.5 16c3.04 0 5.5-2.46 5.5-5.5S13.54 5 10.5 5 5 7.46 5 10.5 7.46 16 10.5 16zM7.25 9.75h6.5c.4 0 .75.34.75.75s-.34.75-.75.75h-6.5c-.4 0-.75-.34-.75-.75s.34-.75.75-.75z"/></symbol></svg>