<?xml version="1.0" encoding="utf-8"?><svg xmlns="http://www.w3.org/2000/svg" xmlns:xlink="http://www.w3.org/1999/xlink"><symbol viewBox="0 0 34.5 34.5" id="icon-rei-add"><path d="M17.2 34.5C7.7 34.5 0 26.8 0 17.2 0 7.7 7.7 0 17.2 0s17.2 7.7 17.2 17.2c.1 9.6-7.6 17.3-17.2 17.3zm0-32C9.1 2.5 2.5 9.1 2.5 17.2 2.5 25.4 9.1 32 17.2 32S32 25.4 32 17.2c0-8.1-6.6-14.7-14.8-14.7z"/><path d="M25.1 15.7h-6.3V9.4c0-.9-.7-1.6-1.6-1.6-.9 0-1.6.7-1.6 1.6v6.3H9.4c-.9 0-1.6.7-1.6 1.6s.7 1.6 1.6 1.6h6.3v6.3c0 .9.7 1.6 1.6 1.6.9 0 1.6-.7 1.6-1.6v-6.3h6.3c.9 0 1.6-.7 1.6-1.6s-.8-1.6-1.7-1.6z"/></symbol><symbol viewBox="0 0 32 32" id="icon-rei-backorder"><path d="M10.659 11.3c-.749.461 2.01 7.107 2.677 8.189a2.021 2.021 0 0 0 3.44-2.121c-.665-1.086-5.369-6.53-6.117-6.068m-.561-7.276a15.048 15.048 0 0 1 9.914 0c.551.191 1.282-.193.958-1.024-.236-.603-.464-1.193-.556-1.432C20.195 1 19.404.531 19.067.454 17.774.163 16.433 0 15.057 0s-2.719.163-4.01.454C10.705.531 9.921 1 9.702 1.568c-.092.24-.322.829-.556 1.432-.323.831.407 1.216.958 1.024m20.2 1.313a17.143 17.143 0 0 0-2.149-2.153c-.256-.216-1.01-.392-1.488.085l-2.761 2.759a15.553 15.553 0 0 1 1.935 1.618c.606.605 1.134 1.26 1.618 1.935l2.759-2.759c.479-.479.303-1.231.085-1.486m-15.242-.479c-7.497 0-13.572 6.075-13.572 13.57 0 7.497 6.075 13.572 13.572 13.572 7.494 0 13.57-6.075 13.57-13.572 0-7.494-6.076-13.57-13.57-13.57m0 23.791c-5.642 0-10.219-4.575-10.219-10.219 0-5.644 4.575-10.219 10.219-10.219 5.644 0 10.221 4.575 10.221 10.219 0 5.642-4.577 10.219-10.221 10.219"/></symbol><symbol viewBox="0 0 1280 720" id="icon-rei-calendar"><path d="M892 108h-36v72H748v-72H532v72H424v-72h-36c-39.6 0-72 32.4-72 72v432c0 39.6 32.4 72 72 72h504c39.6 0 72-32.4 72-72V180c0-39.6-32.4-72-72-72zm0 504H388V324h504v288zM514 36h-72v126h72V36zm324 0h-72v126h72V36z"/></symbol><symbol viewBox="0 0 32 32" id="icon-rei-call"><path d="M13.578 17.296c1.681 3.441 3.805 6.908 5.38 6.138 2.255-1.101 3.792-2.208 6.47 2.037 2.677 4.246-.845 5.251-3.03 6.319-2.521 1.231-8.903-2.949-13.441-12.236-4.536-9.287-3.912-16.892-1.39-18.12C9.752.367 12.71-1.793 14.411 2.928c1.703 4.72-.114 5.253-2.369 6.355-1.574.769-.146 4.575 1.535 8.02"/></symbol><symbol viewBox="0 0 32 32" id="icon-rei-cart"><path d="M12.06 23.742h14.11a1.375 1.375 0 1 0 0-2.752H13.05L7.73 5.333c-.19-.56-.714-.859-1.304-.859h-5.05a1.375 1.375 0 1 0 0 2.752h4.059l5.32 15.657c.19.56.714.859 1.304.859"/><circle cx="26.14" cy="29.933" r="2.067"/><circle cx="12.03" cy="29.933" r="2.067"/></symbol><symbol viewBox="0 0 32 32" id="icon-rei-cart-empty"><circle cx="26.22" cy="29.933" r="2.067"/><circle cx="12.07" cy="29.933" r="2.067"/><path d="M31.737 8.313a1.382 1.382 0 0 0-1.118-.568H8.539l-.791-2.336a1.38 1.38 0 0 0-1.308-.936H1.377a1.379 1.379 0 1 0 0 2.756h4.072l5.336 15.735c.19.56.716.936 1.308.936h14.15c.597 0 1.127-.383 1.313-.951L31.928 9.55c.136-.42.063-.879-.195-1.236m-6.492 12.832H13.083L9.474 10.502h19.24l-3.473 10.644"/></symbol><symbol viewBox="0 0 32 32" id="icon-rei-chat"><path d="M9.28 19.52V9.6H3.2A3.21 3.21 0 0 0 0 12.8v9.6c0 1.76 1.44 3.2 3.2 3.2h1.6v4.8l4.8-4.8h8c1.76 0 3.2-1.44 3.2-3.2v-2.912a1.608 1.608 0 0 1-.32.032H9.28M28.8 1.6H14.4a3.21 3.21 0 0 0-3.2 3.2v12.8h11.2l4.8 4.8v-4.8h1.6c1.76 0 3.2-1.44 3.2-3.2V4.8c0-1.76-1.44-3.2-3.2-3.2"/></symbol><symbol viewBox="0 0 32 32" id="icon-rei-check"><path d="M31.19 8.597L12 27.206a2.65 2.65 0 0 1-1.857.753c-.711 0-1.38-.279-1.885-.782L.781 19.7A2.648 2.648 0 0 1 0 17.815c0-.713.278-1.381.781-1.885 1.01-1.01 2.762-1.01 3.77 0l5.622 5.62L27.478 4.766c1.022-.993 2.78-.963 3.769.06a2.64 2.64 0 0 1 .751 1.896 2.603 2.603 0 0 1-.811 1.873"/></symbol><symbol viewBox="0 0 32 32" id="icon-rei-close"><path d="M18.263 16L31.532 2.731A1.6 1.6 0 1 0 29.269.468L16 13.737 2.731.468A1.6 1.6 0 1 0 .468 2.731L13.737 16 .468 29.269a1.6 1.6 0 0 0 2.262 2.263l13.269-13.269 13.269 13.269c.313.313.722.469 1.131.469a1.6 1.6 0 0 0 1.131-2.732L18.261 16"/></symbol><symbol viewBox="0 0 32 32" id="icon-rei-close-small"><defs><path id="aja" d="M0 0h32v32H0z"/><clipPath id="ajb"><use xlink:href="#aja"/></clipPath></defs><path clip-path="url(#ajb)" d="M30.798 4.22a2.137 2.137 0 0 0 0-3.02 2.137 2.137 0 0 0-3.02 0L15.997 12.981 4.218 1.2a2.135 2.135 0 1 0-3.02 3.02L12.978 16 1.198 27.781a2.135 2.135 0 0 0 1.508 3.645c.546 0 1.09-.208 1.508-.625L15.993 19.02l11.781 11.781c.417.417.962.625 1.508.625s1.092-.208 1.508-.625a2.137 2.137 0 0 0 0-3.02L19.009 16"/></symbol><symbol viewBox="0 0 32 32" id="icon-rei-collapse"><path d="M29.333 18.667H2.666c-1.474 0-2.667-1.193-2.667-2.667s1.193-2.667 2.667-2.667h26.667C30.807 13.333 32 14.526 32 16s-1.193 2.667-2.667 2.667"/></symbol><symbol viewBox="0 0 32 32" id="icon-rei-devices"><path d="M2.317 25.17V3.16c0-.346.281-.627.627-.627h16.979c.346 0 .627.281.627.627v5.373h2.917V1.6a1.6 1.6 0 0 0-1.6-1.6H1.6A1.6 1.6 0 0 0 0 1.6v26.489a1.6 1.6 0 0 0 1.6 1.6h13.9V25.8H2.944a.627.627 0 0 1-.627-.627M10.884.867h1.7a.367.367 0 1 1 0 .734h-1.7a.367.367 0 1 1 0-.734m.85 25.679a1.122 1.122 0 1 1 0 2.243 1.122 1.122 0 0 1 0-2.243"/><path d="M30.995 9.878H18.266c-.555 0-1 .534-1 1.192v19.738c0 .658.45 1.192 1 1.192h12.729c.555 0 1-.534 1-1.192V11.07c0-.658-.45-1.192-1-1.192m-7.215.875h1.7a.367.367 0 1 1 0 .734h-1.7a.367.367 0 1 1 0-.734m.85 20.504a1.122 1.122 0 1 1 0-2.243 1.122 1.122 0 0 1 0 2.243m4.911-3.509c0 .238-.151.43-.338.43h-9.147c-.187 0-.338-.193-.338-.43v-15.11c0-.238.151-.43.338-.43h9.147c.187 0 .338.193.338.43v15.11"/></symbol><symbol viewBox="0 0 32 32" id="icon-rei-down-arrow"><path d="M0 9.333c0 .682.26 1.365.781 1.885l13.333 13.333a2.665 2.665 0 0 0 3.771 0l13.333-13.333a2.665 2.665 0 0 0 0-3.771 2.665 2.665 0 0 0-3.771 0L15.999 18.895 4.551 7.447A2.665 2.665 0 0 0-.001 9.332"/></symbol><symbol viewBox="0 0 32 32" id="icon-rei-email"><path d="M1.056 7.619l13.333 7.162c.448.24 1.027.356 1.611.356.584 0 1.164-.116 1.611-.356l13.333-7.162c.868-.466 1.69-1.93.095-1.93H.959c-1.594 0-.773 1.464.095 1.93m30.26 3.556l-13.701 7.162c-.604.315-1.027.356-1.611.356-.584 0-1.01-.041-1.611-.356-.604-.315-12.714-6.648-13.701-7.162-.694-.362-.688.062-.688.39v13.04c0 .745.993 1.705 1.763 1.705h28.474c.77 0 1.763-.96 1.763-1.705v-13.04c0-.328.007-.752-.688-.39"/></symbol><symbol viewBox="0 0 32 32" id="icon-rei-error"><path d="M16 0C7.164 0 0 7.163 0 16s7.164 15.998 16 15.998S32 24.835 32 16 24.836 0 16 0m7.955 23.946c-.309.31-.721.48-1.158.48-.438 0-.849-.17-1.158-.48L16 18.308l-5.606 5.606c-.244.34-.613.518-1.068.518a1.68 1.68 0 0 1-.172-.009c-.471-.046-.834-.203-1.109-.477-.309-.309-.48-.72-.48-1.158s.17-.849.48-1.158l5.639-5.638-5.639-5.638a1.626 1.626 0 0 1-.479-1.158c0-.438.17-.849.479-1.158.309-.309.721-.48 1.158-.48.437 0 .849.17 1.158.48L16 13.676l5.639-5.638c.309-.309.721-.48 1.158-.48a1.639 1.639 0 0 1 1.158 2.796l-5.639 5.638 5.639 5.638c.309.31.479.72.479 1.158 0 .438-.17.85-.479 1.158"/></symbol><symbol viewBox="0 0 32 32" id="icon-rei-expand"><path d="M29.333 13.333H18.666V2.666c0-1.474-1.193-2.667-2.667-2.667s-2.667 1.193-2.667 2.667v10.667H2.665c-1.474 0-2.667 1.193-2.667 2.667s1.193 2.667 2.667 2.667h10.667v10.667c0 1.474 1.193 2.667 2.667 2.667s2.667-1.193 2.667-2.667V18.667h10.667C30.807 18.667 32 17.474 32 16s-1.193-2.667-2.667-2.667"/></symbol><symbol viewBox="0 0 32 32" id="icon-rei-external-link"><path d="M31.992 1.368a.683.683 0 0 0-.684-.683L20.462.693a.686.686 0 0 0-.483 1.169l3.896 3.89-9.707 9.181a2.053 2.053 0 1 0 2.821 2.983l9.792-9.263 4.053 4.047a.688.688 0 0 0 .746.148.683.683 0 0 0 .422-.633l-.008-10.846"/><path d="M5.999 31.32A6.006 6.006 0 0 1 0 25.321V10.544a6.006 6.006 0 0 1 5.999-5.999h9.578c1.045 0 1.895.85 1.895 1.895 0 1.044-.85 1.894-1.895 1.894H5.999c-1.219 0-2.21.992-2.21 2.21v14.777c0 1.219.992 2.209 2.21 2.209h16.15a2.21 2.21 0 0 0 2.209-2.209v-8.21c0-1.044.85-1.894 1.895-1.894s1.895.85 1.895 1.894v8.21a6.007 6.007 0 0 1-5.999 5.999H5.999"/></symbol><symbol viewBox="0 0 32 32" id="icon-rei-hamburger-menu"><path d="M1.628 5.605h28.744a1.626 1.626 0 1 0 0-3.25H1.628a1.626 1.626 0 1 0 0 3.25M30.372 14.375H1.629a1.625 1.625 0 1 0 0 3.248h28.743a1.625 1.625 0 0 0 0-3.248M30.372 26.395H1.629a1.626 1.626 0 1 0 0 3.25h28.743a1.626 1.626 0 1 0 0-3.25"/></symbol><symbol viewBox="0 0 32 32" id="icon-rei-help"><path d="M15.786 0C6.95.118-.116 7.378.001 16.214c.118 8.832 7.377 15.901 16.213 15.783 8.834-.119 15.902-7.378 15.784-16.214C31.88 6.95 24.62-.117 15.786 0m-.047 25.738h-.088c-1.361-.04-2.32-1.043-2.281-2.383.038-1.318 1.02-2.274 2.336-2.274h.079c1.399.041 2.347 1.034 2.308 2.413-.039 1.321-1.01 2.245-2.353 2.245m5.724-11.36c-.32.454-1.024 1.02-1.91 1.71l-.976.674c-.536.417-.859.81-.981 1.194-.096.304-.143.384-.151 1v.157h-3.728l.01-.316c.047-1.297.078-2.059.616-2.69.843-.99 2.703-2.188 2.782-2.238.266-.2.49-.429.658-.673.39-.539.565-.964.565-1.38 0-.58-.172-1.116-.512-1.593-.327-.46-.947-.693-1.844-.693-.89 0-1.5.282-1.864.862-.375.596-.565 1.221-.565 1.861v.16H9.72l.007-.167c.099-2.354.94-4.05 2.497-5.04.979-.629 2.196-.949 3.617-.949 1.859 0 3.429.452 4.665 1.343 1.252.903 1.887 2.255 1.887 4.02 0 .987-.312 1.914-.927 2.756"/></symbol><symbol viewBox="0 0 32 32" id="icon-rei-info"><path d="M16 0C7.162 0 0 7.163 0 15.999c0 8.838 7.163 16 16 16 8.835 0 15.999-7.163 15.999-16C31.999 7.163 24.834 0 16 0m1.493 5.776c1.56 0 2.02.905 2.02 1.94 0 1.292-1.033 2.487-2.798 2.487-1.477 0-2.18-.742-2.137-1.97 0-1.035.865-2.457 2.917-2.457m-3.996 19.806c-1.067 0-1.845-.648-1.1-3.49l1.222-5.04c.212-.807.247-1.13 0-1.13-.318 0-1.703.557-2.52 1.107l-.532-.872c2.592-2.165 5.571-3.435 6.846-3.435 1.067 0 1.243 1.26.712 3.2l-1.4 5.3c-.248.937-.142 1.26.107 1.26.32 0 1.367-.387 2.397-1.198l.603.81c-2.522 2.52-5.27 3.49-6.335 3.49"/></symbol><symbol viewBox="0 0 32 32" id="icon-rei-inline-search"><path d="M28.574 31.999a1.59 1.59 0 0 1-1.13-.467l-8.08-8.09-.251.147a12.428 12.428 0 0 1-6.268 1.698 12.19 12.19 0 0 1-4.903-1.038 13.308 13.308 0 0 1-4.097-2.806 13.308 13.308 0 0 1-2.806-4.097 12.187 12.187 0 0 1-1.038-4.903c0-3.325 1.294-6.451 3.644-8.802a12.36 12.36 0 0 1 8.8-3.646c1.68 0 3.33.349 4.908 1.038 1.521.664 2.9 1.608 4.098 2.805a13.308 13.308 0 0 1 2.806 4.097 12.19 12.19 0 0 1 1.038 4.903c0 2.287-.625 4.52-1.807 6.459l-.154.253 8.04 8.04c.339.339 1.046 1.211.28 1.978l-1.955 1.955a1.583 1.583 0 0 1-1.128.466M12.441 3.182c-5.103 0-9.254 4.152-9.254 9.256 0 2.436 1.06 4.894 2.908 6.742 1.848 1.849 4.305 2.909 6.742 2.91 5.104 0 9.257-4.152 9.257-9.256 0-2.438-1.06-4.896-2.909-6.744-1.848-1.848-4.306-2.908-6.744-2.908"/></symbol><symbol viewBox="0 0 32 32" id="icon-rei-left-arrow"><path d="M22.667 32c-.682 0-1.365-.26-1.885-.781L7.449 17.886a2.665 2.665 0 0 1 0-3.771L20.782.782a2.665 2.665 0 0 1 3.771 0 2.665 2.665 0 0 1 0 3.771L13.105 16.001l11.448 11.448a2.665 2.665 0 0 1-1.885 4.552"/></symbol><symbol viewBox="0 0 32 32" id="icon-rei-location"><path d="M16 .083C9.604.083 4.4 5.338 4.4 11.795c0 7.515 8.326 16.743 9.275 17.77l2.326 2.517 2.325-2.517c.949-1.028 9.274-10.256 9.274-17.77C27.6 5.337 22.396.083 16 .083m0 27.29s-8.42-9.114-8.42-15.58c0-4.695 3.77-8.502 8.42-8.502s8.42 3.807 8.42 8.502c0 6.466-8.42 15.58-8.42 15.58"/><ellipse cx="16" cy="11.494" rx="2.385" ry="2.408"/></symbol><symbol viewBox="0 0 32 32" id="icon-rei-play-large"><path d="M16 0C7.163 0 0 7.163 0 16c0 8.836 7.163 16 16 16s16-7.164 16-16c0-8.837-7.163-16-16-16m0 30.933C7.766 30.933 1.067 24.234 1.067 16S7.766 1.067 16 1.067 30.933 7.766 30.933 16 24.234 30.933 16 30.933"/><path d="M21.831 15.56l-7.975-4.819a.513.513 0 0 0-.78.44v9.638a.516.516 0 0 0 .78.44l7.975-4.819a.513.513 0 0 0 0-.88m-7.727 4.348v-7.816L20.571 16l-6.467 3.908"/></symbol><symbol viewBox="0 0 32 32" id="icon-rei-play-small"><path d="M16 0C7.163 0 0 7.163 0 16c0 8.836 7.163 16 16 16s16-7.164 16-16c0-8.837-7.163-16-16-16m7.933 16.657l-11.916 7.201a.764.764 0 0 1-.774.012.77.77 0 0 1-.391-.669V8.8a.768.768 0 0 1 1.166-.657l11.916 7.2a.77.77 0 0 1 0 1.314"/></symbol><symbol viewBox="0 0 32 32" id="icon-rei-print"><path d="M2.402 9.6h27.2c.912 0 .763-.973.309-1.131-.456-.158-5.509-2.069-6.39-2.069h-1.12V1.6h-12.8v4.8H8.483c-.88 0-5.934 1.91-6.389 2.069-.454.158-.603 1.131.309 1.131m27.998 1.6h-28.8c-.88 0-1.6.72-1.6 1.6v8c0 .882.72 1.6 1.6 1.6h3.653l-1.411 8h24.318l-1.413-8h3.653c.882 0 1.6-.718 1.6-1.6v-8c0-.88-.718-1.6-1.6-1.6m-23.04 16l1.917-11.205h13.438L24.634 27.2H7.36"/></symbol><symbol viewBox="0 0 32 32" id="icon-rei-profile"><path d="M21.443 16.306c2.206-1.656 3.642-4.281 3.642-7.242 0-4.999-4.076-9.06-9.09-9.06s-9.09 4.066-9.09 9.06c0 2.961 1.436 5.586 3.642 7.242-4.454 2.187-7.557 6.955-7.557 12.489V32h26v-3.205c0-5.534-3.103-10.302-7.557-12.489m-5.443-13.1c3.244 0 5.873 2.624 5.873 5.86 0 3.237-2.63 5.861-5.873 5.861s-5.873-2.624-5.873-5.861c0-3.236 2.63-5.86 5.873-5.86M6.202 28.797c0-5.836 4.382-10.567 9.788-10.567s9.788 4.731 9.788 10.567H6.202"/></symbol><symbol viewBox="0 0 32 32" id="icon-rei-right-arrow"><path d="M9.333 32c.682 0 1.365-.26 1.885-.781l13.333-13.333a2.665 2.665 0 0 0 0-3.771L11.218.782C10.176-.26 8.489-.26 7.447.782s-1.042 2.729 0 3.771l11.448 11.448L7.447 27.449a2.665 2.665 0 0 0 1.885 4.552"/></symbol><symbol viewBox="0 0 32 32" id="icon-rei-search"><path d="M31.522 29.21l-6.78-6.78a13.79 13.79 0 0 0 2.981-8.572c0-7.643-6.218-13.861-13.861-13.861S.001 6.215.001 13.858c0 7.643 6.218 13.861 13.861 13.861 3.234 0 6.211-1.117 8.572-2.98l6.78 6.78c.319.319.736.478 1.154.478s.835-.159 1.154-.478a1.634 1.634 0 0 0 0-2.309M3.262 13.858c0-5.843 4.754-10.596 10.596-10.596s10.596 4.753 10.596 10.596S19.7 24.454 13.858 24.454 3.262 19.7 3.262 13.858"/></symbol><symbol viewBox="0 0 20 20" id="icon-rei-share"><path d="M16.9 14.2c-.6 0-1.1.2-1.6.5-.1.1-.3.1-.4.1-.1 0-.2 0-.3-.1l-7.9-4.1c-.2-.1-.4-.4-.4-.7 0-.3.1-.5.4-.6l8.1-4.1c.1 0 .2-.1.3-.1.1 0 .3 0 .4.1.5.3 1 .5 1.6.5 1.6 0 2.9-1.3 2.9-2.9S18.5 0 16.9 0 14.1 1.2 14 2.8c0 .3-.2.5-.4.7L5.4 7.7c-.1 0-.2.1-.3.1-.1 0-.2 0-.3-.1-.5-.4-1.1-.6-1.7-.6C1.5 7.1.2 8.4.2 10s1.3 2.9 2.9 2.9c.6 0 1.2-.2 1.7-.5.1-.1.2-.1.4-.1.1 0 .2 0 .3.1l8.1 4.2c.3.1.4.4.4.7.1 1.5 1.3 2.8 2.9 2.8 1.6 0 2.9-1.3 2.9-2.9s-1.3-3-2.9-3z"/></symbol><symbol viewBox="0 0 32 32" id="icon-rei-shipping"><path d="M28.24 24.08c0-1.868-1.52-3.388-3.388-3.388s-3.388 1.52-3.388 3.388 1.52 3.388 3.388 3.388 3.388-1.52 3.388-3.388M2.122 20H3.74l.186-.125a5.676 5.676 0 0 1 3.472-.896c2.065.151 3.819 2.063 4.08 4.448l.072.655h8.245l.075-.651a5.023 5.023 0 0 1 2.639-3.861l.39-.207V6.653c0-1.17-.952-2.122-2.122-2.122H2.124c-1.17 0-2.122.952-2.122 2.122v11.224c0 1.17.952 2.122 2.122 2.122M1.471 6.652c0-.36.293-.653.653-.653h18.653c.36 0 .653.293.653.653v11.844a6.493 6.493 0 0 0-2.91 4.115h-5.682c-.572-2.768-2.768-4.912-5.33-5.099-2.01-.148-3.572.633-4.204 1.018h-1.18a.654.654 0 0 1-.653-.653V6.653"/><path d="M32 22.12v-7.306l-1.128-2.256c-.504-1.01-1.827-1.826-2.953-1.826h-4.082v8.267c.33-.068.672-.103 1.02-.103 2.813 0 5.102 2.452 5.102 5.265A2.041 2.041 0 0 0 32 22.12m-6.122-6.286v-3.51h2.041c.564 0 1.225.408 1.476.913l1.154 2.598h-4.672M10.122 24.08c0-1.868-1.52-3.388-3.388-3.388s-3.388 1.52-3.388 3.388 1.52 3.388 3.388 3.388 3.388-1.52 3.388-3.388"/></symbol><symbol viewBox="0 0 32 32" id="icon-rei-size-chart"><path d="M22.489 0H9.512a1.33 1.33 0 0 0-1.33 1.33v29.339c0 .735.596 1.33 1.33 1.33h12.977a1.33 1.33 0 0 0 1.33-1.33V1.33A1.33 1.33 0 0 0 22.489 0m-1.33 29.339H10.843v-3.775h3.813a.795.795 0 0 0 0-1.59h-3.813v-2.795h6.347a.795.795 0 0 0 0-1.59h-6.347v-2.795h3.813a.795.795 0 0 0 0-1.59h-3.813v-2.795h6.347a.795.795 0 0 0 0-1.59h-6.347V8.024h3.813a.795.795 0 0 0 0-1.59h-3.813V2.66h10.316v26.678"/></symbol><symbol viewBox="0 0 32 32" id="icon-rei-social-facebook"><path d="M11.725 32h6.646V16.01h4.483l.581-5.648H18.37V7.039c0-1.246.827-1.537 1.408-1.537h3.575V.019L18.43 0c-5.465 0-6.706 4.09-6.706 6.706v3.656h-3.16v5.648h3.16V32"/></symbol><symbol viewBox="0 0 32 32" id="icon-rei-social-instagram"><path d="M25.815 0H6.184A6.19 6.19 0 0 0 .001 6.183v19.633a6.19 6.19 0 0 0 6.183 6.183h19.631A6.19 6.19 0 0 0 32 25.816V6.183A6.19 6.19 0 0 0 25.815 0m1.775 3.69l.706-.004v5.423l-5.404.019-.019-5.423 4.717-.015m-16.16 9.03c1.025-1.419 2.687-2.348 4.567-2.348s3.542.929 4.567 2.348a5.598 5.598 0 0 1 1.067 3.283 5.64 5.64 0 0 1-5.633 5.631 5.639 5.639 0 0 1-5.633-5.631c0-1.225.4-2.358 1.067-3.283m17.45 13.1a3.071 3.071 0 0 1-3.069 3.067H6.182a3.07 3.07 0 0 1-3.067-3.067v-13.1h4.777a8.712 8.712 0 0 0-.644 3.283c0 4.825 3.925 8.75 8.75 8.75s8.75-3.925 8.75-8.75a8.69 8.69 0 0 0-.646-3.283h4.779v13.1"/></symbol><symbol viewBox="0 0 32 32" id="icon-rei-social-pinterest"><path d="M8.93 31.797c.029.219.31.271.437.106.181-.238 2.523-3.127 3.319-6.01.225-.819 1.292-5.05 1.292-5.05.64 1.221 2.506 2.292 4.492 2.292 5.908 0 9.916-5.385 9.916-12.595 0-5.452-4.619-10.531-11.637-10.531-8.731 0-13.13 6.262-13.13 11.483 0 3.16 1.198 5.973 3.762 7.02.423.173.8.006.921-.458.085-.323.285-1.135.377-1.477.121-.46.075-.621-.265-1.023-.742-.873-1.215-2-1.215-3.606 0-4.644 3.477-8.802 9.05-8.802 4.935 0 7.648 3.02 7.648 7.04 0 5.3-2.346 9.773-5.825 9.773-1.925 0-3.364-1.59-2.904-3.542.554-2.327 1.625-4.839 1.625-6.521 0-1.504-.808-2.76-2.479-2.76-1.967 0-3.546 2.035-3.546 4.758 0 1.735.588 2.908.588 2.908s-2.01 8.523-2.365 10.02c-.702 2.973-.106 6.616-.056 6.983"/></symbol><symbol viewBox="0 0 32 32" id="icon-rei-social-twitter"><path d="M31.12 3.476a13.159 13.159 0 0 1-4.171 1.596 6.565 6.565 0 0 0-11.356 4.491c0 .515.058 1.015.169 1.496A18.642 18.642 0 0 1 2.23 4.199a6.538 6.538 0 0 0-.89 3.302 6.561 6.561 0 0 0 2.922 5.462 6.527 6.527 0 0 1-2.974-.821v.083a6.57 6.57 0 0 0 5.267 6.437 6.585 6.585 0 0 1-2.966.112 6.577 6.577 0 0 0 6.133 4.56 13.18 13.18 0 0 1-8.155 2.81 13.26 13.26 0 0 1-1.565-.092A18.585 18.585 0 0 0 10.062 29c12.08 0 18.679-10 18.679-18.679 0-.283-.004-.569-.017-.85a13.328 13.328 0 0 0 3.275-3.398 13.066 13.066 0 0 1-3.771 1.033 6.583 6.583 0 0 0 2.887-3.633"/></symbol><symbol viewBox="0 0 32 32" id="icon-rei-social-youtube"><path d="M16 3.68C.275 3.68 0 5.078 0 16s.275 12.32 16 12.32S32 26.922 32 16 31.725 3.68 16 3.68m5.128 12.854l-7.184 3.354c-.629.291-1.144-.035-1.144-.73v-6.317c0-.693.515-1.021 1.144-.73l7.184 3.354c.629.294.629.774 0 1.069"/></symbol><symbol viewBox="0 0 32 32" id="icon-rei-star-100"><path d="M16 .593l3.757 11.785H32l-9.92 7.248 3.809 11.781L16 24.1l-9.889 7.307L9.92 19.626 0 12.378h12.241z"/><path d="M16 24.1l-9.889 7.307L9.92 19.626 0 12.378h12.241L16 .593zM11.07 12.335v15.364"/><path d="M0 12.379l9.92 7.246-3.809 11.782 4.961-3.709V12.379H.002"/></symbol><symbol viewBox="0 0 32 32" id="icon-rei-star-25"><path d="M8.03 25.468v.011l-1.919 5.928 1.919-1.419zM8.03 12.378H0l8.03 5.868z"/></symbol><symbol viewBox="0 0 32 32" id="icon-rei-star-50"><path d="M16 24.1l-9.889 7.307L9.92 19.626 0 12.378h12.241L16 .593z"/></symbol><symbol viewBox="0 0 32 32" id="icon-rei-star-75"><path d="M21.974 28.515L16 24.1l-9.889 7.307L9.92 19.626 0 12.378h12.241L16 .593l3.757 11.785h2.213z"/></symbol><symbol viewBox="0 0 32 32" id="icon-rei-success"><path d="M16 0C7.164 0 0 7.163 0 16c0 8.838 7.164 15.999 16 15.999 8.835 0 16-7.162 16-15.999S24.835 0 16 0m9.48 12.413L14.43 23.128a1.523 1.523 0 0 1-1.069.434c-.409 0-.795-.16-1.085-.45l-4.305-4.305c-.29-.29-.45-.675-.45-1.085s.16-.795.45-1.085c.58-.58 1.59-.58 2.171 0l3.237 3.236 9.964-9.664c.588-.572 1.601-.555 2.17.034.285.294.439.682.433 1.092a1.52 1.52 0 0 1-.467 1.08"/></symbol><symbol viewBox="0 0 32 32" id="icon-rei-target"><path d="M16 32C7.177 32 0 24.822 0 16S7.177.001 16 .001C24.822.001 32 7.178 32 16c0 8.823-7.178 16-16 16m.009-10.141c.739 0 1.32.58 1.32 1.293v6.377c6.418-.661 11.553-5.741 12.148-12.221l-6.304-.002a1.295 1.295 0 0 1-1.294-1.294c0-.738.58-1.319 1.294-1.319h6.36c-.65-6.42-5.721-11.622-12.201-12.226l-.003 6.334c0 .713-.581 1.294-1.294 1.294-.739 0-1.32-.581-1.32-1.294V2.467c-6.442.642-11.594 5.786-12.19 12.287l6.298.004c.714 0 1.294.516 1.294 1.23 0 .738-.581 1.319-1.294 1.319H2.53c.624 6.471 5.703 11.638 12.184 12.223v-6.377c0-.713.581-1.293 1.294-1.293"/></symbol><symbol viewBox="0 0 32 32" id="icon-rei-tree-arrow"><path d="M32 16.01c-.001-.312-.068-.556-.394-.876L21.365 5.593a.972.972 0 0 0-1.418.093 1.103 1.103 0 0 0 .088 1.497l8.417 7.841h-4.681L13.648 5.593a.972.972 0 0 0-1.418.093 1.103 1.103 0 0 0 .088 1.497l8.417 7.841H1.005c-.555 0-1 .474-1 1.06 0 .586.449 1.06 1 1.06h19.539l-8.225 7.663a1.102 1.102 0 0 0-.088 1.497.982.982 0 0 0 .753.358.972.972 0 0 0 .665-.265l9.932-9.253h4.681l-8.225 7.663a1.102 1.102 0 0 0-.088 1.497.982.982 0 0 0 .753.358.972.972 0 0 0 .665-.265l10.02-9.336c.284-.284.628-.632.614-1.052"/></symbol><symbol viewBox="0 0 32 32" id="icon-rei-up-arrow"><path d="M0 22.667c0-.682.26-1.365.781-1.885L14.114 7.449a2.665 2.665 0 0 1 3.771 0l13.333 13.333a2.665 2.665 0 0 1 0 3.771 2.665 2.665 0 0 1-3.771 0L15.999 13.105 4.551 24.553a2.665 2.665 0 0 1-4.552-1.885"/></symbol><symbol viewBox="0 0 48 48" id="icon-rei-vr"><path d="M41.5 11H6.4C5.1 11 4 12.1 4 13.6v20.9C4 35.8 5.1 37 6.5 37H16c1 0 1.9-.7 2.3-1.6l2.8-7c.5-1.2 1.6-2 2.9-2 1.3 0 2.4.8 2.9 2l2.8 7c.4.9 1.2 1.6 2.2 1.6h9.6c1.4 0 2.5-1.1 2.5-2.5V13.6c0-1.5-1.1-2.6-2.5-2.6zM15 28.2c-2.4 0-4.2-1.9-4.2-4.2s1.9-4.2 4.2-4.2 4.2 1.9 4.2 4.2-1.8 4.2-4.2 4.2zm18 0c-2.4 0-4.2-1.9-4.2-4.2s1.9-4.2 4.2-4.2 4.2 1.9 4.2 4.2-1.9 4.2-4.2 4.2z"/></symbol><symbol viewBox="0 0 32 32" id="icon-rei-warning"><path d="M31.852 29.3L17.006 1.578a1.167 1.167 0 0 0-2.02 0L.142 29.3c-.202.352-.198.785.008 1.133.208.352.587.567.997.567h29.692c.408 0 .79-.215.997-.567.207-.348.21-.782.001-1.133m-14.186-1.633h-3.333v-3.334h3.333v3.334m0-5.834h-3.333V10.999h3.333v10.834"/></symbol><symbol viewBox="0 0 32 32" id="icon-rei-zoom"><path d="M17.742 10.874h-3.367V7.507a.694.694 0 0 0-.693-.693H11.62a.694.694 0 0 0-.693.693v3.367H7.56a.694.694 0 0 0-.693.693v2.062c0 .382.311.693.693.693h3.367v3.367c0 .382.311.694.693.694h2.062a.694.694 0 0 0 .693-.694v-3.367h3.367a.694.694 0 0 0 .693-.693v-2.062a.694.694 0 0 0-.693-.693"/><path d="M31.377 27.6l-8.04-8.04.154-.253a12.401 12.401 0 0 0 1.807-6.459c0-1.676-.349-3.326-1.038-4.903a13.308 13.308 0 0 0-2.806-4.097 13.298 13.298 0 0 0-4.098-2.805A12.196 12.196 0 0 0 12.448.005a12.36 12.36 0 0 0-8.8 3.646 12.369 12.369 0 0 0-3.644 8.802c0 1.675.349 3.325 1.038 4.903a13.308 13.308 0 0 0 2.806 4.097 13.308 13.308 0 0 0 4.097 2.806 12.187 12.187 0 0 0 4.903 1.038c2.2 0 4.368-.587 6.268-1.698l.251-.147 8.08 8.09a1.59 1.59 0 0 0 1.13.467c.427 0 .827-.166 1.128-.466l1.955-1.955c.766-.766.06-1.638-.28-1.978m-18.533-5.5c-2.437 0-4.895-1.062-6.742-2.91-1.848-1.848-2.908-4.306-2.908-6.742 0-5.104 4.151-9.256 9.254-9.256 2.437 0 4.895 1.06 6.744 2.908 1.849 1.848 2.909 4.306 2.909 6.744 0 5.104-4.152 9.256-9.257 9.256"/></symbol></svg>
