<svg xmlns="http://www.w3.org/2000/svg" viewBox="0 0 24 24">
  <g fill="none" fill-rule="evenodd">
    <path fill="#F9F8F6" fill-rule="nonzero" d="M14.175 17.967l2.639 1.668-1.274-5.767 4.284-3.907-5.643-.515z"/>
    <path fill="#FFD280" fill-rule="nonzero" d="M14.182 9.453L12 4.041l-2.179 5.41-5.645.51 4.284 3.907-1.274 5.767L12 16.579l2.18 1.389z"/>
    <path fill="#BD7B2D" d="M12 1.364l2.878 7.147 7.298.659-5.535 5.048 1.669 7.552L12 17.763l-6.31 4.006 1.669-7.552-5.535-5.048 7.298-.66L12 1.364zm0 2.677L9.821 9.45l-5.645.51 4.284 3.907-1.274 5.767L12 16.579l2.007 1.273v-8.83L12 4.042zm2.507 5.439v8.689l2.307 1.466-1.274-5.767 4.284-3.907-5.317-.481z"/>
  </g>
</svg>
