<svg xmlns="http://www.w3.org/2000/svg" xmlns:xlink="http://www.w3.org/1999/xlink" viewBox="0 0 24 24">
  <g fill="none" fill-rule="evenodd">
    <path fill="#F9F8F6" fill-rule="nonzero" d="M16.815 19.635l-4.817-3.009-.006-12.615 2.188 5.44 5.645.51-4.284 3.907z"/>
    <path fill="#FFD280" fill-rule="nonzero" d="M7.186 19.635L12 16.579V4.041l-2.179 5.41-5.645.51 4.284 3.907z"/>
    <path fill="#BD7B2D" d="M12 1.364l2.878 7.147 7.298.659-5.535 5.048 1.669 7.552L12 17.763l-6.31 4.006 1.669-7.552-5.535-5.048 7.298-.66L12 1.364zm-.247 3.289L9.821 9.45l-5.645.51 4.284 3.907-1.274 5.767 4.567-2.9V4.653zm.5.015v12.07l4.561 2.897-1.274-5.767 4.284-3.907-5.645-.51-1.926-4.783z"/>
  </g>
</svg>
