<svg xmlns="http://www.w3.org/2000/svg" viewBox="0 0 24 24">
  <g fill="none" fill-rule="evenodd">
    <path fill="#FFD280" fill-rule="nonzero" d="M9.822 17.968l-2.633 1.667 1.274-5.767-4.284-3.907 5.643-.515z"/>
    <path fill="#F9F8F6" fill-rule="nonzero" d="M9.816 9.453l2.182-5.412 2.179 5.41 5.645.51-4.284 3.907 1.274 5.767-4.814-3.056-2.18 1.389z"/>
    <path fill="#BD7B2D" d="M12 1.364l2.878 7.145 7.298.66-5.535 5.048 1.669 7.552L12 17.763 5.69 21.77l1.669-7.552L1.824 9.17l7.298-.66L12 1.365zM9.503 9.479l-5.327.482 4.284 3.907-1.274 5.767 2.317-1.472V9.479zM12 4.04l-1.997 4.957v8.848L12 16.579l4.814 3.056-1.274-5.767 4.284-3.907-5.645-.51L12 4.04z"/>
  </g>
</svg>
