<svg viewBox="0 0 24 24" fill="none" xmlns="http://www.w3.org/2000/svg">
<path d="M11.1744 15.838L10.9729 15.7097L10.7714 15.838L5.3805 19.2721L6.81459 12.7579L6.86109 12.5467L6.70153 12.4007L1.85265 7.96318L8.22174 7.38577L8.45038 7.36504L8.53589 7.15198L10.9729 1.08045L13.4099 7.15198L13.4954 7.36504L13.7241 7.38577L20.0931 7.96318L15.2443 12.4007L15.0847 12.5467L15.1312 12.7579L16.5653 19.2721L11.1744 15.838Z" fill="#F9F8F6" stroke="#BD7B2D" stroke-width="0.75"/>
<path d="M7.23125 12.427L2.64978 8.23054L8.68773 7.68137L10.9729 1.99207L12.6077 6.15858V16.8969L10.9757 15.304L5.88225 18.5827L7.23125 12.427Z" fill="#FFD280"/>
<path d="M12.8591 7.23724L12.8591 16.9072" stroke="#BD7B2D" stroke-width="0.75"/>
<path d="M13.1941 7.77738H13.0888L10.97 2.41602L8.79589 7.83449L3.01172 8.35604L7.40741 12.3657L6.12052 18.2108L10.97 15.1223L12.786 16.2732" stroke="#BD7B2D" stroke-width="1.75"/>
</svg>
