<svg xmlns="http://www.w3.org/2000/svg" xmlns:xlink="http://www.w3.org/1999/xlink" viewBox="0 0 24 24">
  <defs>
    <path id="star-25-a" d="M5.69 21.769l1.669-7.552-5.535-5.048 7.298-.66L12 1.364l2.878 7.147 7.298.659-5.535 5.048 1.669 7.552L12 17.763l-6.31 4.006zm1.496-2.134L12 16.579l4.814 3.056-1.274-5.767 4.284-3.907-5.645-.51L12 4.04 9.821 9.45l-5.645.51 4.284 3.907-1.274 5.767z"/>
  </defs>
  <g fill="none" fill-rule="evenodd">
    <path fill="#FFD280" fill-rule="nonzero" d="M9.822 17.968l-2.633 1.667 1.274-5.767-4.284-3.907 5.643-.515z"/>
    <path fill="#F9F8F6" fill-rule="nonzero" d="M9.816 9.453l2.182-5.412 2.179 5.41 5.645.51-4.284 3.907 1.274 5.767-4.814-3.056-2.18 1.389z"/>
    <use fill="#BD7B2D" transform="matrix(-1 0 0 1 24 0)" xlink:href="#star-25-a"/>
  </g>
</svg>
